<?xml version="1.0" encoding="utf-8"?>
<!-- Generator: Adobe Illustrator 16.0.0, SVG Export Plug-In . SVG Version: 6.00 Build 0)  -->
<!DOCTYPE svg PUBLIC "-//W3C//DTD SVG 1.1//EN" "http://www.w3.org/Graphics/SVG/1.1/DTD/svg11.dtd">
<svg version="1.1" id="レイヤー_1" xmlns="http://www.w3.org/2000/svg" xmlns:xlink="http://www.w3.org/1999/xlink" x="0px"
	 y="0px" width="1190.551px" height="841.891px" viewBox="0 0 1190.551 841.891" enable-background="new 0 0 1190.551 841.891"
	 xml:space="preserve">
<polyline fill="none" stroke="#01017F" stroke-width="3" stroke-linecap="round" stroke-linejoin="round" stroke-miterlimit="10" points="
	0,575.717 0,566.043 0,556.371 0,546.699 0,537.027 0,527.355 0,517.684 0,508.012 0,498.34 0,488.666 0,478.994 0,469.322 
	0,459.65 0,449.979 0,440.307 0,430.633 0,420.958 0,411.287 0,401.617 0,391.945 0,382.271 0,372.599 0,362.927 0,353.255 
	0,343.582 0,333.91 0,324.238 0,314.566 0,304.892 0,295.222 0,285.548 0,275.876 0,266.204 0,256.532 0,246.86 0,237.188 
	0,227.516 0,217.844 0,208.17 0,198.498 0,188.827 0,179.154 0,169.482 0,159.81 0,150.138 0,140.466 0,130.792 0,121.12 0,111.449 
	0,101.775 0,92.104 0,82.434 0,72.76 0,63.087 0,53.415 0,43.743 0,34.072 0,24.398 0,14.728 0,0 "/>
<polyline fill="none" stroke="#013D7F" stroke-width="3" stroke-linecap="round" stroke-linejoin="round" stroke-miterlimit="10" points="
	20,575.717 20,566.043 20,556.371 20,546.699 20,537.027 20,527.355 20,517.684 20,508.012 20,498.34 20,488.666 20,478.994 
	20,469.322 20,459.65 20,449.979 20,440.307 20,430.633 20,420.958 20,411.287 20,401.617 20,391.945 20,382.271 20,372.599 
	20,362.927 20,353.255 20,343.582 20,333.91 20,324.238 20,314.566 20,304.892 20,295.222 20,285.548 20,275.876 20,266.204 
	20,256.532 20,246.86 20,237.188 20,227.516 20,217.844 20,208.17 20,198.498 20,188.827 20,179.154 20,169.482 20,159.81 
	20,150.138 20,140.466 20,130.792 20,121.12 20,111.449 20,101.775 20,92.104 20,82.434 20,72.76 20,63.087 20,53.415 20,43.743 
	20,34.072 20,24.398 20,14.728 20,0 "/>
<polyline fill="none" stroke="#02017F" stroke-width="3" stroke-linecap="round" stroke-linejoin="round" stroke-miterlimit="10" points="
	40,575.717 40,566.043 40,556.371 40,546.699 40,537.027 40,527.355 40,517.684 40,508.012 40,498.34 40,488.666 40,478.994 
	40,469.322 40,459.65 40,449.979 40,440.307 40,430.633 40,420.958 40,411.287 40,401.617 40,391.945 40,382.271 40,372.599 
	40,362.927 40,353.255 40,343.582 40,333.91 40,324.238 40,314.566 40,304.892 40,295.222 40,285.548 40,275.876 40,266.204 
	40,256.532 40,246.86 40,237.188 40,227.516 40,217.844 40,208.17 40,198.498 40,188.827 40,179.154 40,169.482 40,159.81 
	40,150.138 40,140.466 40,130.792 40,121.12 40,111.449 40,101.775 40,92.104 40,82.434 40,72.76 40,63.087 40,53.415 40,43.743 
	40,34.072 40,24.398 40,14.728 40,0 "/>
<polyline fill="none" stroke="#023D7F" stroke-width="3" stroke-linecap="round" stroke-linejoin="round" stroke-miterlimit="10" points="
	60,575.717 60,566.043 60,556.371 60,546.699 60,537.027 60,527.355 60,517.684 60,508.012 60,498.34 60,488.666 60,478.994 
	60,469.322 60,459.65 60,449.979 60,440.307 60,430.633 60,420.958 60,411.287 60,401.617 60,391.945 60,382.271 60,372.599 
	60,362.927 60,353.255 60,343.582 60,333.91 60,324.238 60,314.566 60,304.892 60,295.222 60,285.548 60,275.876 60,266.204 
	60,256.532 60,246.86 60,237.188 60,227.516 60,217.844 60,208.17 60,198.498 60,188.827 60,179.154 60,169.482 60,159.81 
	60,150.138 60,140.466 60,130.792 60,121.12 60,111.449 60,101.775 60,92.104 60,82.434 60,72.76 60,63.087 60,53.415 60,43.743 
	60,34.072 60,24.398 60,14.728 60,0 "/>
<polyline fill="none" stroke="#03017F" stroke-width="3" stroke-linecap="round" stroke-linejoin="round" stroke-miterlimit="10" points="
	80,575.717 80,566.043 80,556.371 80,546.699 80,537.027 80,527.355 80,517.684 80,508.012 80,498.34 80,488.666 80,478.994 
	80,469.322 80,459.65 80,449.979 80,440.307 80,430.633 80,420.958 80,411.287 80,401.617 80,391.945 80,382.271 80,372.599 
	80,362.927 80,353.255 80,343.582 80,333.91 80,324.238 80,314.566 80,304.892 80,295.222 80,285.548 80,275.876 80,266.204 
	80,256.532 80,246.86 80,237.188 80,227.516 80,217.844 80,208.17 80,198.498 80,188.827 80,179.154 80,169.482 80,159.81 
	80,150.138 80,140.466 80,130.792 80,121.12 80,111.449 80,101.775 80,92.104 80,82.434 80,72.76 80,63.087 80,53.415 80,43.743 
	80,34.072 80,24.398 80,14.728 80,0 "/>
<polyline fill="none" stroke="#033D7F" stroke-width="3" stroke-linecap="round" stroke-linejoin="round" stroke-miterlimit="10" points="
	100,575.715 100,566.043 100,556.371 100,546.699 100,537.027 100,527.355 100,517.684 100,508.012 100,498.34 100,488.666 
	100,478.994 100,469.322 100,459.65 100,449.979 100,440.307 100,430.633 100,420.958 100,411.287 100,401.617 100,391.945 
	100,382.271 100,372.599 100,362.927 100,353.255 100,343.582 100,333.91 100,324.238 100,314.566 100,304.892 100,295.222 
	100,285.548 100,275.876 100,266.204 100,256.532 100,246.86 100,237.188 100,227.516 100,217.844 100,208.17 100,198.498 
	100,188.827 100,179.154 100,169.482 100,159.81 100,150.138 100,140.466 100,130.792 100,121.12 100,111.449 100,101.775 
	100,92.104 100,82.434 100,72.76 100,63.087 100,53.415 100,43.743 100,34.072 100,24.398 100,14.728 100,0 "/>
<polyline fill="none" stroke="#04017F" stroke-width="3" stroke-linecap="round" stroke-linejoin="round" stroke-miterlimit="10" points="
	120,575.715 120,566.043 120,556.371 120,546.699 120,537.027 120,527.355 120,517.684 120,508.012 120,498.34 120,488.666 
	120,478.994 120,469.322 120,459.65 120,449.979 120,440.307 120,430.633 120,420.958 120,411.287 120,401.617 120,391.945 
	120,382.271 120,372.599 120,362.927 120,353.255 120,343.582 120,333.91 120,324.238 120,314.566 120,304.892 120,295.222 
	120,285.548 120,275.876 120,266.204 120,256.532 120,246.86 120,237.188 120,227.516 120,217.844 120,208.17 120,198.498 
	120,188.827 120,179.154 120,169.482 120,159.81 120,150.138 120,140.466 120,130.792 120,121.12 120,111.449 120,101.775 
	120,92.104 120,82.434 120,72.76 120,63.087 120,53.415 120,43.743 120,34.072 120,24.398 120,14.728 120,0 "/>
<polyline fill="none" stroke="#043D7F" stroke-width="3" stroke-linecap="round" stroke-linejoin="round" stroke-miterlimit="10" points="
	140,575.715 140,566.043 140,556.371 140,546.699 140,537.027 140,527.355 140,517.684 140,508.012 140,498.34 140,488.666 
	140,478.994 140,469.322 140,459.65 140,449.979 140,440.307 140,430.633 140,420.958 140,411.287 140,401.617 140,391.945 
	140,382.271 140,372.599 140,362.927 140,353.255 140,343.582 140,333.91 140,324.238 140,314.566 140,304.892 140,295.222 
	140,285.548 140,275.876 140,266.204 140,256.532 140,246.86 140,237.188 140,227.516 140,217.844 140,208.17 140,198.498 
	140,188.827 140,179.154 140,169.482 140,159.81 140,150.138 140,140.466 140,130.792 140,121.12 140,111.449 140,101.775 
	140,92.104 140,82.434 140,72.76 140,63.087 140,53.415 140,43.743 140,34.072 140,24.398 140,14.728 140,0 "/>
<polyline fill="none" stroke="#05017F" stroke-width="3" stroke-linecap="round" stroke-linejoin="round" stroke-miterlimit="10" points="
	160,575.715 160,566.043 160,556.371 160,546.699 160,537.027 160,527.355 160,517.684 160,508.012 160,498.34 160,488.666 
	160,478.994 160,469.322 160,459.65 160,449.979 160,440.307 160,430.633 160,420.958 160,411.287 160,401.617 160,391.945 
	160,382.271 160,372.599 160,362.927 160,353.255 160,343.582 160,333.91 160,324.238 160,314.566 160,304.892 160,295.222 
	160,285.548 160,275.876 160,266.204 160,256.532 160,246.86 160,237.188 160,227.516 160,217.844 160,208.17 160,198.498 
	160,188.827 160,179.154 160,169.482 160,159.81 160,150.138 160,140.466 160,130.792 160,121.12 160,111.449 160,101.775 
	160,92.104 160,82.434 160,72.76 160,63.087 160,53.415 160,43.743 160,34.072 160,24.398 160,14.728 160,0 "/>
<polyline fill="none" stroke="#053D7F" stroke-width="3" stroke-linecap="round" stroke-linejoin="round" stroke-miterlimit="10" points="
	180,575.715 180,566.043 180,556.371 180,546.699 180,537.027 180,527.355 180,517.684 180,508.012 180,498.34 180,488.666 
	180,478.994 180,469.322 180,459.648 180,449.977 180,440.307 180,430.633 180,420.958 180,411.287 180,401.617 180,391.945 
	180,382.271 180,372.599 180,362.927 180,353.255 180,343.582 180,333.91 180,324.238 180,314.566 180,304.892 180,295.222 
	180,285.548 180,275.876 180,266.204 180,256.532 180,246.86 180,237.188 180,227.516 180,217.844 180,208.17 180,198.498 
	180,188.827 180,179.154 180,169.482 180,159.81 180,150.138 180,140.466 180,130.792 180,121.12 180,111.449 180,101.775 
	180,92.104 180,82.434 180,72.76 180,63.087 180,53.415 180,43.743 180,34.072 180,24.398 180,14.728 180,0 "/>
<polyline fill="none" stroke="#06017F" stroke-width="3" stroke-linecap="round" stroke-linejoin="round" stroke-miterlimit="10" points="
	200,575.715 200,566.043 200,556.371 200,546.699 200,537.027 200,527.355 200,517.684 200,508.012 200,498.34 200,488.666 
	200,478.994 200,469.322 200,459.648 200,449.977 200,440.307 200,430.633 200,420.958 200,411.287 200,401.617 200,391.945 
	200,382.271 200,372.599 200,362.927 200,353.255 200,343.582 200,333.91 200,324.238 200,314.566 200,304.892 200,295.222 
	200,285.548 200,275.876 200,266.204 200,256.532 200,246.86 200,237.188 200,227.516 200,217.844 200,208.17 200,198.498 
	200,188.827 200,179.154 200,169.482 200,159.81 200,150.138 200,140.466 200,130.792 200,121.12 200,111.449 200,101.775 
	200,92.104 200,82.434 200,72.76 200,63.087 200,53.415 200,43.743 200,34.072 200,24.398 200,14.728 200,0 "/>
<polyline fill="none" stroke="#063D7F" stroke-width="3" stroke-linecap="round" stroke-linejoin="round" stroke-miterlimit="10" points="
	220,575.715 220,566.043 220,556.371 220,546.697 220,537.027 220,527.355 220,517.684 220,508.012 220,498.34 220,488.666 
	220,478.994 220,469.322 220,459.648 220,449.977 220,440.307 220,430.633 220,420.958 220,411.287 220,401.617 220,391.945 
	220,382.271 220,372.599 220,362.927 220,353.255 220,343.582 220,333.91 220,324.238 220,314.566 220,304.892 220,295.222 
	220,285.548 220,275.876 220,266.204 220,256.532 220,246.86 220,237.188 220,227.516 220,217.844 220,208.17 220,198.498 
	220,188.827 220,179.154 220,169.482 220,159.81 220,150.138 220,140.466 220,130.792 220,121.12 220,111.449 220,101.775 
	220,92.104 220,82.434 220,72.76 220,63.087 220,53.415 220,43.743 220,34.072 220,24.398 220,14.728 220,0 "/>
<polyline fill="none" stroke="#07017F" stroke-width="3" stroke-linecap="round" stroke-linejoin="round" stroke-miterlimit="10" points="
	240,575.715 240,566.043 240,556.371 240,546.697 240,537.027 240,527.355 240,517.684 240,508.012 240,498.34 240,488.666 
	240,478.994 240,469.322 240,459.648 240,449.977 240,440.307 240,430.633 240,420.958 240,411.287 240,401.617 240,391.945 
	240,382.271 240,372.599 240,362.927 240,353.255 240,343.582 240,333.91 240,324.238 240,314.566 240,304.892 240,295.222 
	240,285.548 240,275.876 240,266.204 240,256.532 240,246.86 240,237.188 240,227.516 240,217.844 240,208.17 240,198.498 
	240,188.827 240,179.154 240,169.482 240,159.81 240,150.138 240,140.466 240,130.792 240,121.12 240,111.449 240,101.775 
	240,92.104 240,82.434 240,72.76 240,63.087 240,53.415 240,43.743 240,34.072 240,24.398 240,14.728 240,0 "/>
<polyline fill="none" stroke="#073D7F" stroke-width="3" stroke-linecap="round" stroke-linejoin="round" stroke-miterlimit="10" points="
	260,575.715 260,566.043 260,556.371 260,546.697 260,537.027 260,527.355 260,517.684 260,508.012 260,498.338 260,488.666 
	260,478.994 260,469.322 260,459.648 260,449.977 260,440.307 260,430.633 260,420.958 260,411.287 260,401.617 260,391.945 
	260,382.271 260,372.599 260,362.927 260,353.255 260,343.582 260,333.91 260,324.238 260,314.566 260,304.892 260,295.222 
	260,285.548 260,275.876 260,266.204 260,256.532 260,246.86 260,237.188 260,227.516 260,217.844 260,208.17 260,198.498 
	260,188.827 260,179.154 260,169.482 260,159.81 260,150.138 260,140.466 260,130.792 260,121.12 260,111.449 260,101.775 
	260,92.104 260,82.434 260,72.76 260,63.087 260,53.415 260,43.743 260,34.072 260,24.398 260,14.728 260,0 "/>
<polyline fill="none" stroke="#08017F" stroke-width="3" stroke-linecap="round" stroke-linejoin="round" stroke-miterlimit="10" points="
	280,575.715 280,566.043 280,556.371 280,546.697 280,537.027 280,527.355 280,517.684 280,508.012 280,498.338 280,488.666 
	280,478.994 280,469.322 280,459.648 280,449.977 280,440.307 280,430.633 280,420.958 280,411.287 280,401.617 280,391.945 
	280,382.271 280,372.599 280,362.927 280,353.255 280,343.582 280,333.91 280,324.238 280,314.566 280,304.892 280,295.222 
	280,285.548 280,275.876 280,266.204 280,256.532 280,246.86 280,237.188 280,227.516 280,217.844 280,208.17 280,198.498 
	280,188.827 280,179.154 280,169.482 280,159.81 280,150.138 280,140.466 280,130.792 280,121.12 280,111.449 280,101.775 
	280,92.104 280,82.434 280,72.76 280,63.087 280,53.415 280,43.743 280,34.072 280,24.398 280,14.728 280,0 "/>
<polyline fill="none" stroke="#083D7F" stroke-width="3" stroke-linecap="round" stroke-linejoin="round" stroke-miterlimit="10" points="
	300,575.715 300,566.043 300,556.371 300,546.697 300,537.027 300,527.355 300,517.684 300,508.012 300,498.338 300,488.666 
	300,478.994 300,469.322 300,459.648 300,449.977 300,440.307 300,430.633 300,420.958 300,411.287 300,401.617 300,391.945 
	300,382.271 300,372.599 300,362.927 300,353.255 300,343.582 300,333.91 300,324.238 300,314.566 300,304.892 300,295.222 
	300,285.548 300,275.876 300,266.204 300,256.532 300,246.86 300,237.188 300,227.516 300,217.844 300,208.17 300,198.498 
	300,188.827 300,179.154 300,169.482 300,159.81 300,150.138 300,140.466 300,130.792 300,121.12 300,111.449 300,101.775 
	300,92.104 300,82.434 300,72.76 300,63.087 300,53.415 300,43.743 300,34.072 300,24.398 300,14.728 300,0 "/>
<polyline fill="none" stroke="#09017F" stroke-width="3" stroke-linecap="round" stroke-linejoin="round" stroke-miterlimit="10" points="
	320,575.715 320,566.043 320,556.371 320,546.697 320,537.027 320,527.355 320,517.684 320,508.012 320,498.338 320,488.666 
	320,478.994 320,469.322 320,459.648 320,449.977 320,440.307 320,430.633 320,420.958 320,411.287 320,401.617 320,391.945 
	320,382.271 320,372.599 320,362.927 320,353.255 320,343.582 320,333.91 320,324.238 320,314.566 320,304.892 320,295.222 
	320,285.548 320,275.876 320,266.204 320,256.532 320,246.86 320,237.188 320,227.516 320,217.844 320,208.17 320,198.498 
	320,188.827 320,179.154 320,169.482 320,159.81 320,150.138 320,140.466 320,130.792 320,121.12 320,111.449 320,101.775 
	320,92.104 320,82.434 320,72.76 320,63.087 320,53.415 320,43.743 320,34.072 320,24.398 320,14.728 320,0 "/>
<polyline fill="none" stroke="#093D7F" stroke-width="3" stroke-linecap="round" stroke-linejoin="round" stroke-miterlimit="10" points="
	340,575.715 340,566.043 340,556.371 340,546.697 340,537.027 340,527.355 340,517.684 340,508.012 340,498.338 340,488.666 
	340,478.994 340,469.322 340,459.648 340,449.977 340,440.307 340,430.633 340,420.958 340,411.287 340,401.617 340,391.945 
	340,382.271 340,372.599 340,362.927 340,353.255 340,343.581 340,333.91 340,324.238 340,314.566 340,304.892 340,295.222 
	340,285.548 340,275.876 340,266.204 340,256.532 340,246.86 340,237.188 340,227.516 340,217.844 340,208.17 340,198.498 
	340,188.827 340,179.154 340,169.482 340,159.81 340,150.138 340,140.466 340,130.792 340,121.12 340,111.449 340,101.775 
	340,92.104 340,82.434 340,72.76 340,63.087 340,53.415 340,43.743 340,34.072 340,24.398 340,14.728 340,0 "/>
<polyline fill="none" stroke="#0A017F" stroke-width="3" stroke-linecap="round" stroke-linejoin="round" stroke-miterlimit="10" points="
	360,575.715 360,566.043 360,556.371 360,546.697 360,537.027 360,527.355 360,517.684 360,508.012 360,498.338 360,488.666 
	360,478.994 360,469.322 360,459.648 360,449.977 360,440.307 360,430.633 360,420.958 360,411.287 360,401.617 360,391.945 
	360,382.271 360,372.599 360,362.927 360,353.255 360,343.581 360,333.91 360,324.238 360,314.566 360,304.892 360,295.222 
	360,285.548 360,275.876 360,266.204 360,256.532 360,246.86 360,237.188 360,227.516 360,217.844 360,208.17 360,198.498 
	360,188.827 360,179.154 360,169.482 360,159.81 360,150.138 360,140.466 360,130.792 360,121.12 360,111.449 360,101.775 
	360,92.104 360,82.434 360,72.76 360,63.087 360,53.415 360,43.743 360,34.072 360,24.398 360,14.728 360,0 "/>
<polyline fill="none" stroke="#0A3D7F" stroke-width="3" stroke-linecap="round" stroke-linejoin="round" stroke-miterlimit="10" points="
	380,575.715 380,566.043 380,556.371 380,546.697 380,537.027 380,527.355 380,517.684 380,508.012 380,498.338 380,488.666 
	380,478.994 380,469.322 380,459.648 380,449.977 380,440.307 380,430.633 380,420.958 380,411.287 380,401.617 380,391.945 
	380,382.271 380,372.599 380,362.927 380,353.255 380,343.581 380,333.91 380,324.238 380,314.566 380,304.892 380,295.222 
	380,285.548 380,275.876 380,266.204 380,256.532 380,246.86 380,237.188 380,227.516 380,217.844 380,208.17 380,198.498 
	380,188.827 380,179.154 380,169.482 380,159.81 380,150.138 380,140.466 380,130.792 380,121.12 380,111.449 380,101.775 
	380,92.104 380,82.434 380,72.76 380,63.087 380,53.415 380,43.743 380,34.072 380,24.398 380,14.728 380,0 "/>
<polyline fill="none" stroke="#0B017F" stroke-width="3" stroke-linecap="round" stroke-linejoin="round" stroke-miterlimit="10" points="
	400,575.715 400,566.043 400,556.371 400,546.697 400,537.027 400,527.355 400,517.684 400,508.012 400,498.338 400,488.666 
	400,478.994 400,469.322 400,459.648 400,449.977 400,440.307 400,430.633 400,420.958 400,411.287 400,401.617 400,391.945 
	400,382.271 400,372.599 400,362.927 400,353.255 400,343.581 400,333.91 400,324.238 400,314.566 400,304.892 400,295.222 
	400,285.548 400,275.876 400,266.204 400,256.532 400,246.86 400,237.188 400,227.516 400,217.844 400,208.17 400,198.498 
	400,188.827 400,179.154 400,169.482 400,159.81 400,150.138 400,140.466 400,130.792 400,121.12 400,111.449 400,101.775 
	400,92.104 400,82.434 400,72.76 400,63.087 400,53.415 400,43.743 400,34.072 400,24.398 400,14.728 400,0 "/>
<polyline fill="none" stroke="#0B3D7F" stroke-width="3" stroke-linecap="round" stroke-linejoin="round" stroke-miterlimit="10" points="
	420,575.715 420,566.043 420,556.371 420,546.697 420,537.027 420,527.355 420,517.684 420,508.012 420,498.338 420,488.666 
	420,478.994 420,469.322 420,459.648 420,449.977 420,440.307 420,430.633 420,420.958 420,411.287 420,401.617 420,391.945 
	420,382.271 420,372.599 420,362.927 420,353.255 420,343.581 420,333.91 420,324.238 420,314.566 420,304.892 420,295.222 
	420,285.548 420,275.876 420,266.204 420,256.532 420,246.86 420,237.188 420,227.516 420,217.844 420,208.17 420,198.498 
	420,188.827 420,179.154 420,169.482 420,159.81 420,150.138 420,140.466 420,130.792 420,121.12 420,111.449 420,101.775 
	420,92.104 420,82.434 420,72.76 420,63.087 420,53.415 420,43.743 420,34.072 420,24.398 420,14.728 420,0 "/>
<polyline fill="none" stroke="#0C017F" stroke-width="3" stroke-linecap="round" stroke-linejoin="round" stroke-miterlimit="10" points="
	440,575.715 440,566.043 440,556.371 440,546.697 440,537.027 440,527.355 440,517.684 440,508.012 440,498.338 440,488.666 
	440,478.994 440,469.322 440,459.648 440,449.977 440,440.307 440,430.633 440,420.958 440,411.287 440,401.617 440,391.945 
	440,382.271 440,372.599 440,362.927 440,353.255 440,343.581 440,333.91 440,324.238 440,314.566 440,304.892 440,295.222 
	440,285.548 440,275.876 440,266.204 440,256.532 440,246.86 440,237.188 440,227.516 440,217.844 440,208.17 440,198.498 
	440,188.827 440,179.154 440,169.482 440,159.81 440,150.138 440,140.466 440,130.792 440,121.12 440,111.449 440,101.775 
	440,92.104 440,82.434 440,72.76 440,63.087 440,53.415 440,43.743 440,34.072 440,24.398 440,14.728 440,0 "/>
<polyline fill="none" stroke="#0C3D7F" stroke-width="3" stroke-linecap="round" stroke-linejoin="round" stroke-miterlimit="10" points="
	460,575.715 460,566.043 460,556.371 460,546.697 460,537.027 460,527.355 460,517.684 460,508.012 460,498.338 460,488.666 
	460,478.994 460,469.322 460,459.648 460,449.977 460,440.307 460,430.633 460,420.958 460,411.287 460,401.617 460,391.945 
	460,382.271 460,372.599 460,362.927 460,353.255 460,343.581 460,333.91 460,324.238 460,314.566 460,304.892 460,295.222 
	460,285.548 460,275.876 460,266.204 460,256.532 460,246.86 460,237.188 460,227.516 460,217.844 460,208.17 460,198.498 
	460,188.827 460,179.154 460,169.482 460,159.81 460,150.138 460,140.466 460,130.792 460,121.12 460,111.449 460,101.775 
	460,92.104 460,82.434 460,72.76 460,63.087 460,53.415 460,43.743 460,34.072 460,24.398 460,14.728 460,0 "/>
<polyline fill="none" stroke="#0D017F" stroke-width="3" stroke-linecap="round" stroke-linejoin="round" stroke-miterlimit="10" points="
	480,575.715 480,566.043 480,556.371 480,546.697 480,537.027 480,527.355 480,517.684 480,508.012 480,498.338 480,488.666 
	480,478.994 480,469.322 480,459.648 480,449.977 480,440.307 480,430.633 480,420.958 480,411.287 480,401.617 480,391.945 
	480,382.271 480,372.599 480,362.927 480,353.255 480,343.581 480,333.91 480,324.238 480,314.566 480,304.892 480,295.222 
	480,285.548 480,275.876 480,266.204 480,256.532 480,246.86 480,237.188 480,227.516 480,217.844 480,208.17 480,198.498 
	480,188.827 480,179.154 480,169.482 480,159.81 480,150.138 480,140.466 480,130.792 480,121.12 480,111.449 480,101.775 
	480,92.104 480,82.434 480,72.76 480,63.087 480,53.415 480,43.743 480,34.072 480,24.398 480,14.728 480,0 "/>
<polyline fill="none" stroke="#0D3D7F" stroke-width="3" stroke-linecap="round" stroke-linejoin="round" stroke-miterlimit="10" points="
	500,575.715 500,566.043 500,556.371 500,546.697 500,537.027 500,527.355 500,517.684 500,508.012 500,498.338 500,488.666 
	500,478.994 500,469.322 500,459.648 500,449.977 500,440.307 500,430.633 500,420.958 500,411.287 500,401.617 500,391.945 
	500,382.271 500,372.599 500,362.927 500,353.255 500,343.581 500,333.91 500,324.238 500,314.566 500,304.892 500,295.222 
	500,285.548 500,275.876 500,266.204 500,256.532 500,246.86 500,237.188 500,227.516 500,217.844 500,208.17 500,198.498 
	500,188.827 500,179.154 500,169.482 500,159.81 500,150.138 500,140.466 500,130.792 500,121.12 500,111.449 500,101.775 
	500,92.104 500,82.434 500,72.76 500,63.087 500,53.415 500,43.743 500,34.072 500,24.398 500,14.728 500,0 "/>
<polyline fill="none" stroke="#0E017F" stroke-width="3" stroke-linecap="round" stroke-linejoin="round" stroke-miterlimit="10" points="
	520,575.715 520,566.043 520,556.371 520,546.697 520,537.027 520,527.355 520,517.684 520,508.012 520,498.338 520,488.666 
	520,478.994 520,469.322 520,459.648 520,449.977 520,440.305 520,430.633 520,420.958 520,411.287 520,401.616 520,391.944 
	520,382.271 520,372.599 520,362.926 520,353.254 520,343.581 520,333.91 520,324.238 520,314.566 520,304.892 520,295.222 
	520,285.548 520,275.876 520,266.204 520,256.532 520,246.86 520,237.188 520,227.516 520,217.844 520,208.17 520,198.498 
	520,188.827 520,179.154 520,169.482 520,159.81 520,150.138 520,140.466 520,130.792 520,121.12 520,111.449 520,101.775 
	520,92.104 520,82.434 520,72.76 520,63.087 520,53.415 520,43.743 520,34.072 520,24.398 520,14.728 520,0 "/>
<polyline fill="none" stroke="#0E3D7F" stroke-width="3" stroke-linecap="round" stroke-linejoin="round" stroke-miterlimit="10" points="
	540,575.715 540,566.043 540,556.371 540,546.697 540,537.027 540,527.355 540,517.684 540,508.012 540,498.338 540,488.666 
	540,478.994 540,469.322 540,459.648 540,449.977 540,440.305 540,430.633 540,420.958 540,411.287 540,401.616 540,391.944 
	540,382.271 540,372.599 540,362.926 540,353.254 540,343.581 540,333.91 540,324.238 540,314.566 540,304.892 540,295.222 
	540,285.548 540,275.876 540,266.204 540,256.532 540,246.86 540,237.188 540,227.516 540,217.844 540,208.17 540,198.498 
	540,188.827 540,179.154 540,169.482 540,159.81 540,150.138 540,140.466 540,130.792 540,121.12 540,111.449 540,101.775 
	540,92.104 540,82.434 540,72.76 540,63.087 540,53.415 540,43.743 540,34.072 540,24.398 540,14.728 540,0 "/>
<polyline fill="none" stroke="#0F017F" stroke-width="3" stroke-linecap="round" stroke-linejoin="round" stroke-miterlimit="10" points="
	560,575.715 560,566.043 560,556.371 560,546.697 560,537.027 560,527.355 560,517.684 560,508.012 560,498.338 560,488.666 
	560,478.994 560,469.322 560,459.648 560,449.977 560,440.305 560,430.633 560,420.958 560,411.287 560,401.616 560,391.944 
	560,382.271 560,372.599 560,362.926 560,353.254 560,343.581 560,333.91 560,324.238 560,314.566 560,304.892 560,295.222 
	560,285.548 560,275.876 560,266.204 560,256.532 560,246.86 560,237.188 560,227.516 560,217.844 560,208.17 560,198.498 
	560,188.827 560,179.154 560,169.482 560,159.81 560,150.138 560,140.466 560,130.792 560,121.12 560,111.449 560,101.775 
	560,92.104 560,82.434 560,72.76 560,63.087 560,53.415 560,43.743 560,34.072 560,24.398 560,14.728 560,0 "/>
<polyline fill="none" stroke="#0F3D7F" stroke-width="3" stroke-linecap="round" stroke-linejoin="round" stroke-miterlimit="10" points="
	580,575.715 580,566.043 580,556.371 580,546.697 580,537.027 580,527.355 580,517.684 580,508.012 580,498.338 580,488.666 
	580,478.994 580,469.322 580,459.648 580,449.977 580,440.305 580,430.633 580,420.958 580,411.287 580,401.616 580,391.944 
	580,382.271 580,372.599 580,362.926 580,353.254 580,343.581 580,333.91 580,324.238 580,314.566 580,304.892 580,295.222 
	580,285.548 580,275.876 580,266.204 580,256.532 580,246.86 580,237.188 580,227.516 580,217.844 580,208.17 580,198.498 
	580,188.827 580,179.154 580,169.482 580,159.81 580,150.138 580,140.466 580,130.792 580,121.12 580,111.449 580,101.775 
	580,92.104 580,82.434 580,72.76 580,63.087 580,53.415 580,43.743 580,34.072 580,24.398 580,14.728 580,0 "/>
</svg>
