<?xml version="1.0" encoding="utf-8"?>
<!-- Generator: Adobe Illustrator 16.0.0, SVG Export Plug-In . SVG Version: 6.00 Build 0)  -->
<!DOCTYPE svg PUBLIC "-//W3C//DTD SVG 1.1//EN" "http://www.w3.org/Graphics/SVG/1.1/DTD/svg11.dtd">
<svg version="1.1" id="レイヤー_1" xmlns="http://www.w3.org/2000/svg" xmlns:xlink="http://www.w3.org/1999/xlink" x="0px"
	 y="0px" width="1190.55px" height="841.89px" viewBox="0 0 1190.55 841.89" enable-background="new 0 0 1190.55 841.89"
	 xml:space="preserve">
<polyline fill="none" stroke="#D77F79" stroke-width="3" stroke-linecap="round" stroke-linejoin="round" stroke-miterlimit="10" points="
	416.65,591.201 416.65,599.679 408.18,599.679 399.7,599.679 391.24,599.679 391.24,608.15 391.24,616.621 399.7,625.089 
	391.24,633.74 399.7,633.74 408.18,642.201 408.18,633.74 408.18,625.089 408.18,616.621 399.7,616.621 399.7,608.15 408.18,608.15 
	416.65,608.15 416.65,616.621 416.65,625.089 416.65,633.74 416.65,642.201 425.12,642.201 433.76,642.201 442.24,642.201 
	442.24,633.74 433.76,633.74 425.12,633.74 425.12,625.089 425.12,616.621 "/>
<polyline fill="none" stroke="#D7797F" stroke-width="3" stroke-linecap="round" stroke-linejoin="round" stroke-miterlimit="10" points="
	408.18,591.201 399.7,591.201 391.24,591.201 382.76,591.201 382.76,582.56 382.76,574.089 374.12,574.089 365.65,574.089 
	374.12,582.56 365.65,582.56 357.18,582.56 348.7,582.56 348.7,591.201 348.7,599.679 357.18,599.679 357.18,591.201 
	365.65,591.201 374.12,591.201 365.65,599.679 365.65,608.15 365.65,616.621 374.12,625.089 382.76,625.089 391.24,625.089 
	382.76,616.621 382.76,608.15 382.76,599.679 374.12,599.679 374.12,608.15 374.12,616.621 "/>
<polyline fill="none" stroke="#D7017F" stroke-width="3" stroke-linecap="round" stroke-linejoin="round" stroke-miterlimit="10" points="
	340.24,472.089 331.59,472.089 323.12,472.089 314.65,472.089 306.18,472.089 306.18,463.621 314.65,463.621 323.12,463.621 
	331.59,463.621 340.24,463.621 348.7,463.621 348.7,472.089 348.7,480.56 348.7,489.029 348.7,497.679 348.7,506.15 348.7,514.621 
	357.18,514.621 357.18,523.089 357.18,531.56 365.65,531.56 365.65,540.201 374.12,540.201 382.76,540.201 391.24,540.201 
	399.7,540.201 408.18,540.201 408.18,548.679 408.18,557.15 408.18,565.621 "/>
<polyline fill="none" stroke="#D73D7F" stroke-width="3" stroke-linecap="round" stroke-linejoin="round" stroke-miterlimit="10" points="
	408.18,582.56 399.7,574.089 391.24,565.621 391.24,557.15 382.76,557.15 374.12,557.15 365.65,557.15 357.18,557.15 348.7,557.15 
	348.7,548.679 340.24,540.201 340.24,531.56 331.59,523.089 331.59,514.621 331.59,506.15 323.12,506.15 315,497.679 
	306.18,497.679 297.7,497.679 289.06,506.15 297.7,506.15 306.18,506.15 314.65,506.15 323.12,514.621 314.65,514.621 
	306.18,514.621 297.7,514.621 289.06,514.621 289.06,523.089 297.7,523.089 "/>
<polyline fill="none" stroke="#D71F7F" stroke-width="3" stroke-linecap="round" stroke-linejoin="round" stroke-miterlimit="10" points="
	408.18,574.089 399.7,565.621 399.7,557.15 399.7,548.679 391.24,548.679 382.76,548.679 374.12,548.679 365.65,548.679 
	357.18,548.679 357.18,540.201 348.7,540.201 348.7,531.56 348.7,523.089 340.24,523.089 340.24,514.621 340.24,506.15 
	340.24,497.679 340.24,489.029 340.24,480.56 331.59,480.56 323.12,480.56 314.65,480.56 306.18,480.56 297.7,489.029 
	306.18,489.029 314.65,489.029 323.12,489.029 331.59,489.029 331.59,497.679 323.12,497.679 "/>
<polyline fill="none" stroke="#D75B7F" stroke-width="3" stroke-linecap="round" stroke-linejoin="round" stroke-miterlimit="10" points="
	399.7,582.56 391.24,582.56 391.24,574.089 382.76,565.621 374.12,565.621 365.65,565.621 357.18,565.621 348.7,565.621 
	340.24,565.621 340.24,557.15 340.24,548.679 331.59,548.679 331.59,540.201 331.59,531.56 323.12,523.089 314.65,523.089 
	306.18,523.089 306.18,531.56 314.65,531.56 323.12,531.56 314.65,540.201 323.12,540.201 323.12,548.679 323.12,557.15 
	323.12,565.621 331.59,557.15 331.59,565.621 340.24,574.089 348.7,574.089 357.18,574.089 "/>
<polyline fill="none" stroke="#D77F01" stroke-width="3" stroke-linecap="round" stroke-linejoin="round" stroke-miterlimit="10" points="
	416.65,565.621 416.65,557.15 416.65,548.679 416.65,540.201 425.12,540.201 425.12,548.679 425.12,557.15 433.76,557.15 
	433.76,548.679 433.76,540.201 442.24,531.56 442.24,540.201 442.24,548.679 442.24,557.15 450.7,557.15 450.7,548.679 
	450.7,540.201 450.7,531.56 450.7,523.089 459.18,514.621 459.18,523.089 459.18,531.56 459.18,540.201 459.18,548.679 
	467.65,548.679 467.65,540.201 467.65,531.56 467.65,523.089 467.65,514.621 467.65,506.15 "/>
<polyline fill="none" stroke="#D77F3D" stroke-width="3" stroke-linecap="round" stroke-linejoin="round" stroke-miterlimit="10" points="
	416.65,582.56 425.12,591.201 425.12,599.679 425.12,608.15 433.76,616.621 433.76,625.089 442.24,625.089 450.7,633.74 
	459.18,633.74 467.65,625.089 459.18,625.089 450.7,625.089 442.24,616.621 450.7,616.621 459.18,616.621 467.65,616.621 
	476.3,625.089 484.76,625.089 493.24,625.089 501.7,616.621 493.24,616.621 484.76,616.621 476.3,616.621 467.65,608.15 
	459.18,608.15 450.7,608.15 442.24,608.15 433.76,608.15 433.76,599.679 442.24,599.679 "/>
<polyline fill="none" stroke="#D77F5B" stroke-width="3" stroke-linecap="round" stroke-linejoin="round" stroke-miterlimit="10" points="
	425.12,582.56 433.76,591.201 442.24,591.201 450.7,591.201 450.7,599.679 459.18,599.679 467.65,599.679 476.3,599.679 
	476.3,608.15 484.76,608.15 493.24,608.15 501.7,608.15 501.7,599.679 493.24,599.679 484.76,599.679 476.3,591.201 467.65,591.201 
	459.18,591.201 459.18,582.56 467.65,582.56 476.3,582.56 484.76,582.56 484.76,591.201 493.24,591.201 501.7,591.201 
	510.18,591.201 510.18,599.679 510.18,608.15 510.18,616.621 518.82,608.15 "/>
<polyline fill="none" stroke="#D77F1F" stroke-width="3" stroke-linecap="round" stroke-linejoin="round" stroke-miterlimit="10" points="
	416.65,574.089 425.12,574.089 433.76,582.56 442.24,582.56 450.7,582.56 459.18,574.089 467.65,574.089 476.3,574.089 
	484.76,574.089 484.76,565.621 476.3,565.621 467.65,565.621 459.18,565.621 450.7,574.089 442.24,574.089 433.76,574.089 
	425.12,565.621 433.76,565.621 442.24,565.621 450.7,565.621 459.18,557.15 467.65,557.15 476.3,557.15 476.3,548.679 
	476.3,540.201 476.3,531.56 476.3,523.089 476.3,514.621 476.3,506.15 476.3,497.679 "/>
<polyline fill="none" stroke="#AF7F79" stroke-width="3" stroke-linecap="round" stroke-linejoin="round" stroke-miterlimit="10" points="
	586.76,557.15 586.76,565.621 586.76,574.089 586.76,582.56 586.76,591.201 578.3,591.201 578.3,582.56 578.3,574.089 
	578.3,565.621 569.82,565.621 569.82,574.089 569.82,582.56 569.82,591.201 569.82,599.679 561.18,599.679 552.7,599.679 
	544.24,599.679 535.76,599.679 535.76,608.15 527.3,608.15 518.82,599.679 527.3,599.679 527.3,591.201 518.82,591.201 
	518.82,582.56 510.18,582.56 501.7,582.56 493.24,582.56 493.24,574.089 493.24,565.621 "/>
<polyline fill="none" stroke="#AF7F5B" stroke-width="3" stroke-linecap="round" stroke-linejoin="round" stroke-miterlimit="10" points="
	578.3,548.679 569.82,548.679 561.18,548.679 552.7,548.679 544.24,548.679 544.24,557.15 535.76,557.15 527.3,557.15 
	518.82,557.15 510.18,557.15 501.7,557.15 493.24,557.15 484.76,557.15 484.76,548.679 493.24,548.679 501.7,548.679 
	510.18,548.679 518.82,548.679 527.3,548.679 535.76,548.679 535.76,540.201 527.3,540.201 518.82,540.201 510.18,540.201 
	501.7,540.201 493.24,540.201 484.76,540.201 484.76,531.56 484.76,523.089 484.76,514.621 "/>
<polyline fill="none" stroke="#AF7F1F" stroke-width="3" stroke-linecap="round" stroke-linejoin="round" stroke-miterlimit="10" points="
	586.76,540.201 578.3,540.201 569.82,540.201 561.18,540.201 552.7,540.201 544.24,540.201 535.76,531.56 527.3,531.56 
	518.82,531.56 510.18,531.56 501.7,531.56 493.24,531.56 493.24,523.089 493.24,514.621 493.24,506.15 484.76,506.15 
	484.76,497.679 484.76,489.029 493.24,480.56 493.24,489.029 493.24,497.679 501.7,497.679 501.7,506.15 501.7,514.621 
	501.7,523.089 510.18,523.089 518.82,523.089 527.3,523.089 535.76,523.089 544.24,531.56 "/>
<polyline fill="none" stroke="#AF797F" stroke-width="3" stroke-linecap="round" stroke-linejoin="round" stroke-miterlimit="10" points="
	595.24,557.15 595.24,565.621 595.24,574.089 595.24,582.56 595.24,591.201 603.701,591.201 603.701,582.56 603.701,574.089 
	603.701,565.621 603.701,557.15 612.349,557.15 612.349,565.621 612.349,574.089 612.349,582.56 620.82,582.56 629.3,582.56 
	629.3,574.089 620.82,574.089 620.82,565.621 620.82,557.15 629.3,557.15 629.3,565.621 637.759,574.089 646.24,574.089 
	646.24,565.621 637.759,565.621 637.759,557.15 646.24,557.15 654.88,557.15 654.88,565.621 "/>
<polyline fill="none" stroke="#AF7F3D" stroke-width="3" stroke-linecap="round" stroke-linejoin="round" stroke-miterlimit="10" points="
	586.76,548.679 578.3,557.15 569.82,557.15 561.18,565.621 561.18,574.089 561.18,582.56 561.18,591.201 552.7,591.201 
	544.24,591.201 535.76,591.201 527.3,582.56 535.76,582.56 544.24,582.56 552.7,582.56 552.7,574.089 544.24,574.089 
	535.76,574.089 527.3,574.089 518.82,574.089 510.18,574.089 501.7,574.089 501.7,565.621 510.18,565.621 518.82,565.621 
	527.3,565.621 535.76,565.621 544.24,565.621 552.7,565.621 552.7,557.15 561.18,557.15 "/>
<polyline fill="none" stroke="#AF017F" stroke-width="3" stroke-linecap="round" stroke-linejoin="round" stroke-miterlimit="10" points="
	595.24,531.56 595.24,523.089 586.76,523.089 578.3,523.089 569.82,523.089 561.18,523.089 561.18,514.621 561.18,506.15 
	561.18,497.679 552.7,497.679 544.24,497.679 535.76,497.679 527.3,497.679 527.3,489.029 527.3,480.56 527.3,472.089 
	527.3,463.621 527.3,455.15 535.76,455.15 535.76,463.621 535.76,472.089 535.76,480.56 535.76,489.029 544.24,489.029 
	544.24,480.56 544.24,472.089 544.24,463.621 544.24,455.15 544.24,446.5 552.7,438.029 "/>
<polyline fill="none" stroke="#AF7F01" stroke-width="3" stroke-linecap="round" stroke-linejoin="round" stroke-miterlimit="10" points="
	586.76,531.56 578.3,531.56 569.82,531.56 561.18,531.56 552.7,531.56 552.7,523.089 544.24,523.089 544.24,514.621 535.76,514.621 
	527.3,514.621 518.82,514.621 510.18,514.621 510.18,506.15 510.18,497.679 510.18,489.029 501.7,489.029 501.7,480.56 
	510.18,480.56 510.18,472.089 518.82,463.621 518.82,472.089 518.82,480.56 518.82,489.029 518.82,497.679 518.82,506.15 
	527.3,506.15 535.76,506.15 544.24,506.15 552.7,506.15 552.7,514.621 "/>
<polyline fill="none" stroke="#AF1F7F" stroke-width="3" stroke-linecap="round" stroke-linejoin="round" stroke-miterlimit="10" points="
	595.24,540.201 603.701,531.56 603.701,523.089 603.701,514.621 595.24,514.621 586.76,514.621 578.3,514.621 569.82,514.621 
	569.82,506.15 569.82,497.679 569.82,489.029 561.18,489.029 552.7,489.029 552.7,480.56 552.7,472.089 552.7,463.621 552.7,455.15 
	552.7,446.5 561.18,438.029 561.18,446.5 561.18,455.15 561.18,463.621 561.18,472.089 561.18,480.56 569.82,480.56 578.3,480.56 
	578.3,489.029 578.3,497.679 578.3,506.15 586.76,506.15 "/>
<polyline fill="none" stroke="#AF3D7F" stroke-width="3" stroke-linecap="round" stroke-linejoin="round" stroke-miterlimit="10" points="
	595.24,548.679 603.701,540.201 612.349,531.56 612.349,523.089 612.349,514.621 612.349,506.15 603.701,506.15 595.24,506.15 
	595.24,497.679 586.76,497.679 586.76,489.029 586.76,480.56 586.76,472.089 578.3,472.089 569.82,472.089 569.82,463.621 
	569.82,455.15 569.82,446.5 569.82,438.029 569.82,429.56 578.3,429.56 578.3,438.029 578.3,446.5 578.3,455.15 578.3,463.621 
	586.76,463.621 586.76,455.15 586.76,446.5 586.76,438.029 586.76,429.56 "/>
<polyline fill="none" stroke="#9B7F1F" stroke-width="3" stroke-linecap="round" stroke-linejoin="round" stroke-miterlimit="10" points="
	663.349,446.5 654.88,446.5 654.88,438.029 654.88,429.56 646.24,429.56 637.759,429.56 646.24,438.029 637.759,438.029 
	629.3,438.029 620.82,438.029 612.349,438.029 603.701,446.5 595.24,446.5 595.24,455.15 603.701,455.15 603.701,463.621 
	595.24,463.621 595.24,472.089 603.701,472.089 603.701,480.56 595.24,480.56 595.24,489.029 603.701,489.029 603.701,497.679 
	612.349,497.679 620.82,497.679 629.3,497.679 637.759,497.679 646.759,497.679 654.88,497.679 "/>
<polyline fill="none" stroke="#9B7F5B" stroke-width="3" stroke-linecap="round" stroke-linejoin="round" stroke-miterlimit="10" points="
	654.88,455.15 646.24,446.5 637.759,446.5 629.3,446.5 620.82,446.5 612.349,446.5 612.349,455.15 620.82,455.15 629.3,455.15 
	637.759,455.15 646.24,455.15 646.24,463.621 637.759,463.621 629.3,463.621 620.82,463.621 612.349,463.621 612.349,472.089 
	620.82,472.089 629.3,472.089 637.759,472.089 646.24,472.089 646.24,480.56 637.759,480.56 629.3,480.56 620.82,480.56 
	612.349,480.56 612.349,489.029 620.82,489.029 629.3,489.029 637.759,489.029 "/>
<polyline fill="none" stroke="#737F3D" stroke-width="3" stroke-linecap="round" stroke-linejoin="round" stroke-miterlimit="10" points="
	773.82,480.56 765.349,480.56 756.88,480.56 765.349,472.089 773.82,472.089 773.82,463.621 765.349,463.621 765.349,455.15 
	773.82,455.15 782.3,455.15 782.3,463.621 790.939,455.15 799.41,446.5 807.88,446.5 799.41,455.15 807.88,455.15 816.349,455.15 
	816.349,463.621 807.88,463.621 799.41,463.621 790.939,463.621 782.3,472.089 790.939,472.089 799.41,472.089 807.88,480.56 
	807.88,472.089 816.349,472.089 824.82,463.621 824.82,472.089 833.47,472.089 "/>
<polyline fill="none" stroke="#731F7F" stroke-width="3" stroke-linecap="round" stroke-linejoin="round" stroke-miterlimit="10" points="
	799.41,480.56 807.88,489.029 816.349,489.029 816.349,480.56 824.82,480.56 824.82,489.029 833.47,489.029 833.47,480.56 
	841.939,480.56 841.939,489.029 850.41,489.029 850.41,497.679 858.88,497.679 858.88,506.15 867.349,506.15 867.349,514.621 
	875.82,514.621 875.82,523.089 884.47,523.089 884.47,531.56 892.939,531.56 892.939,540.201 901.41,540.201 901.41,548.679 
	909.88,548.679 909.88,557.15 918.349,557.15 918.349,565.621 927,565.621 927,574.089 "/>
<polyline fill="none" stroke="#737F1F" stroke-width="3" stroke-linecap="round" stroke-linejoin="round" stroke-miterlimit="10" points="
	782.3,489.029 773.82,497.679 765.349,497.679 756.88,497.679 748.41,497.679 739.759,497.679 731.3,497.679 722.82,506.15 
	714.349,506.15 705.88,506.15 697.41,506.15 697.41,497.679 705.88,497.679 714.349,497.679 722.82,497.679 722.82,489.029 
	714.349,489.029 705.88,489.029 697.41,489.029 697.41,480.56 705.88,480.56 714.349,480.56 722.82,480.56 731.3,480.56 
	731.3,489.029 739.759,489.029 739.759,480.56 739.759,472.089 739.759,463.621 748.41,463.621 "/>
<polyline fill="none" stroke="#9B5B7F" stroke-width="3" stroke-linecap="round" stroke-linejoin="round" stroke-miterlimit="10" points="
	680.3,455.15 680.3,446.5 688.759,455.15 688.759,463.621 688.759,472.089 697.41,472.089 697.41,463.621 697.41,455.15 
	705.88,455.15 705.88,463.621 705.88,472.089 714.349,472.089 714.349,463.621 714.349,455.15 722.82,455.15 722.82,463.621 
	722.82,472.089 731.3,472.089 731.3,463.621 731.3,455.15 739.759,455.15 739.759,446.5 739.759,438.029 739.759,429.56 
	739.759,421.09 748.41,421.09 756.88,421.09 765.349,420.91 773.82,421.09 782.3,421.09 "/>
<polyline fill="none" stroke="#73017F" stroke-width="3" stroke-linecap="round" stroke-linejoin="round" stroke-miterlimit="10" points="
	790.939,480.56 799.41,489.029 799.41,497.679 799.41,506.15 799.41,514.621 807.88,514.621 816.349,514.621 824.82,514.621 
	833.47,514.621 841.939,514.621 850.41,523.089 858.88,531.56 867.349,540.201 875.82,548.679 884.47,548.679 875.82,540.201 
	867.349,531.56 858.88,523.089 850.41,514.621 841.939,506.15 833.47,506.15 824.82,506.15 816.349,506.15 807.88,506.15 
	807.88,497.679 816.349,497.679 824.82,497.679 833.47,497.679 841.939,497.679 850.41,506.15 "/>
<polyline fill="none" stroke="#9B3D7F" stroke-width="3" stroke-linecap="round" stroke-linejoin="round" stroke-miterlimit="10" points="
	671.82,455.15 680.3,463.621 680.3,472.089 680.3,480.56 688.759,480.56 688.759,489.029 688.759,497.679 688.759,506.15 
	688.759,514.621 688.759,523.089 697.41,531.56 705.88,531.56 714.349,531.56 722.82,531.56 731.3,531.56 739.759,531.56 
	748.41,531.56 756.88,531.56 765.349,531.56 773.82,531.56 782.3,531.56 790.939,531.56 799.41,531.56 807.88,531.56 815.47,531.56 
	824.82,531.56 833.47,531.56 841.939,531.56 850.41,540.201 858.88,548.679 "/>
<polyline fill="none" stroke="#9B7F3D" stroke-width="3" stroke-linecap="round" stroke-linejoin="round" stroke-miterlimit="10" points="
	663.349,455.15 654.88,463.621 654.88,472.089 654.88,480.56 646.24,489.029 654.88,489.029 663.349,497.679 663.349,506.15 
	654.88,506.15 654.88,514.621 663.349,514.621 654.88,523.089 663.349,523.089 663.349,531.56 663.349,540.201 663.349,548.679 
	663.349,557.15 663.349,565.621 671.82,565.621 680.3,565.621 680.3,557.15 671.82,557.15 671.82,548.679 680.3,548.679 
	688.759,548.679 688.759,557.15 697.41,557.15 705.88,557.15 714.349,557.15 722.82,557.15 "/>
<polyline fill="none" stroke="#9B7F79" stroke-width="3" stroke-linecap="round" stroke-linejoin="round" stroke-miterlimit="10" points="
	663.349,463.621 663.349,472.089 663.349,480.56 663.349,489.029 671.82,497.679 671.82,506.15 671.82,514.621 671.82,523.089 
	671.82,531.56 671.82,540.201 680.3,540.201 688.759,540.201 697.41,548.679 705.88,548.679 714.349,548.679 722.82,548.679 
	731.3,548.679 739.759,548.679 748.41,548.679 756.88,548.679 765.349,548.679 773.82,548.679 782.3,548.679 790.939,548.679 
	799.41,548.679 807.88,548.679 816.349,548.679 824.82,548.679 833.47,548.679 841.939,548.679 "/>
<polyline fill="none" stroke="#9B797F" stroke-width="3" stroke-linecap="round" stroke-linejoin="round" stroke-miterlimit="10" points="
	671.82,463.621 671.82,472.089 671.82,480.56 671.82,489.029 680.3,489.029 680.3,497.679 680.3,506.15 680.3,514.621 
	680.3,523.089 680.3,531.56 688.759,531.56 697.41,540.201 705.88,540.201 714.349,540.201 722.82,540.201 731.3,540.201 
	739.759,540.201 748.41,540.201 756.88,540.201 765.349,540.201 773.82,540.201 782.3,540.201 790.939,540.201 799.41,540.201 
	807.88,540.201 816.349,540.201 824.82,540.201 833.47,540.201 841.939,540.201 850.41,548.679 "/>
<polyline fill="none" stroke="#737F79" stroke-width="3" stroke-linecap="round" stroke-linejoin="round" stroke-miterlimit="10" points="
	790.939,489.029 790.939,497.679 790.939,506.15 790.939,514.621 790.939,523.089 799.41,523.089 807.88,523.089 816.349,523.089 
	824.82,523.089 833.47,523.089 841.939,523.089 850.41,531.56 858.88,540.201 867.349,548.679 867.349,557.15 875.82,557.15 
	884.47,557.15 892.939,557.15 892.939,565.621 901.41,574.089 909.88,574.089 918.349,574.089 909.88,565.621 901.41,565.621 
	901.41,557.15 892.939,548.679 884.47,540.201 875.82,531.56 867.349,523.089 858.88,514.621 "/>
<polyline fill="none" stroke="#5F7F01" stroke-width="3" stroke-linecap="round" stroke-linejoin="round" stroke-miterlimit="10" points="
	892.939,387.03 901.41,387.03 909.88,387.03 909.88,378.56 901.41,378.56 892.939,378.56 892.939,370.09 901.41,370.09 
	909.88,370.09 909.88,361.62 918.349,361.62 927,361.62 935.47,361.62 927,352.97 918.349,352.97 909.88,352.97 909.88,344.5 
	918.349,344.5 927,344.5 918.349,336.03 909.88,336.03 909.88,327.56 918.349,327.56 909.88,319.09 901.41,310.44 901.41,319.09 
	901.41,327.56 901.41,336.03 901.41,344.5 901.41,352.97 "/>
<polyline fill="none" stroke="#5F7F3D" stroke-width="3" stroke-linecap="round" stroke-linejoin="round" stroke-miterlimit="10" points="
	884.47,378.56 884.47,370.09 884.47,361.62 892.939,361.62 901.41,361.62 892.939,352.97 884.47,352.97 884.47,344.5 892.939,344.5 
	892.939,336.03 884.47,336.03 884.47,327.56 892.939,327.56 892.939,319.09 884.47,319.09 884.47,310.44 892.939,310.44 
	892.939,301.97 884.47,301.97 884.47,293.5 875.82,293.5 875.82,301.97 875.82,310.44 875.82,319.09 875.82,327.56 875.82,336.03 
	875.82,344.5 875.82,352.97 875.82,361.62 875.82,370.09 "/>
<polyline fill="none" stroke="#5F7F1F" stroke-width="3" stroke-linecap="round" stroke-linejoin="round" stroke-miterlimit="10" points="
	884.47,387.03 875.82,378.56 867.349,370.09 867.349,361.62 867.349,352.97 867.349,344.5 867.349,336.03 867.349,327.56 
	867.349,319.09 867.349,310.44 867.349,301.97 867.349,293.5 875.82,285.03 867.349,285.03 867.349,276.56 858.88,276.56 
	858.88,268.09 850.41,268.09 850.41,276.56 850.41,285.03 858.88,285.03 858.88,293.5 858.88,301.97 858.88,310.44 858.88,319.09 
	858.88,327.56 858.88,336.03 858.88,344.5 858.88,352.97 858.88,361.62 "/>
<polyline fill="none" stroke="#5F7F79" stroke-width="3" stroke-linecap="round" stroke-linejoin="round" stroke-miterlimit="10" points="
	867.349,387.03 858.88,378.56 850.41,370.09 841.939,361.62 833.47,361.62 824.82,361.62 824.82,352.97 824.82,344.5 
	816.349,352.97 816.349,361.62 807.88,361.62 807.88,370.09 816.349,370.09 824.82,370.09 833.47,370.09 833.47,378.56 
	824.82,378.56 833.47,387.03 841.939,378.56 841.939,370.09 850.41,378.56 841.939,387.03 841.939,395.5 850.41,387.03 
	858.88,387.03 850.41,395.5 858.88,395.5 850.41,404.15 858.88,404.15 858.88,412.62 "/>
<polyline fill="none" stroke="#5F1F7F" stroke-width="3" stroke-linecap="round" stroke-linejoin="round" stroke-miterlimit="10" points="
	884.47,395.5 892.939,404.15 901.41,404.15 909.88,404.15 909.88,412.62 918.349,412.62 918.349,421.09 927,421.09 927,429.56 
	935.47,429.56 935.47,438.029 943.939,438.029 943.939,446.5 952.41,446.5 952.41,438.029 952.41,429.56 952.41,421.09 
	952.41,412.62 960.88,412.62 960.88,421.09 960.88,429.56 960.88,438.029 960.88,446.5 952.41,455.15 960.88,455.15 969.529,455.15 
	978,455.15 969.529,446.5 969.529,438.029 969.529,429.56 "/>
<polyline fill="none" stroke="#5F797F" stroke-width="3" stroke-linecap="round" stroke-linejoin="round" stroke-miterlimit="10" points="
	986.47,523.089 978,523.089 969.529,523.089 969.529,514.621 960.88,514.621 960.88,506.15 952.41,506.15 952.41,497.679 
	943.939,497.679 943.939,489.029 935.47,489.029 935.47,480.56 927,480.56 927,472.089 918.349,472.089 918.349,463.621 
	909.88,463.621 909.88,455.15 901.41,455.15 901.41,446.5 892.939,446.5 892.939,438.029 884.47,438.029 884.47,429.56 
	875.82,429.56 875.82,421.09 867.349,421.09 867.349,412.62 867.349,404.15 867.349,395.5 "/>
<polyline fill="none" stroke="#5F5B7F" stroke-width="3" stroke-linecap="round" stroke-linejoin="round" stroke-miterlimit="10" points="
	875.82,395.5 875.82,404.15 875.82,412.62 884.47,412.62 884.47,421.09 892.939,421.09 892.939,429.56 901.41,429.56 
	901.41,438.029 909.88,438.029 909.88,446.5 918.349,446.5 918.349,455.15 927,455.15 927,463.621 935.47,463.621 935.47,472.089 
	943.939,472.089 943.939,480.56 952.41,480.56 952.41,489.029 960.88,489.029 960.88,497.679 969.529,497.679 969.529,506.15 
	978,506.15 978,514.621 986.47,514.621 986.47,506.15 986.47,497.679 "/>
<polyline fill="none" stroke="#5F017F" stroke-width="3" stroke-linecap="round" stroke-linejoin="round" stroke-miterlimit="10" points="
	892.939,395.5 901.41,395.5 909.88,395.5 918.349,404.15 927,412.62 935.47,421.09 943.939,429.56 943.939,421.09 943.939,412.62 
	935.47,412.62 927,404.15 935.47,404.15 943.939,404.15 952.41,404.15 952.41,395.5 943.939,395.5 935.47,395.5 927,395.5 
	918.349,395.5 918.349,387.03 927,387.03 935.47,387.03 943.939,387.03 943.939,378.56 935.47,378.56 927,378.56 918.349,378.56 
	918.349,370.09 927,370.09 935.47,370.09 "/>
<polyline fill="none" stroke="#5F7F5B" stroke-width="3" stroke-linecap="round" stroke-linejoin="round" stroke-miterlimit="10" points="
	875.82,387.03 867.349,378.56 858.88,370.09 850.41,361.62 850.41,352.97 850.41,344.5 850.41,336.03 850.41,327.56 850.41,319.09 
	850.41,310.44 850.41,301.97 850.41,293.5 841.939,293.5 841.939,301.97 841.939,310.44 841.939,319.09 841.939,327.56 
	841.939,336.03 841.939,344.5 841.939,352.97 833.47,352.97 833.47,344.5 833.47,336.03 833.47,327.56 833.47,319.09 833.47,310.44 
	833.47,301.97 833.47,293.5 833.47,285.03 841.939,285.03 "/>
<polyline fill="none" stroke="#AF5B7F" stroke-width="3" stroke-linecap="round" stroke-linejoin="round" stroke-miterlimit="10" points="
	603.701,548.679 612.349,548.679 620.82,548.679 629.3,548.679 637.759,548.679 646.24,548.679 654.88,548.679 654.88,540.201 
	646.24,540.201 637.759,540.201 629.3,540.201 620.82,540.201 612.349,540.201 620.82,531.56 629.3,531.56 637.759,531.56 
	646.24,531.56 654.88,531.56 646.24,523.089 637.759,523.089 629.3,523.089 620.82,523.089 620.82,514.621 629.3,514.621 
	637.759,514.621 646.24,514.621 646.24,506.15 637.759,506.15 629.3,506.15 620.82,506.15 "/>
<polyline fill="none" stroke="#9B1F7F" stroke-width="3" stroke-linecap="round" stroke-linejoin="round" stroke-miterlimit="10" points="
	671.82,446.5 680.3,438.029 680.3,429.56 688.759,429.56 697.41,429.56 705.88,429.56 714.349,429.56 722.82,429.56 722.82,438.029 
	714.349,438.029 705.88,438.029 697.41,438.029 688.759,438.029 688.759,446.5 697.41,446.5 705.88,446.5 714.349,446.5 
	722.82,446.5 731.3,446.5 731.3,438.029 731.3,429.56 731.3,421.09 731.3,412.62 731.3,404.15 739.759,404.15 748.41,404.15 
	739.759,412.62 748.41,412.62 756.88,412.62 765.349,412.62 "/>
<polyline fill="none" stroke="#737F01" stroke-width="3" stroke-linecap="round" stroke-linejoin="round" stroke-miterlimit="10" points="
	799.41,438.029 790.939,446.5 782.3,446.5 773.82,446.5 765.349,446.5 765.349,438.029 773.82,438.029 782.3,438.029 
	790.939,438.029 790.939,429.56 782.3,429.56 773.82,429.56 765.349,429.56 756.88,429.56 748.41,429.56 748.41,438.029 
	756.88,438.029 756.88,446.5 748.41,446.5 748.41,455.15 756.88,455.15 756.88,463.621 756.88,472.089 748.41,472.089 
	748.41,480.56 748.41,489.029 756.88,489.029 765.349,489.029 773.82,489.029 782.3,480.56 "/>
<polyline fill="none" stroke="#9B017F" stroke-width="3" stroke-linecap="round" stroke-linejoin="round" stroke-miterlimit="10" points="
	671.82,438.029 671.82,429.56 671.82,421.09 671.82,412.62 671.82,404.15 671.82,395.5 680.3,395.5 688.759,395.5 697.41,395.5 
	705.88,395.5 714.349,395.5 722.82,395.5 722.82,404.15 714.349,404.15 705.88,404.15 697.759,404.15 688.759,404.15 680.3,404.15 
	680.3,412.62 688.759,412.62 697.41,412.62 705.88,412.62 714.349,412.62 722.82,412.62 722.82,421.09 714.349,421.09 
	705.88,421.09 697.41,421.09 688.759,421.09 680.3,421.09 "/>
<polyline fill="none" stroke="#9B7F01" stroke-width="3" stroke-linecap="round" stroke-linejoin="round" stroke-miterlimit="10" points="
	663.349,438.029 663.349,429.56 663.349,421.09 663.349,412.62 663.349,404.15 654.88,404.15 646.24,404.15 637.759,404.15 
	637.759,412.62 646.24,412.62 654.88,412.62 654.88,421.09 646.24,421.09 637.759,421.09 629.3,412.62 620.82,412.62 
	612.349,412.62 612.349,421.09 620.82,421.09 629.3,421.09 629.3,429.56 620.82,429.56 612.349,429.56 603.701,429.56 
	603.701,438.029 595.24,438.029 595.24,429.56 603.701,421.09 595.24,421.09 586.76,421.09 "/>
<polyline fill="none" stroke="#C33D7F" stroke-width="3" stroke-linecap="round" stroke-linejoin="round" stroke-miterlimit="10" points="
	459.18,446.5 459.18,438.029 467.65,438.029 467.65,429.56 476.3,429.56 476.3,421.09 484.76,421.09 484.76,412.62 493.24,412.62 
	493.24,404.15 501.7,404.15 501.7,395.5 510.18,395.5 510.18,387.03 518.82,387.03 518.82,378.56 527.3,378.56 527.3,370.09 
	535.76,370.09 535.76,361.62 544.24,361.62 544.24,352.97 552.7,352.97 552.7,344.5 561.18,344.5 569.82,344.5 578.3,344.5 
	578.3,336.03 569.82,336.03 561.18,327.56 "/>
<polyline fill="none" stroke="#877F79" stroke-width="3" stroke-linecap="round" stroke-linejoin="round" stroke-miterlimit="10" points="
	722.82,276.56 714.349,276.56 705.88,276.56 697.41,276.56 688.759,276.56 680.3,276.56 671.82,276.56 663.349,276.56 
	654.88,276.56 646.24,276.56 637.759,276.56 637.759,285.03 637.759,292.44 637.759,301.97 646.24,301.97 646.24,310.44 
	646.24,319.09 646.24,327.56 637.759,327.56 637.759,319.09 637.759,310.44 629.3,310.44 629.3,319.09 629.3,327.56 620.82,327.56 
	620.82,336.03 612.349,336.03 612.349,327.56 612.349,319.09 620.82,319.09 "/>
<polyline fill="none" stroke="#C37F3D" stroke-width="3" stroke-linecap="round" stroke-linejoin="round" stroke-miterlimit="10" points="
	561.18,310.44 569.82,310.44 578.3,319.09 578.3,310.44 578.3,301.97 586.76,301.97 595.24,301.97 603.701,301.97 603.701,293.5 
	603.701,285.03 612.349,276.56 620.82,276.56 629.3,276.56 629.3,285.03 620.82,285.03 612.349,285.03 612.349,293.5 620.82,293.5 
	629.3,293.5 629.3,301.97 620.82,301.97 620.82,310.44 612.349,310.44 612.349,301.97 603.701,310.44 603.701,319.09 
	603.701,327.56 603.701,336.03 595.24,336.03 586.76,336.03 "/>
<polyline fill="none" stroke="#C37F01" stroke-width="3" stroke-linecap="round" stroke-linejoin="round" stroke-miterlimit="10" points="
	544.24,319.09 535.76,319.09 527.3,327.56 518.82,336.03 510.18,344.5 501.7,352.97 493.24,352.97 493.24,344.5 501.7,344.5 
	501.7,336.03 510.18,336.03 510.18,327.56 518.82,327.56 518.82,319.09 518.82,310.44 527.3,319.09 527.3,310.44 527.3,301.97 
	535.76,301.97 535.76,310.44 544.24,310.44 544.24,301.97 535.76,293.5 544.24,293.5 544.24,285.03 552.7,285.03 552.7,293.5 
	561.18,293.5 561.18,285.03 561.18,276.56 "/>
<polyline fill="none" stroke="#C37F5B" stroke-width="3" stroke-linecap="round" stroke-linejoin="round" stroke-miterlimit="10" points="
	561.18,319.09 569.82,319.09 569.82,327.56 578.3,327.56 586.76,327.56 595.24,327.56 595.24,319.09 595.24,310.44 586.76,310.44 
	586.76,319.09 "/>
<polyline fill="none" stroke="#C31F7F" stroke-width="3" stroke-linecap="round" stroke-linejoin="round" stroke-miterlimit="10" points="
	450.7,446.5 450.7,438.029 442.24,438.029 442.24,429.56 450.7,429.56 459.18,429.56 459.18,421.09 467.65,421.09 467.65,412.62 
	476.3,412.62 476.3,404.15 484.76,404.15 484.76,395.5 493.24,395.5 493.24,387.03 501.7,387.03 501.7,378.56 510.18,378.56 
	510.18,370.09 518.82,370.09 518.82,361.62 527.3,361.62 527.3,352.97 535.76,352.97 535.76,344.5 544.24,344.5 544.24,336.03 
	552.7,336.03 561.18,336.03 552.7,327.56 "/>
<polyline fill="none" stroke="#C3017F" stroke-width="3" stroke-linecap="round" stroke-linejoin="round" stroke-miterlimit="10" points="
	450.7,421.09 450.7,412.62 459.18,412.62 459.18,404.15 459.18,395.5 467.65,404.15 467.65,395.5 467.65,387.03 476.3,395.5 
	476.3,387.03 484.76,387.03 476.3,378.56 476.3,370.09 484.76,378.56 493.24,378.56 484.76,370.09 484.76,361.62 493.24,361.62 
	493.24,370.09 501.7,370.09 501.7,361.62 510.18,361.62 510.18,352.97 518.82,352.97 518.82,344.5 527.3,344.5 527.3,336.03 
	535.76,336.03 535.76,327.56 544.24,327.56 "/>
<polyline fill="none" stroke="#C37F1F" stroke-width="3" stroke-linecap="round" stroke-linejoin="round" stroke-miterlimit="10" points="
	552.7,319.09 552.7,310.44 552.7,301.97 561.18,301.97 569.82,301.97 569.82,293.5 569.82,285.03 569.82,276.56 578.3,276.56 
	578.3,268.09 586.76,268.09 595.24,268.09 595.24,259.44 603.701,259.44 612.349,259.44 620.82,259.44 629.3,259.44 629.3,268.09 
	620.82,268.09 612.349,268.09 603.701,268.09 603.701,276.56 595.24,276.56 586.76,276.56 586.76,285.03 578.3,285.03 578.3,293.5 
	586.76,293.5 595.24,293.5 595.24,285.03 "/>
<polyline fill="none" stroke="#873D7F" stroke-width="3" stroke-linecap="round" stroke-linejoin="round" stroke-miterlimit="10" points="
	739.759,293.5 748.41,301.97 756.88,301.97 765.701,301.97 773.82,301.97 782.3,301.97 790.939,301.97 790.939,310.44 
	790.939,319.09 782.3,319.09 782.3,310.44 773.82,310.44 773.82,319.09 765.349,319.09 765.349,310.44 756.88,310.44 756.88,319.09 
	756.88,327.56 756.88,336.03 748.41,336.03 739.759,336.03 739.759,327.56 748.41,327.56 748.41,319.09 748.41,310.44 
	739.759,301.97 739.759,310.44 739.759,319.09 731.3,319.09 731.3,327.56 "/>
<polyline fill="none" stroke="#875B7F" stroke-width="3" stroke-linecap="round" stroke-linejoin="round" stroke-miterlimit="10" points="
	731.3,285.03 731.3,293.5 731.3,301.97 731.3,310.44 722.82,310.44 722.82,319.09 722.82,327.56 714.349,327.56 705.88,327.56 
	697.41,327.56 688.759,327.56 680.3,327.56 671.82,327.56 663.349,327.56 654.88,327.56 654.88,319.09 663.349,319.09 
	671.82,319.09 680.3,319.09 688.759,319.09 697.41,319.09 705.88,319.09 714.349,319.09 714.349,310.44 705.88,310.44 
	697.41,310.44 697.41,301.97 705.88,301.97 714.349,301.97 722.82,301.97 "/>
<polyline fill="none" stroke="#87797F" stroke-width="3" stroke-linecap="round" stroke-linejoin="round" stroke-miterlimit="10" points="
	722.82,285.03 722.82,293.5 714.349,293.5 705.88,293.5 697.41,293.5 688.759,293.5 688.759,301.97 688.759,310.44 680.3,310.44 
	671.82,310.44 663.349,310.44 654.88,310.44 654.88,301.97 663.349,301.97 671.82,301.97 680.3,301.97 680.3,293.5 671.82,293.5 
	663.349,293.5 654.88,293.5 646.24,293.5 646.24,285.03 654.88,285.03 663.349,285.03 671.82,285.03 680.3,285.03 688.759,285.03 
	697.41,285.03 705.88,285.03 714.349,285.03 "/>
<polyline fill="none" stroke="#EB797F" stroke-width="3" stroke-linecap="round" stroke-linejoin="round" stroke-miterlimit="10" points="
	399.7,268.09 399.7,276.56 399.7,285.03 408.18,285.03 416.65,285.03 425.12,285.03 433.76,293.5 442.24,293.5 450.7,293.5 
	450.7,301.97 450.7,310.44 442.24,301.97 442.24,310.44 442.24,319.09 433.76,327.56 433.76,319.09 433.76,310.44 433.76,301.97 
	425.12,293.5 425.12,301.97 425.12,310.44 425.12,319.09 425.12,327.56 425.12,336.03 416.65,344.5 416.65,336.03 416.65,327.56 
	416.65,319.09 416.65,310.44 416.65,301.97 "/>
<polyline fill="none" stroke="#EB5B7F" stroke-width="3" stroke-linecap="round" stroke-linejoin="round" stroke-miterlimit="10" points="
	484.76,268.09 484.76,259.44 484.76,250.97 476.3,250.97 476.3,259.44 476.3,268.09 476.3,276.56 467.65,285.03 467.65,276.56 
	467.65,268.09 467.65,259.44 459.18,259.44 459.18,268.09 459.18,276.56 459.18,285.03 459.18,293.5 450.7,285.03 450.7,276.56 
	450.7,268.09 450.7,259.44 442.24,259.44 442.24,268.09 442.24,276.56 442.24,285.03 433.76,285.03 425.12,276.56 416.65,276.56 
	408.18,276.56 408.18,268.09 399.7,259.44 "/>
<polyline fill="none" stroke="#EB1F7F" stroke-width="3" stroke-linecap="round" stroke-linejoin="round" stroke-miterlimit="10" points="
	561.18,225.56 552.7,225.56 544.24,234.03 535.76,234.03 527.3,234.03 518.82,234.03 518.82,242.5 510.18,242.5 510.18,234.03 
	501.7,242.5 501.7,250.97 493.24,259.44 493.24,250.97 493.24,242.5 484.76,242.5 476.3,242.5 467.65,242.5 467.65,250.97 
	459.18,250.97 450.7,250.97 442.24,250.97 433.76,250.97 433.76,259.44 433.76,268.09 433.76,276.56 425.12,268.09 416.65,268.09 
	416.65,259.44 408.18,259.44 399.7,250.97 "/>
<polyline fill="none" stroke="#EB017F" stroke-width="3" stroke-linecap="round" stroke-linejoin="round" stroke-miterlimit="10" points="
	603.701,199.97 595.24,199.97 586.76,199.97 578.3,199.97 578.3,208.44 569.82,208.44 561.18,208.44 552.7,208.44 544.24,208.44 
	535.76,208.44 535.76,216.91 527.3,216.91 518.82,216.91 510.18,216.91 501.7,216.91 493.24,216.91 493.24,225.56 484.76,225.56 
	476.3,225.56 467.65,225.56 459.18,225.56 450.7,225.56 450.7,234.03 442.24,234.03 433.76,234.03 425.12,234.03 416.65,234.03 
	416.65,242.5 408.18,242.5 399.7,242.5 "/>
<polyline fill="none" stroke="#EB7F01" stroke-width="3" stroke-linecap="round" stroke-linejoin="round" stroke-miterlimit="10" points="
	391.24,242.5 382.76,242.5 374.12,250.97 365.65,250.97 365.65,259.44 357.18,259.44 348.7,259.44 340.24,268.09 340.24,276.56 
	340.24,285.03 340.24,293.5 340.24,301.97 340.24,310.44 340.24,319.09 340.24,327.56 340.24,336.03 340.24,344.5 348.7,344.5 
	357.18,344.5 357.18,352.97 357.18,361.62 357.18,370.09 357.18,378.56 357.18,387.03 357.18,395.5 357.18,404.15 357.18,412.62 
	357.18,421.09 348.7,429.56 348.7,438.029 "/>
<polyline fill="none" stroke="#EB3D7F" stroke-width="3" stroke-linecap="round" stroke-linejoin="round" stroke-miterlimit="10" points="
	408.18,250.97 416.65,250.97 425.12,259.44 425.12,250.97 425.12,242.5 433.76,242.5 442.24,242.5 450.7,242.5 459.18,242.5 
	459.18,234.03 467.65,234.03 476.3,234.03 484.76,234.03 493.24,234.03 501.7,234.03 501.7,225.56 510.18,225.56 518.82,225.56 
	527.3,225.56 535.76,225.56 544.24,225.56 544.24,216.91 552.7,216.91 561.18,216.91 569.82,216.91 578.3,216.91 586.76,216.91 
	586.76,208.44 595.24,208.44 603.701,208.44 "/>
<polyline fill="none" stroke="#EB7F1F" stroke-width="3" stroke-linecap="round" stroke-linejoin="round" stroke-miterlimit="10" points="
	391.24,250.97 382.76,250.97 374.12,259.44 365.65,268.09 365.65,276.56 365.65,285.03 365.65,293.5 365.65,301.97 365.65,310.44 
	365.65,319.09 365.65,327.56 365.65,336.03 357.18,336.03 357.18,327.56 357.18,319.09 357.18,310.44 357.18,301.97 357.18,293.5 
	357.18,285.03 357.18,276.56 357.18,268.09 348.7,268.09 348.7,276.56 348.7,285.03 348.7,293.5 348.7,301.97 348.7,310.44 
	348.7,319.09 348.7,327.56 348.7,336.03 "/>
<polyline fill="none" stroke="#EB7F3D" stroke-width="3" stroke-linecap="round" stroke-linejoin="round" stroke-miterlimit="10" points="
	382.76,259.44 374.12,268.09 374.12,276.56 374.12,285.03 374.12,293.5 374.12,301.97 374.12,310.44 374.12,319.09 374.12,327.56 
	374.12,336.03 374.12,344.5 365.65,344.5 365.65,352.97 365.65,361.62 365.65,370.09 365.65,378.56 365.65,387.03 365.65,395.5 
	365.65,404.15 374.12,412.62 365.65,412.62 365.65,421.09 365.65,429.56 357.18,429.56 357.18,438.029 357.18,446.5 348.7,446.5 
	348.7,455.15 340.24,455.15 331.59,455.15 "/>
<polyline fill="none" stroke="#EB7F5B" stroke-width="3" stroke-linecap="round" stroke-linejoin="round" stroke-miterlimit="10" points="
	391.24,259.44 382.76,268.09 382.76,276.56 382.76,285.03 382.76,293.5 382.76,301.97 382.76,310.44 382.76,319.09 382.76,327.56 
	382.76,336.03 382.76,344.5 391.24,344.5 391.24,352.97 391.24,361.62 391.24,370.09 391.24,378.56 391.24,387.03 382.76,395.5 
	382.76,387.03 382.76,378.56 382.76,370.09 382.76,361.62 382.76,352.97 374.12,352.97 374.12,361.62 374.12,370.09 374.12,378.56 
	374.12,387.03 374.12,395.5 374.12,404.15 "/>
<polyline fill="none" stroke="#EB7F79" stroke-width="3" stroke-linecap="round" stroke-linejoin="round" stroke-miterlimit="10" points="
	391.24,268.09 391.24,276.56 391.24,285.03 399.7,293.5 408.18,293.5 416.65,293.5 408.53,301.26 408.18,310.44 408.18,319.09 
	408.18,327.56 408.18,336.03 408.18,344.5 408.18,352.97 416.65,352.97 408.18,361.62 399.7,370.09 399.7,361.62 399.7,352.97 
	399.7,344.5 399.7,336.03 399.7,327.56 399.7,319.09 399.7,310.44 399.7,301.97 391.24,293.5 391.24,301.97 391.24,310.44 
	391.24,319.09 391.24,327.56 391.24,336.03 "/>
<polyline fill="none" stroke="#FF017F" stroke-width="3" stroke-linecap="round" stroke-linejoin="round" stroke-miterlimit="10" points="
	289.06,336.03 297.7,327.56 306.18,327.56 314.65,327.56 323.12,327.56 331.59,327.56 331.59,319.09 323.12,319.09 314.65,319.09 
	306.18,319.09 297.7,319.09 297.7,310.44 306.18,310.44 314.65,310.44 323.12,310.44 331.59,310.44 331.59,301.97 323.12,301.97 
	314.65,301.97 306.18,301.97 306.18,293.5 314.65,293.5 323.12,293.5 331.59,293.5 331.59,285.03 331.59,276.56 323.12,276.56 
	323.12,285.03 314.65,285.03 306.18,285.03 "/>
<polyline fill="none" stroke="#FF7F01" stroke-width="3" stroke-linecap="round" stroke-linejoin="round" stroke-miterlimit="10" points="
	280.59,336.03 272.12,336.03 263.65,336.03 263.65,327.56 272.12,327.56 280.59,327.56 289.06,327.56 289.06,319.09 289.06,310.44 
	297.7,301.97 297.7,293.5 289.06,301.97 280.59,301.97 280.59,310.44 272.12,310.44 280.59,319.09 272.12,319.09 263.65,319.09 
	255.18,327.56 246.53,327.56 255.18,336.03 246.53,336.03 238.06,336.03 229.59,344.5 229.59,352.97 238.06,352.97 238.06,344.5 
	246.53,344.5 255.18,344.5 263.65,344.5 "/>
<polyline fill="none" stroke="#FF797F" stroke-width="3" stroke-linecap="round" stroke-linejoin="round" stroke-miterlimit="10" points="
	289.06,361.62 297.7,361.62 306.18,361.62 306.18,370.09 297.7,370.09 289.06,370.09 280.59,378.56 289.06,378.56 297.7,378.56 
	297.7,387.03 289.06,387.03 280.59,387.03 280.59,395.5 289.06,395.5 297.7,395.5 297.7,404.15 289.06,404.15 280.59,404.15 
	280.59,412.62 289.06,412.62 297.7,412.62 297.7,421.09 289.06,421.09 280.59,421.09 280.59,429.56 289.06,429.56 297.7,429.56 
	297.7,438.029 289.06,438.029 280.59,438.029 "/>
<polyline fill="none" stroke="#FF5B7F" stroke-width="3" stroke-linecap="round" stroke-linejoin="round" stroke-miterlimit="10" points="
	289.06,352.97 297.7,352.97 306.18,352.97 314.65,352.97 314.65,361.62 314.65,370.09 314.65,378.56 306.18,378.56 306.18,387.03 
	314.65,387.03 314.65,395.5 306.18,395.5 306.18,404.15 314.65,404.15 314.65,412.62 306.18,412.62 306.18,421.09 314.65,421.09 
	323.12,429.56 331.59,438.029 323.12,438.029 314.65,429.56 306.18,429.56 306.18,438.029 314.65,438.029 314.65,446.5 
	306.18,446.5 297.7,446.5 289.06,446.5 280.59,446.5 "/>
<polyline fill="none" stroke="#FF3D7F" stroke-width="3" stroke-linecap="round" stroke-linejoin="round" stroke-miterlimit="10" points="
	297.7,344.5 306.18,344.5 314.65,344.5 323.12,344.5 323.12,352.97 323.12,361.62 331.59,361.62 340.24,361.62 340.24,370.09 
	340.24,378.56 340.24,387.03 340.24,395.5 340.24,404.15 340.24,412.62 340.24,421.09 331.59,421.09 331.59,412.62 331.59,404.15 
	331.59,395.5 331.59,387.03 331.59,378.56 331.59,370.09 323.12,370.09 323.12,378.56 323.12,387.03 323.12,395.5 323.12,404.15 
	323.12,412.62 323.12,421.09 331.59,429.56 "/>
<polyline fill="none" stroke="#FF1F7F" stroke-width="3" stroke-linecap="round" stroke-linejoin="round" stroke-miterlimit="10" points="
	289.06,344.5 297.7,336.03 306.18,336.03 314.65,336.03 323.12,336.03 331.59,336.03 331.59,344.5 331.59,352.97 340.24,352.97 
	348.7,352.97 348.7,361.62 348.7,370.09 348.7,378.56 348.7,387.03 348.7,395.5 348.7,404.15 348.7,412.62 348.7,421.09 
	340.24,429.56 340.24,438.029 340.24,446.5 331.59,446.5 323.12,446.5 323.12,455.15 314.65,455.15 306.18,455.15 297.7,455.15 
	289.06,455.15 289.06,463.621 297.7,463.621 "/>
<polyline fill="none" stroke="#FF7F79" stroke-width="3" stroke-linecap="round" stroke-linejoin="round" stroke-miterlimit="10" points="
	280.59,361.62 280.59,370.09 272.12,378.56 272.12,387.03 272.12,395.5 272.12,404.15 272.12,412.62 272.12,421.09 272.12,429.56 
	272.12,438.029 272.12,446.5 272.12,455.15 280.59,455.15 280.59,463.621 272.12,472.089 263.65,472.089 263.65,480.56 
	263.65,489.029 272.12,489.029 280.59,489.029 280.59,497.679 289.06,497.679 289.06,489.029 289.06,480.56 280.59,480.56 
	272.12,480.56 280.59,472.089 289.06,472.089 297.7,472.089 297.7,480.56 "/>
<polyline fill="none" stroke="#FF7F1F" stroke-width="3" stroke-linecap="round" stroke-linejoin="round" stroke-miterlimit="10" points="
	280.59,344.5 272.12,352.97 263.65,361.62 263.65,370.09 255.18,378.56 246.53,378.56 238.06,387.03 229.59,387.03 221.12,395.5 
	221.12,404.15 221.12,412.62 221.12,421.09 229.59,421.09 229.59,412.62 229.59,404.15 229.59,395.5 238.06,395.5 238.06,404.15 
	238.06,412.62 238.06,421.09 246.53,421.09 246.53,412.62 246.53,404.15 246.53,395.5 246.53,387.03 255.18,387.03 255.18,395.5 
	255.18,404.15 255.18,412.62 255.18,421.09 "/>
<polyline fill="none" stroke="#FF7F3D" stroke-width="3" stroke-linecap="round" stroke-linejoin="round" stroke-miterlimit="10" points="
	272.12,344.5 263.65,352.97 255.18,352.97 246.53,352.97 238.06,361.62 229.59,361.62 221.12,361.62 212.65,361.62 212.65,370.09 
	204.18,370.09 204.18,378.56 212.65,378.56 221.12,378.56 221.12,370.09 229.59,370.09 238.06,370.09 246.53,361.62 255.18,361.62 
	255.18,370.09 246.53,370.09 238.06,378.56 229.59,378.56 221.12,387.03 212.65,387.03 204.18,387.03 204.18,395.5 204.18,404.15 
	212.65,412.62 212.65,404.15 212.65,395.5 "/>
<polyline fill="none" stroke="#FF7F5B" stroke-width="3" stroke-linecap="round" stroke-linejoin="round" stroke-miterlimit="10" points="
	280.59,352.97 272.12,361.62 272.12,370.09 263.65,378.56 263.65,387.03 263.65,395.5 263.65,404.15 263.65,412.62 263.65,421.09 
	263.65,429.56 255.18,429.56 246.53,429.56 238.06,429.56 229.59,429.56 229.59,438.029 229.59,446.5 238.06,446.5 238.06,438.029 
	246.53,438.029 255.18,438.029 263.65,438.029 263.65,446.5 255.18,446.5 246.53,446.5 246.53,455.15 255.18,455.15 263.65,455.15 
	255.18,463.621 263.65,463.621 272.12,463.621 "/>
<polyline fill="none" stroke="#87017F" stroke-width="3" stroke-linecap="round" stroke-linejoin="round" stroke-miterlimit="10" points="
	748.41,285.03 756.88,285.03 765.349,285.03 773.82,285.03 782.3,285.03 790.939,285.03 799.41,285.03 807.88,285.03 
	816.349,285.03 824.82,285.03 824.82,293.5 824.82,301.97 824.82,310.44 824.82,319.09 824.82,327.56 824.82,336.03 816.349,344.5 
	807.88,352.97 799.41,352.97 799.41,344.5 807.88,344.5 816.349,336.03 816.349,327.56 816.349,319.09 816.349,310.44 
	816.349,301.97 816.349,293.5 807.88,293.5 807.88,301.97 807.88,310.44 "/>
<polyline fill="none" stroke="#871F7F" stroke-width="3" stroke-linecap="round" stroke-linejoin="round" stroke-miterlimit="10" points="
	739.759,285.03 748.41,293.5 756.88,293.5 765.349,293.5 773.82,293.5 782.3,293.5 790.939,293.5 799.41,293.5 799.41,301.97 
	799.41,310.44 799.41,319.09 807.88,319.09 807.88,327.56 799.41,327.56 807.88,336.03 799.41,336.03 790.939,344.5 790.939,352.97 
	782.3,352.97 782.3,344.5 773.82,344.5 765.349,344.5 765.349,336.03 773.82,336.03 782.3,336.03 790.939,336.03 790.939,327.56 
	782.3,327.56 773.82,327.56 765.349,327.56 "/>
<polyline fill="none" stroke="#877F1F" stroke-width="3" stroke-linecap="round" stroke-linejoin="round" stroke-miterlimit="10" points="
	739.759,276.56 748.41,268.09 756.88,268.09 765.349,268.09 773.82,268.09 782.3,268.09 790.939,268.09 799.41,268.09 
	799.41,259.44 799.41,250.97 790.939,242.5 790.939,250.97 790.939,259.44 782.3,259.44 782.3,250.97 782.3,242.5 773.82,242.5 
	773.82,250.97 773.82,259.44 765.349,259.44 765.349,250.97 765.349,242.5 765.349,234.03 756.88,234.03 756.88,242.5 
	756.88,250.97 756.88,259.44 748.41,259.44 748.41,250.97 748.41,242.5 "/>
<polyline fill="none" stroke="#877F01" stroke-width="3" stroke-linecap="round" stroke-linejoin="round" stroke-miterlimit="10" points="
	748.41,276.56 756.88,276.56 765.349,276.56 773.82,276.56 782.3,276.56 790.939,276.56 799.41,276.56 807.88,276.56 
	816.349,276.56 824.82,276.56 833.47,276.56 841.939,276.56 841.939,268.09 841.939,259.44 833.47,259.44 833.47,268.09 
	824.82,268.09 824.82,259.44 824.82,250.97 816.349,250.97 816.349,259.44 816.349,268.09 807.88,268.09 807.88,259.44 
	807.88,250.97 799.41,242.5 799.41,234.03 790.939,234.03 782.3,234.03 773.82,234.03 "/>
<polyline fill="none" stroke="#877F5B" stroke-width="3" stroke-linecap="round" stroke-linejoin="round" stroke-miterlimit="10" points="
	731.3,276.56 731.3,268.09 722.82,268.09 714.349,268.09 705.88,268.09 697.41,268.09 688.759,268.09 680.3,268.09 680.3,259.44 
	680.3,250.97 671.82,250.97 671.82,242.5 663.349,242.5 654.88,242.5 654.88,250.97 663.349,250.97 663.349,259.44 671.82,259.44 
	671.82,268.09 663.349,268.09 654.88,268.09 654.88,259.44 646.24,250.97 646.24,259.44 646.24,268.09 637.759,268.09 
	637.759,259.44 637.759,250.97 629.3,250.97 620.82,250.97 "/>
<polyline fill="none" stroke="#877F3D" stroke-width="3" stroke-linecap="round" stroke-linejoin="round" stroke-miterlimit="10" points="
	739.759,268.09 739.759,259.44 739.759,250.97 739.759,242.5 748.41,234.03 739.759,234.03 731.3,234.03 722.82,234.03 
	714.349,234.03 705.88,234.03 697.41,234.03 697.41,242.5 705.88,242.5 714.349,242.5 722.82,242.5 731.3,242.5 731.3,250.97 
	731.3,259.44 722.82,259.44 722.82,250.97 714.349,250.97 714.349,259.44 705.88,259.44 705.88,250.97 697.41,250.97 697.41,259.44 
	688.759,259.44 688.759,250.97 688.759,242.5 680.3,242.5 "/>
<polyline fill="none" stroke="#737F5B" stroke-width="3" stroke-linecap="round" stroke-linejoin="round" stroke-miterlimit="10" points="
	782.3,497.679 782.3,506.15 782.3,514.621 782.3,523.089 773.82,523.089 765.349,523.089 756.88,523.089 748.41,523.089 
	739.759,523.089 731.3,523.089 722.82,523.089 714.349,523.089 705.88,523.089 697.41,523.089 697.41,514.621 705.88,514.621 
	714.349,514.621 722.82,514.621 731.3,514.621 739.759,514.621 748.41,514.621 756.88,514.621 765.349,514.621 773.82,514.621 
	773.82,506.15 765.349,506.15 756.88,506.15 748.41,506.15 739.759,506.15 731.3,506.15 "/>
<polyline fill="none" stroke="#5F3D7F" stroke-width="3" stroke-linecap="round" stroke-linejoin="round" stroke-miterlimit="10" points="
	969.529,463.621 978,463.621 960.88,463.621 969.529,472.089 978,472.089 978,480.56 986.47,480.56 986.47,489.029 978,497.679 
	978,489.029 969.529,489.029 969.529,480.56 960.88,480.56 960.88,472.089 952.41,472.089 952.41,463.621 943.939,463.621 
	943.939,455.15 935.47,455.15 935.47,446.5 927,446.5 927,438.029 918.349,438.029 918.349,429.56 909.88,429.56 909.88,421.09 
	901.41,421.09 901.41,412.62 892.939,412.62 884.47,404.15 "/>
</svg>
