<?xml version="1.0" encoding="utf-8"?>
<!-- Generator: Adobe Illustrator 16.0.0, SVG Export Plug-In . SVG Version: 6.00 Build 0)  -->
<!DOCTYPE svg PUBLIC "-//W3C//DTD SVG 1.1//EN" "http://www.w3.org/Graphics/SVG/1.1/DTD/svg11.dtd">
<svg version="1.1" id="レイヤー_1" xmlns="http://www.w3.org/2000/svg" xmlns:xlink="http://www.w3.org/1999/xlink" x="0px"
	 y="0px" width="1190.551px" height="841.891px" viewBox="0 0 1190.551 841.891" enable-background="new 0 0 1190.551 841.891"
	 xml:space="preserve">
<g id="LWPOLYLINE">
	
		<polyline fill="none" stroke="#69017F" stroke-width="3" stroke-linecap="round" stroke-linejoin="round" stroke-miterlimit="10" points="
		505.583,226.853 505.583,218.182 505.583,209.511 514.253,218.182 514.253,209.511 522.925,209.511 522.925,218.182 
		531.596,218.182 531.596,209.511 531.596,200.837 540.268,200.837 540.268,209.511 548.939,209.511 548.939,200.837 
		557.61,200.837 566.282,200.837 574.954,200.837 574.954,192.167 583.624,192.167 592.296,192.167 592.296,183.496 
		583.624,183.496 574.954,183.496 566.282,183.496 566.282,192.167 557.61,192.167 548.939,192.167 540.268,192.167 
		531.596,192.167 522.925,192.167 522.925,200.837 514.253,200.837 505.583,200.837 496.912,200.837 488.241,200.837 
		479.568,200.837 479.568,209.511 470.897,209.511 462.226,209.511 453.554,209.511 444.883,209.511 436.212,209.511 
		436.212,218.182 427.541,218.182 418.869,218.182 410.197,218.182 401.526,218.182 401.526,226.853 392.854,226.853 
		384.184,226.853 	"/>
</g>
<g id="LWPOLYLINE_40_">
	
		<polyline fill="none" stroke="#5F657F" stroke-width="3" stroke-linecap="round" stroke-linejoin="round" stroke-miterlimit="10" points="
		375.512,244.196 375.512,252.867 375.512,261.538 375.512,270.209 384.184,278.881 392.854,278.881 401.526,278.881 
		392.854,287.553 392.854,296.224 392.854,304.895 392.854,313.567 392.854,322.237 392.854,330.91 392.854,339.58 401.526,339.58 
		392.854,348.252 384.184,356.923 384.184,348.252 384.184,339.58 384.184,330.91 384.184,322.237 384.184,313.567 384.184,304.895 
		384.184,296.224 384.184,287.553 375.512,278.881 375.512,287.553 375.512,296.224 375.512,304.895 375.512,313.567 
		375.512,322.237 375.512,330.91 375.512,339.58 375.512,348.252 375.512,356.923 375.512,365.594 375.512,374.266 366.841,382.937 
		366.841,374.266 366.841,365.594 366.841,356.923 366.841,348.252 366.841,339.58 358.169,339.58 358.169,348.252 358.169,356.923 
		358.169,365.594 358.169,374.266 358.169,382.937 358.169,391.608 	"/>
</g>
<g id="LWPOLYLINE_41_">
	
		<polyline fill="none" stroke="#5F017F" stroke-width="3" stroke-linecap="round" stroke-linejoin="round" stroke-miterlimit="10" points="
		358.169,330.91 349.497,330.91 349.497,339.58 349.497,348.252 349.497,356.923 349.497,365.594 349.497,374.266 349.497,382.937 
		349.497,391.608 358.169,400.28 349.497,400.28 349.497,408.951 349.497,417.623 340.827,417.623 340.827,426.294 340.827,434.966 
		332.155,443.637 332.155,434.966 332.155,426.294 332.155,417.623 340.827,408.951 340.827,400.28 340.827,391.608 
		340.827,382.937 340.827,374.266 340.827,365.594 340.827,356.923 340.827,348.252 340.827,339.58 340.827,330.91 332.155,330.91 
		332.155,339.58 323.483,339.58 323.483,330.91 323.483,322.237 323.483,313.567 323.483,304.895 323.483,296.224 323.483,287.553 
		323.483,278.881 323.483,270.209 323.483,261.538 323.483,252.867 332.155,244.196 340.827,244.196 349.497,244.196 
		349.497,235.523 358.169,235.523 366.841,226.853 375.512,226.853 	"/>
</g>
<g id="LWPOLYLINE_42_">
	
		<polyline fill="none" stroke="#5F337F" stroke-width="3" stroke-linecap="round" stroke-linejoin="round" stroke-miterlimit="10" points="
		375.512,235.523 366.841,235.523 358.169,244.196 349.497,252.867 340.827,252.867 332.155,252.867 332.155,261.538 
		332.155,270.209 332.155,278.881 332.155,287.553 332.155,296.224 332.155,304.895 332.155,313.567 332.155,322.237 
		340.827,322.237 340.827,313.567 340.827,304.895 340.827,296.224 340.827,287.553 340.827,278.881 340.827,270.209 
		340.827,261.538 349.497,261.538 349.497,270.209 349.497,278.881 349.497,287.553 349.497,296.224 349.497,304.895 
		349.497,313.567 349.497,322.237 358.169,322.237 358.169,313.567 358.169,304.895 358.169,296.224 358.169,287.553 
		358.169,278.881 358.169,270.209 358.169,261.538 358.169,252.867 366.841,244.196 366.841,252.867 366.841,261.538 
		366.841,270.209 366.841,278.881 366.841,287.553 366.841,296.224 366.841,304.895 366.841,313.567 366.841,322.237 
		366.841,330.91 	"/>
</g>
<g id="LWPOLYLINE_43_">
	
		<polyline fill="none" stroke="#69657F" stroke-width="3" stroke-linecap="round" stroke-linejoin="round" stroke-miterlimit="10" points="
		384.184,244.196 384.184,252.867 384.184,261.538 384.184,270.209 392.854,270.209 401.526,270.209 410.197,270.209 
		410.197,278.881 401.526,287.553 401.526,296.224 401.526,304.895 401.526,313.567 401.526,322.237 401.526,330.91 
		410.197,322.237 410.197,313.567 410.197,304.895 410.197,296.224 410.197,287.553 418.869,287.553 418.869,296.224 
		418.869,304.895 418.869,313.567 427.541,304.895 427.541,296.224 427.541,287.553 436.212,296.224 436.212,287.553 
		436.212,278.881 436.212,270.209 427.541,278.881 418.869,278.881 427.541,270.209 427.541,261.538 427.541,252.867 
		427.541,244.196 427.541,235.523 418.869,235.523 418.869,244.196 418.869,252.867 418.869,261.538 418.869,270.209 
		410.197,261.538 401.526,261.538 392.854,261.538 392.854,252.867 392.854,244.196 401.526,244.196 401.526,252.867 
		410.197,252.867 	"/>
</g>
<g id="LWPOLYLINE_44_">
	
		<polyline fill="none" stroke="#69337F" stroke-width="3" stroke-linecap="round" stroke-linejoin="round" stroke-miterlimit="10" points="
		436.212,261.538 436.212,252.867 436.212,244.196 436.212,235.523 444.883,235.523 444.883,244.196 444.883,252.867 
		444.883,261.538 444.883,270.209 444.883,278.881 453.554,270.209 453.554,261.538 453.554,252.867 453.554,244.196 
		453.554,235.523 453.554,226.853 462.226,226.853 462.226,235.523 462.226,244.196 462.226,252.867 462.226,261.538 
		470.897,252.867 470.897,244.196 470.897,235.523 470.897,226.853 479.568,226.853 479.568,235.523 479.568,244.196 
		488.241,235.523 488.241,226.853 496.912,226.853 496.912,218.182 496.912,209.511 488.241,209.511 488.241,218.182 
		479.568,218.182 470.897,218.182 462.226,218.182 453.554,218.182 444.883,218.182 444.883,226.853 436.212,226.853 
		427.541,226.853 418.869,226.853 410.197,226.853 410.197,235.523 410.197,244.196 401.526,235.523 392.854,235.523 
		384.184,235.523 	"/>
</g>
<g id="LWPOLYLINE_1_">
	
		<polyline fill="none" stroke="#4B017F" stroke-width="3" stroke-linecap="round" stroke-linejoin="round" stroke-miterlimit="10" points="
		262.785,322.237 254.113,322.237 245.442,322.237 245.442,313.567 254.113,313.567 262.785,313.567 271.456,313.567 
		271.456,304.895 271.456,296.224 280.126,287.553 280.126,278.881 271.456,287.553 262.785,287.553 262.785,296.224 
		254.113,296.224 262.785,304.895 254.113,304.895 245.442,304.895 236.77,313.567 228.099,313.567 236.77,322.237 228.099,322.237 
		219.428,322.237 210.755,330.91 210.755,339.58 219.428,339.58 219.428,330.91 228.099,330.91 236.77,330.91 245.442,330.91 
		245.442,339.58 236.77,339.58 228.099,339.58 219.428,348.252 210.755,348.252 202.084,348.252 193.413,348.252 193.413,356.923 
		184.742,356.923 184.742,365.594 193.413,365.594 202.084,365.594 202.084,356.923 210.755,356.923 219.428,356.923 
		228.099,348.252 236.77,348.252 236.77,356.923 228.099,356.923 219.428,365.594 	"/>
</g>
<g id="LWPOLYLINE_35_">
	
		<polyline fill="none" stroke="#4B657F" stroke-width="3" stroke-linecap="round" stroke-linejoin="round" stroke-miterlimit="10" points="
		262.785,339.58 262.785,348.252 262.785,356.923 254.113,365.594 254.113,374.266 245.442,374.266 245.442,382.937 
		254.113,382.937 254.113,391.608 245.442,391.608 245.442,400.28 254.113,400.28 254.113,408.951 245.442,408.951 245.442,417.623 
		254.113,417.623 254.113,426.294 245.442,426.294 236.77,426.294 228.099,426.294 219.428,426.294 228.099,434.966 236.77,434.966 
		245.442,434.966 254.113,434.966 262.785,443.637 254.113,443.637 245.442,443.637 236.77,443.637 228.099,443.637 236.77,452.308 
		245.442,452.308 254.113,452.308 262.785,452.308 262.785,460.978 271.456,460.978 280.126,460.978 280.126,469.651 
		271.456,469.651 271.456,478.322 271.456,486.995 262.785,486.995 262.785,478.322 254.113,478.322 245.442,478.322 
		245.442,469.651 254.113,469.651 262.785,469.651 254.113,460.978 245.442,460.978 	"/>
</g>
<g id="LWPOLYLINE_36_">
	
		<polyline fill="none" stroke="#4B337F" stroke-width="3" stroke-linecap="round" stroke-linejoin="round" stroke-miterlimit="10" points="
		219.428,434.966 210.755,434.966 210.755,426.294 210.755,417.623 219.428,417.623 228.099,417.623 236.77,417.623 236.77,408.951 
		236.77,400.28 236.77,391.608 236.77,382.937 236.77,374.266 228.099,374.266 228.099,382.937 228.099,391.608 228.099,400.28 
		228.099,408.951 219.428,408.951 219.428,400.28 219.428,391.608 219.428,382.937 210.755,391.608 210.755,400.28 210.755,408.951 
		202.084,408.951 202.084,400.28 202.084,391.608 210.755,382.937 210.755,374.266 202.084,382.937 193.413,382.937 
		193.413,391.608 193.413,400.28 184.742,391.608 184.742,382.937 184.742,374.266 193.413,374.266 202.084,374.266 
		210.755,365.594 219.428,374.266 228.099,365.594 236.77,365.594 245.442,365.594 254.113,356.923 245.442,356.923 
		245.442,348.252 254.113,348.252 254.113,339.58 254.113,330.91 262.785,330.91 	"/>
</g>
<g id="LWPOLYLINE_37_">
	
		<polyline fill="none" stroke="#55657F" stroke-width="3" stroke-linecap="round" stroke-linejoin="round" stroke-miterlimit="10" points="
		271.456,339.58 280.126,339.58 288.798,339.58 297.47,339.58 297.47,348.252 288.798,348.252 280.126,348.252 271.456,348.252 
		271.456,356.923 280.126,356.923 288.798,356.923 297.47,356.923 297.47,365.594 288.798,365.594 280.126,365.594 271.456,365.594 
		262.785,365.594 262.785,374.266 271.456,374.266 280.126,374.266 288.798,374.266 297.47,374.266 297.47,382.937 288.798,382.937 
		280.126,382.937 271.456,382.937 262.785,382.937 262.785,391.608 271.456,391.608 280.126,391.608 288.798,391.608 
		297.47,391.608 297.47,400.28 288.798,400.28 280.126,400.28 271.456,400.28 262.785,400.28 262.785,408.951 271.456,408.951 
		280.126,408.951 288.798,408.951 297.47,408.951 306.141,417.623 306.141,426.294 297.47,426.294 297.47,417.623 288.798,417.623 
		280.126,417.623 271.456,417.623 262.785,417.623 	"/>
</g>
<g id="LWPOLYLINE_38_">
	
		<polyline fill="none" stroke="#55337F" stroke-width="3" stroke-linecap="round" stroke-linejoin="round" stroke-miterlimit="10" points="
		271.456,330.91 280.126,330.91 288.798,330.91 297.47,330.91 306.141,330.91 306.141,339.58 306.141,348.252 306.141,356.923 
		314.812,356.923 323.483,356.923 323.483,365.594 323.483,374.266 323.483,382.937 323.483,391.608 323.483,400.28 
		323.483,408.951 314.812,408.951 314.812,400.28 314.812,391.608 314.812,382.937 314.812,374.266 314.812,365.594 
		306.141,365.594 306.141,374.266 306.141,382.937 306.141,391.608 306.141,400.28 306.141,408.951 314.812,417.623 
		314.812,426.294 314.812,434.966 323.483,443.637 314.812,443.637 306.141,434.966 306.141,443.637 297.47,443.637 
		288.798,443.637 280.126,443.637 280.126,452.308 271.456,452.308 271.456,443.637 262.785,434.966 262.785,426.294 
		271.456,426.294 271.456,434.966 280.126,434.966 280.126,426.294 288.798,426.294 288.798,434.966 297.47,434.966 	"/>
</g>
<g id="LWPOLYLINE_39_">
	
		<polyline fill="none" stroke="#55017F" stroke-width="3" stroke-linecap="round" stroke-linejoin="round" stroke-miterlimit="10" points="
		271.456,322.237 280.126,313.567 280.126,304.895 280.126,296.224 288.798,287.553 288.798,278.881 288.798,270.209 
		297.47,270.209 306.141,270.209 306.141,261.538 314.812,261.538 314.812,270.209 314.812,278.881 306.141,278.881 297.47,278.881 
		297.47,287.553 306.141,287.553 314.812,287.553 314.812,296.224 306.141,296.224 297.47,296.224 288.798,296.224 288.798,304.895 
		297.47,304.895 306.141,304.895 314.812,304.895 314.812,313.567 306.141,313.567 297.47,313.567 288.798,313.567 280.126,322.237 
		288.798,322.237 297.47,322.237 306.141,322.237 314.812,322.237 314.812,330.91 314.812,339.58 314.812,348.252 323.483,348.252 
		332.155,348.252 332.155,356.923 332.155,365.594 332.155,374.266 332.155,382.937 332.155,391.608 332.155,400.28 
		332.155,408.951 323.483,417.623 323.483,426.294 323.483,434.966 	"/>
</g>
<g id="LWPOLYLINE_2_">
	
		<polyline fill="none" stroke="#73657F" stroke-width="3" stroke-linecap="round" stroke-linejoin="round" stroke-miterlimit="10" points="
		401.526,573.707 401.526,582.378 401.526,591.051 392.854,591.051 384.184,591.051 375.512,591.051 375.512,599.721 
		375.512,608.393 384.184,617.063 375.512,625.735 384.184,625.735 392.854,634.406 392.854,625.735 392.854,617.063 
		392.854,608.393 384.184,608.393 384.184,599.721 392.854,599.721 401.526,599.721 401.526,608.393 401.526,617.063 
		401.526,625.735 401.526,634.406 410.197,634.406 418.869,634.406 427.541,634.406 427.541,625.735 418.869,625.735 
		410.197,625.735 410.197,617.063 410.197,608.393 410.197,599.721 410.197,591.051 410.197,582.378 418.869,591.051 
		427.541,591.051 418.869,599.721 427.541,599.721 436.212,599.721 444.883,599.721 444.883,608.393 436.212,608.393 
		427.541,608.393 436.212,617.063 444.883,617.063 444.883,625.735 436.212,625.735 427.541,617.063 418.869,617.063 
		418.869,608.393 	"/>
</g>
<g id="LWPOLYLINE_3_">
	
		<polyline fill="none" stroke="#73017F" stroke-width="3" stroke-linecap="round" stroke-linejoin="round" stroke-miterlimit="10" points="
		401.526,556.363 401.526,547.693 401.526,539.021 401.526,530.351 410.197,530.351 410.197,539.021 410.197,547.693 
		418.869,547.693 418.869,539.021 418.869,530.351 427.541,521.679 427.541,530.351 427.541,539.021 427.541,547.693 
		436.212,547.693 436.212,539.021 436.212,530.351 436.212,521.679 436.212,513.006 444.883,504.337 444.883,513.006 
		444.883,521.679 444.883,530.351 444.883,539.021 453.554,539.021 453.554,530.351 453.554,521.679 453.554,513.006 
		453.554,504.337 453.554,495.665 462.226,486.995 462.226,495.665 462.226,504.337 462.226,513.006 462.226,521.679 
		462.226,530.351 462.226,539.021 462.226,547.693 453.554,547.693 444.883,547.693 436.212,556.363 427.541,556.363 
		418.869,556.363 410.197,556.363 418.869,565.037 427.541,565.037 436.212,565.037 444.883,556.363 453.554,556.363 
		462.226,556.363 	"/>
</g>
<g id="LWPOLYLINE_34_">
	
		<polyline fill="none" stroke="#7D337F" stroke-width="3" stroke-linecap="round" stroke-linejoin="round" stroke-miterlimit="10" points="
		314.812,556.363 306.141,556.363 306.141,547.693 314.812,547.693 323.483,547.693 332.155,547.693 332.155,539.021 
		323.483,539.021 314.812,539.021 306.141,539.021 297.47,530.351 306.141,530.351 314.812,530.351 323.483,530.351 
		323.483,521.679 314.812,521.679 306.141,521.679 297.47,521.679 288.798,521.679 297.47,513.006 306.141,513.006 314.812,513.006 
		314.812,504.337 306.141,504.337 297.47,504.337 288.798,504.337 288.798,513.006 280.126,513.006 280.126,504.337 
		280.126,495.665 288.798,495.665 297.47,495.665 306.141,495.665 314.812,495.665 323.483,495.665 323.483,504.337 
		323.483,513.006 332.155,513.006 332.155,521.679 332.155,530.351 340.827,530.351 340.827,539.021 349.497,539.021 
		358.169,539.021 366.841,539.021 375.512,539.021 384.184,539.021 384.184,547.693 384.184,556.363 392.854,565.037 	"/>
</g>
<g id="LWPOLYLINE_49_">
	
		<polyline fill="none" stroke="#73337F" stroke-width="3" stroke-linecap="round" stroke-linejoin="round" stroke-miterlimit="10" points="
		410.197,573.707 418.869,582.378 427.541,582.378 436.212,582.378 436.212,591.051 444.883,591.051 453.554,591.051 
		453.554,599.721 453.554,608.393 453.554,617.063 462.226,608.393 462.226,617.063 470.897,617.063 479.568,617.063 
		470.897,608.393 470.897,599.721 462.226,599.721 462.226,591.051 453.554,582.378 444.883,582.378 444.883,573.707 
		453.554,573.707 462.226,573.707 462.226,582.378 470.897,591.051 479.568,591.051 488.241,591.051 488.241,599.721 
		479.568,599.721 479.568,608.393 488.241,608.393 496.912,608.393 505.583,599.721 496.912,599.721 496.912,591.051 
		496.912,582.378 488.241,582.378 479.568,582.378 470.897,582.378 470.897,573.707 470.897,565.037 470.897,556.363 
		462.226,565.037 453.554,565.037 444.883,565.037 436.212,573.707 427.541,573.707 418.869,573.707 410.197,565.037 
		401.526,565.037 	"/>
</g>
<g id="LWPOLYLINE_51_">
	
		<polyline fill="none" stroke="#7D657F" stroke-width="3" stroke-linecap="round" stroke-linejoin="round" stroke-miterlimit="10" points="
		392.854,573.707 384.184,565.037 375.512,556.363 375.512,547.693 366.841,547.693 358.169,547.693 349.497,547.693 
		340.827,547.693 340.827,556.363 332.155,556.363 323.489,556.363 323.483,565.037 332.155,565.037 340.827,565.037 
		349.497,556.363 358.169,556.363 366.841,556.363 375.512,565.037 375.512,573.707 384.184,573.707 392.854,582.378 
		384.184,582.378 375.512,582.378 366.841,582.378 366.841,573.707 366.841,565.037 358.169,565.037 349.497,565.037 
		358.169,573.707 349.497,573.707 340.827,573.707 332.155,573.707 332.155,582.378 332.155,591.051 340.827,591.051 
		340.827,582.378 349.497,582.378 358.169,582.378 349.497,591.051 349.497,599.721 349.497,608.393 358.169,617.063 
		366.841,617.063 375.512,617.063 366.841,608.393 366.841,599.721 366.841,591.051 358.169,591.051 358.169,599.721 
		358.169,608.393 	"/>
</g>
<g id="LWPOLYLINE_52_">
	
		<polyline fill="none" stroke="#7D017F" stroke-width="3" stroke-linecap="round" stroke-linejoin="round" stroke-miterlimit="10" points="
		392.854,556.363 392.854,547.693 392.854,539.021 392.854,530.351 384.184,530.351 375.512,530.351 366.841,530.351 
		358.169,530.351 349.497,530.351 349.497,521.679 340.827,521.679 340.827,513.006 340.827,504.337 332.155,504.337 
		332.155,495.665 332.155,486.995 332.155,478.322 332.155,469.651 332.155,460.978 332.155,452.308 323.483,452.308 
		314.812,452.308 306.141,452.308 297.47,452.308 288.798,452.308 288.798,460.978 297.47,460.978 306.141,460.978 314.812,460.978 
		323.483,460.978 323.483,469.651 314.812,469.651 306.141,469.651 297.47,469.651 288.798,469.651 280.126,478.322 
		288.798,478.322 297.47,478.322 306.141,478.322 314.812,478.322 323.483,478.322 323.483,486.995 314.812,486.995 
		306.141,486.995 297.903,486.995 288.798,486.995 280.126,486.995 271.456,495.665 271.456,504.337 271.456,513.006 	"/>
</g>
<g id="LWPOLYLINE_4_">
	
		<polyline fill="none" stroke="#9B657F" stroke-width="3" stroke-linecap="round" stroke-linejoin="round" stroke-miterlimit="10" points="
		583.624,539.021 592.296,530.351 600.968,521.679 609.639,521.679 618.312,521.679 626.981,521.679 635.652,521.679 
		644.324,530.351 644.324,539.021 635.652,539.021 635.652,530.351 626.981,530.351 626.981,539.021 618.312,539.021 
		618.312,530.351 609.639,530.351 609.639,539.021 600.968,539.021 600.968,530.351 592.296,539.021 583.624,547.693 
		583.624,556.363 583.624,565.037 583.624,573.707 583.624,582.378 592.296,582.378 592.296,573.707 592.296,565.037 
		592.296,556.363 592.296,547.693 600.968,547.693 600.968,556.363 600.968,565.037 600.968,573.707 609.639,573.707 
		618.312,573.707 618.312,565.037 609.639,565.037 609.639,556.363 609.639,547.693 618.312,547.693 618.312,556.363 
		626.981,565.037 635.652,565.037 635.652,556.363 626.981,556.363 626.981,547.693 635.652,547.693 644.324,547.693 
		644.324,556.363 	"/>
</g>
<g id="LWPOLYLINE_29_">
	
		<polyline fill="none" stroke="#9B337F" stroke-width="3" stroke-linecap="round" stroke-linejoin="round" stroke-miterlimit="10" points="
		644.324,521.679 635.652,513.006 626.981,513.006 618.312,513.006 609.639,513.006 600.968,513.006 600.968,504.337 
		609.639,504.337 618.312,504.337 626.981,504.337 635.652,504.337 635.652,495.665 626.981,495.665 618.312,495.665 
		609.639,495.665 600.968,495.665 592.296,495.665 583.624,495.665 583.624,486.995 574.954,486.995 574.954,478.322 
		574.954,469.651 574.954,460.978 574.954,452.308 574.954,443.637 566.282,452.308 566.282,460.978 557.61,460.978 557.61,452.308 
		548.939,452.308 548.939,460.978 548.939,469.651 548.939,478.322 557.61,469.651 566.282,469.651 566.282,478.322 557.61,478.322 
		557.61,486.995 566.282,486.995 574.954,495.665 566.282,495.665 557.61,495.665 557.61,504.337 566.282,504.337 574.954,504.337 
		583.624,504.337 592.296,504.337 592.296,513.006 592.296,521.679 583.624,530.351 	"/>
</g>
<g id="LWPOLYLINE_30_">
	
		<polyline fill="none" stroke="#9B017F" stroke-width="3" stroke-linecap="round" stroke-linejoin="round" stroke-miterlimit="10" points="
		566.282,443.637 557.61,443.637 548.939,443.637 548.939,434.966 557.61,434.966 566.282,434.966 566.282,426.294 574.954,434.966 
		574.954,426.294 574.954,417.623 566.282,417.623 557.61,417.623 557.61,426.294 548.939,426.294 540.268,426.294 540.268,434.966 
		540.268,443.637 540.268,452.308 540.268,460.978 540.268,469.651 540.268,478.322 531.596,478.322 531.596,469.651 
		531.596,460.978 531.596,452.308 531.596,443.637 531.596,434.966 522.925,443.637 514.253,443.637 514.253,452.308 
		522.925,452.308 522.925,460.978 514.253,460.978 514.253,469.651 522.925,469.651 522.925,478.322 514.253,478.322 
		514.253,486.995 522.925,486.995 531.596,486.995 540.268,486.995 548.939,486.995 548.939,495.665 548.939,504.337 
		548.939,513.006 557.61,513.006 566.282,513.006 574.954,513.006 583.624,513.006 583.624,521.679 	"/>
</g>
<g id="LWPOLYLINE_31_">
	
		<polyline fill="none" stroke="#A5657F" stroke-width="3" stroke-linecap="round" stroke-linejoin="round" stroke-miterlimit="10" points="
		514.253,599.721 522.925,599.721 522.925,591.051 514.253,591.051 505.583,591.051 505.583,582.378 514.253,582.378 
		522.925,582.378 522.925,573.707 514.253,573.707 505.583,573.707 496.912,573.707 488.241,573.707 479.568,573.707 
		479.568,565.037 488.241,565.037 496.912,565.037 505.583,565.037 514.253,565.037 522.925,565.037 531.596,556.363 
		531.596,565.037 531.596,573.707 531.596,582.378 531.596,591.051 540.268,591.051 540.268,582.378 540.268,573.707 
		540.268,565.037 540.268,556.363 548.939,556.363 548.939,565.037 548.939,573.707 548.939,582.378 548.939,591.051 
		557.61,591.051 557.61,582.378 557.61,573.707 557.61,565.037 557.61,556.363 566.282,556.363 566.282,565.037 566.282,573.707 
		566.282,582.378 574.954,582.378 574.954,573.707 574.954,565.037 574.954,556.363 574.954,547.693 574.954,539.021 	"/>
</g>
<g id="LWPOLYLINE_32_">
	
		<polyline fill="none" stroke="#A5337F" stroke-width="3" stroke-linecap="round" stroke-linejoin="round" stroke-miterlimit="10" points="
		574.954,530.351 566.282,530.351 557.61,530.351 548.939,530.351 540.268,530.351 531.596,530.351 531.596,521.679 
		522.925,521.679 514.253,521.679 505.583,521.679 496.912,513.006 488.241,513.006 479.568,513.006 479.568,521.679 
		488.241,521.679 496.912,521.679 505.583,530.351 514.253,530.351 522.925,530.351 522.925,539.021 531.596,539.021 
		540.268,539.021 548.939,539.021 557.61,539.021 566.282,539.021 566.282,547.693 557.61,547.693 548.939,547.693 540.268,547.693 
		531.596,547.693 522.925,547.693 514.253,547.693 514.253,539.021 505.583,539.021 496.912,530.351 488.241,530.351 
		479.568,530.351 479.568,539.021 488.241,539.021 496.912,539.021 505.583,547.693 496.912,547.693 488.241,547.693 
		479.568,547.693 479.568,556.363 488.241,556.363 496.912,556.363 505.583,556.363 514.253,556.363 522.925,556.363 	"/>
</g>
<g id="LWPOLYLINE_33_">
	
		<polyline fill="none" stroke="#A5017F" stroke-width="3" stroke-linecap="round" stroke-linejoin="round" stroke-miterlimit="10" points="
		574.954,521.679 566.282,521.679 557.61,521.679 548.939,521.679 540.268,521.679 540.268,513.006 540.268,504.337 
		540.268,495.665 531.596,495.665 522.925,495.665 514.253,495.665 505.583,495.665 505.583,486.995 505.583,478.322 
		505.583,469.651 505.583,460.978 505.583,452.308 496.912,460.978 496.912,469.651 488.241,469.651 479.568,469.651 
		470.897,478.322 470.897,486.995 479.568,478.322 488.241,478.322 496.912,478.322 496.912,486.995 488.241,486.995 
		479.568,486.995 470.897,495.665 479.568,495.665 488.241,495.665 496.912,495.665 505.583,504.337 514.253,504.337 
		522.925,504.337 531.596,504.337 531.596,513.006 522.925,513.006 514.253,513.006 505.583,513.006 496.912,504.337 
		488.241,504.337 479.568,504.337 470.897,504.337 470.897,513.006 470.897,521.679 470.897,530.351 470.897,539.021 
		470.897,547.693 	"/>
</g>
<g id="LWPOLYLINE_5_">
	
		<polyline fill="none" stroke="#AF657F" stroke-width="3" stroke-linecap="round" stroke-linejoin="round" stroke-miterlimit="10" points="
		661.667,443.637 661.667,452.308 661.667,460.978 661.667,469.651 661.667,478.322 670.338,478.322 670.338,486.995 
		670.338,495.665 670.338,504.337 670.338,513.006 670.338,521.679 679.01,521.679 687.68,530.351 696.354,530.351 705.024,530.351 
		713.697,530.351 722.367,530.351 731.037,530.351 739.709,530.351 748.381,530.351 757.053,530.351 765.723,530.351 
		774.394,530.351 783.066,530.351 791.736,530.351 800.407,530.351 809.08,530.351 817.751,530.351 826.422,530.351 
		835.095,530.351 843.765,539.021 852.438,539.021 843.765,530.351 835.095,521.679 826.422,521.679 817.751,521.679 
		808.174,521.679 800.407,521.679 791.736,521.679 783.066,521.679 774.394,521.679 765.723,521.679 757.053,521.679 
		748.381,521.679 739.709,521.679 731.037,521.679 722.367,521.679 713.697,521.679 705.024,521.679 696.354,521.679 	"/>
</g>
<g id="LWPOLYLINE_25_">
	
		<polyline fill="none" stroke="#AF337F" stroke-width="3" stroke-linecap="round" stroke-linejoin="round" stroke-miterlimit="10" points="
		661.667,434.966 670.338,426.294 670.338,417.623 670.338,408.951 679.01,417.623 679.01,426.294 687.68,426.294 696.354,426.294 
		705.024,426.294 713.697,426.294 722.367,426.294 731.037,426.294 731.037,434.966 722.367,434.966 713.697,434.966 
		705.024,434.966 696.354,434.966 687.68,434.966 679.01,434.966 670.338,434.966 670.338,443.637 679.01,443.637 679.01,452.308 
		687.68,452.308 687.68,443.637 696.354,443.637 696.354,452.308 705.024,452.308 705.024,443.637 713.697,443.637 713.697,452.308 
		722.367,443.637 731.037,443.637 722.367,452.308 722.367,460.978 713.697,460.978 705.024,460.978 696.354,460.978 
		687.68,460.978 679.01,460.978 670.338,452.308 670.338,460.978 670.338,469.651 679.01,469.651 679.01,478.322 679.01,486.995 
		679.01,495.665 679.01,504.337 679.01,513.006 687.68,521.679 	"/>
</g>
<g id="LWPOLYLINE_26_">
	
		<polyline fill="none" stroke="#AF017F" stroke-width="3" stroke-linecap="round" stroke-linejoin="round" stroke-miterlimit="10" points="
		661.667,426.294 661.667,417.623 661.667,408.951 661.667,400.28 661.667,391.608 661.667,382.937 670.338,382.937 679.01,382.937 
		687.68,382.937 696.354,382.937 705.024,382.937 713.697,382.937 713.697,391.608 705.024,391.608 696.354,391.608 
		688.114,391.608 679.01,391.608 670.338,391.608 670.338,400.28 679.01,400.28 687.68,400.28 696.354,400.28 705.024,400.28 
		713.697,400.28 713.697,408.951 705.024,408.951 696.354,408.951 687.68,408.951 679.01,408.951 687.68,417.623 696.354,417.623 
		705.024,417.623 713.697,417.623 722.367,417.623 731.037,417.623 731.037,408.951 731.037,400.28 722.367,408.951 722.367,400.28 
		722.367,391.608 731.037,391.608 739.709,391.608 739.709,400.28 739.709,408.951 748.381,408.951 748.381,400.28 757.053,400.28 
		757.053,408.951 765.723,408.951 774.394,408.951 	"/>
</g>
<g id="LWPOLYLINE_27_">
	
		<polyline fill="none" stroke="#B9657F" stroke-width="3" stroke-linecap="round" stroke-linejoin="round" stroke-miterlimit="10" points="
		835.095,539.021 826.422,539.021 817.751,539.021 809.08,539.021 800.407,539.021 791.736,539.021 783.066,539.021 
		774.394,539.021 765.723,539.021 757.053,539.021 748.381,539.021 739.709,539.021 731.037,539.021 722.367,539.021 
		713.697,539.021 713.697,547.693 705.024,539.021 705.024,547.693 696.354,547.693 696.354,539.021 687.68,539.021 687.68,547.693 
		679.01,547.693 679.01,539.021 679.01,530.351 670.338,530.351 670.338,539.021 661.667,539.021 661.667,547.693 670.338,547.693 
		670.338,556.363 661.667,556.363 652.995,556.363 652.995,547.693 652.995,539.021 652.995,530.351 661.667,530.351 
		661.667,521.679 661.667,513.006 652.995,521.679 644.324,513.006 652.995,513.006 661.667,504.337 661.667,495.665 
		661.667,486.995 652.995,478.322 652.995,469.651 652.995,460.978 652.995,452.308 652.995,443.637 	"/>
</g>
<g id="LWPOLYLINE_28_">
	
		<polyline fill="none" stroke="#B9337F" stroke-width="3" stroke-linecap="round" stroke-linejoin="round" stroke-miterlimit="10" points="
		652.995,504.337 644.324,504.337 644.324,495.665 652.995,495.665 652.995,486.995 644.324,486.995 636.085,486.995 
		626.981,486.995 618.312,486.995 609.639,486.995 600.968,486.995 592.296,486.995 583.624,478.322 592.296,478.322 
		600.968,478.322 609.639,478.322 618.312,478.322 626.981,478.322 635.652,478.322 644.324,478.322 644.324,469.651 
		635.652,469.651 626.981,469.651 618.312,469.651 609.639,469.651 600.968,469.651 592.296,469.651 583.624,469.651 
		583.624,460.978 592.296,460.978 600.968,460.978 609.639,460.978 618.312,460.978 626.981,460.978 635.652,460.978 
		644.324,460.978 644.324,452.308 635.652,452.308 626.981,452.308 618.312,452.308 609.639,452.308 600.968,452.308 
		600.968,443.637 609.639,443.637 618.312,443.637 626.981,443.637 635.652,443.637 644.324,443.637 644.324,434.966 
		652.995,434.966 	"/>
</g>
<g id="LWPOLYLINE_47_">
	
		<polyline fill="none" stroke="#B9017F" stroke-width="3" stroke-linecap="round" stroke-linejoin="round" stroke-miterlimit="10" points="
		652.995,426.294 652.995,417.623 652.995,408.951 652.995,400.28 652.995,391.608 644.324,391.608 635.652,391.608 
		626.981,391.608 626.981,400.28 635.652,400.28 644.324,400.28 644.324,408.951 635.652,408.951 626.981,408.951 618.312,400.28 
		609.639,400.28 600.968,400.28 600.968,408.951 609.639,408.951 618.312,408.951 618.312,417.623 609.639,417.623 600.968,417.623 
		592.296,417.623 592.296,408.951 583.624,408.951 574.954,408.951 583.624,417.623 583.624,426.294 592.296,426.294 
		600.968,426.294 609.639,426.294 618.312,426.294 626.981,426.294 626.981,417.623 635.652,417.623 644.324,417.623 
		644.324,426.294 635.652,426.294 635.652,434.966 626.981,434.966 618.312,434.966 609.639,434.966 600.968,434.966 
		592.296,434.966 583.624,434.966 583.624,443.637 592.296,443.637 592.296,452.308 583.624,452.308 	"/>
</g>
<g id="LWPOLYLINE_6_">
	
		<polyline fill="none" stroke="#E1017F" stroke-width="3" stroke-linecap="round" stroke-linejoin="round" stroke-miterlimit="10" points="
		739.709,434.966 748.381,434.966 748.381,426.294 739.709,426.294 739.709,417.623 748.381,417.623 757.053,417.623 
		765.723,417.623 774.394,417.623 783.066,417.623 783.066,426.294 774.394,426.294 765.723,426.294 757.053,426.294 
		757.053,434.966 765.723,434.966 774.394,434.966 783.066,434.966 791.736,426.294 791.736,434.966 800.407,434.966 
		809.08,443.637 800.407,443.637 791.736,443.637 783.066,443.637 774.394,443.637 765.723,443.637 757.053,443.637 
		757.053,452.308 765.723,452.308 774.394,452.308 783.066,452.308 791.736,452.308 800.407,452.308 809.08,452.308 
		817.751,452.308 826.422,460.978 817.751,460.978 809.08,460.978 800.407,460.978 800.407,469.651 791.736,460.978 
		783.066,460.978 774.394,460.978 765.723,460.978 757.053,460.978 748.381,469.651 757.053,469.651 765.723,469.651 
		774.394,469.651 	"/>
</g>
<g id="LWPOLYLINE_23_">
	
		<polyline fill="none" stroke="#E1657F" stroke-width="3" stroke-linecap="round" stroke-linejoin="round" stroke-miterlimit="10" points="
		783.066,478.322 783.066,486.995 774.394,486.995 765.723,486.995 757.053,486.995 748.381,486.995 739.709,486.995 
		739.709,495.665 748.381,495.665 757.053,495.665 765.723,495.665 774.394,495.665 783.066,495.665 783.066,504.337 
		774.394,504.337 765.723,504.337 757.053,504.337 748.381,504.337 739.709,504.337 739.709,513.006 748.381,513.006 
		757.053,513.006 765.723,513.006 774.394,513.006 783.066,513.006 791.736,513.006 800.407,513.006 809.08,513.006 
		817.751,513.006 826.422,513.006 835.095,513.006 843.765,521.679 852.438,530.351 861.108,539.021 861.108,547.693 
		869.779,547.693 878.45,547.693 887.123,547.693 887.123,556.363 895.793,565.037 904.464,565.037 913.136,565.037 
		904.464,556.363 895.793,556.363 895.793,547.693 887.123,539.021 878.45,530.351 869.779,521.679 861.108,513.006 
		852.438,504.337 	"/>
</g>
<g id="LWPOLYLINE_24_">
	
		<polyline fill="none" stroke="#E1337F" stroke-width="3" stroke-linecap="round" stroke-linejoin="round" stroke-miterlimit="10" points="
		774.394,478.322 765.723,478.322 757.053,478.322 748.381,478.322 739.709,478.322 739.709,469.651 739.709,460.978 
		748.381,460.978 748.381,452.308 748.381,443.637 739.709,443.637 739.709,452.308 731.037,452.308 731.037,460.978 
		731.037,469.651 731.037,478.322 722.367,478.322 722.367,469.651 713.697,469.651 705.024,469.651 696.354,469.651 
		687.68,469.651 687.68,478.322 696.354,478.322 705.024,478.322 713.697,478.322 713.697,486.995 705.024,486.995 696.354,486.995 
		687.68,486.995 687.68,495.665 696.354,495.665 705.024,495.665 713.697,495.665 713.697,504.337 705.024,504.337 696.354,504.337 
		687.68,504.337 687.68,513.006 696.354,513.006 705.024,513.006 713.697,513.006 722.367,513.006 731.037,513.006 731.037,504.337 
		722.367,504.337 722.367,495.665 731.037,495.665 731.037,486.995 722.367,486.995 	"/>
</g>
<g id="LWPOLYLINE_45_">
	
		<polyline fill="none" stroke="#D7017F" stroke-width="3" stroke-linecap="round" stroke-linejoin="round" stroke-miterlimit="10" points="
		783.066,469.651 791.736,478.322 791.736,486.995 791.736,495.665 791.736,504.337 800.407,504.337 809.08,504.337 
		817.751,504.337 826.422,504.337 835.095,504.337 843.765,513.006 852.438,521.679 861.108,530.351 869.779,539.021 
		878.45,539.021 869.779,530.351 861.108,521.679 852.438,513.006 843.765,504.337 835.095,495.665 826.422,495.665 
		817.751,495.665 809.08,495.665 800.407,495.665 800.407,486.995 809.08,486.995 817.751,486.995 826.422,486.995 835.095,486.995 
		843.765,495.665 843.765,486.995 843.765,478.322 852.438,486.995 852.438,495.665 861.108,495.665 861.108,504.337 
		869.779,504.337 869.779,513.006 878.45,513.006 878.45,521.679 887.123,521.679 887.123,530.351 895.793,530.351 895.793,539.021 
		904.464,539.021 904.464,547.693 913.136,547.693 913.136,556.363 921.809,556.363 921.809,565.037 	"/>
</g>
<g id="LWPOLYLINE_46_">
	
		<polyline fill="none" stroke="#D7337F" stroke-width="3" stroke-linecap="round" stroke-linejoin="round" stroke-miterlimit="10" points="
		791.736,469.651 800.407,478.322 809.08,478.322 809.08,469.651 817.751,469.651 817.751,478.322 826.422,478.322 826.422,469.651 
		835.095,469.651 835.095,478.322 	"/>
</g>
<g id="LWPOLYLINE_7_">
	
		<polyline fill="none" stroke="#CD017F" stroke-width="3" stroke-linecap="round" stroke-linejoin="round" stroke-miterlimit="10" points="
		739.709,270.209 748.381,270.209 757.053,270.209 765.723,270.209 774.394,270.209 783.066,270.209 791.736,270.209 
		800.407,270.209 809.08,270.209 817.751,270.209 817.751,278.881 817.751,287.553 817.751,296.224 817.751,304.895 
		817.751,313.567 817.751,322.237 809.08,330.91 800.407,339.58 791.736,339.58 791.736,330.91 800.407,330.91 809.08,322.237 
		809.08,313.567 809.08,304.895 809.08,296.224 809.08,287.553 809.08,278.881 800.407,278.881 800.407,287.553 800.407,296.224 
		791.736,304.895 800.407,304.895 800.407,313.567 791.736,313.567 800.407,322.237 791.736,322.237 783.066,330.91 783.066,339.58 
		774.394,339.58 774.394,330.91 765.723,330.91 757.053,330.91 757.053,322.237 765.723,322.237 774.394,322.237 783.066,322.237 
		783.066,313.567 774.394,313.567 765.723,313.567 757.053,313.567 	"/>
</g>
<g id="LWPOLYLINE_8_">
	
		<polyline fill="none" stroke="#C3017F" stroke-width="3" stroke-linecap="round" stroke-linejoin="round" stroke-miterlimit="10" points="
		739.709,261.538 748.381,261.538 757.053,261.538 765.723,261.538 774.394,261.538 783.066,261.538 791.736,261.538 
		800.407,261.538 809.08,261.538 817.751,261.538 826.422,261.538 835.095,261.538 835.095,252.867 835.095,244.196 
		826.422,244.196 826.422,252.867 817.751,252.867 817.751,244.196 817.751,235.523 809.08,235.523 809.08,244.196 809.08,252.867 
		800.407,252.867 800.407,244.196 800.407,235.523 791.736,226.853 791.736,218.182 783.066,218.182 774.394,218.182 
		765.723,218.182 765.723,226.853 774.394,226.853 783.066,226.853 791.736,235.523 783.066,235.523 774.394,235.523 
		765.723,235.523 765.723,244.196 774.394,244.196 783.066,244.196 791.736,244.196 791.736,252.867 783.066,252.867 
		774.394,252.867 765.723,252.867 757.053,252.867 757.053,244.196 757.053,235.523 757.053,226.853 757.053,218.182 	"/>
</g>
<g id="LWPOLYLINE_14_">
	
		<polyline fill="none" stroke="#C3657F" stroke-width="3" stroke-linecap="round" stroke-linejoin="round" stroke-miterlimit="10" points="
		722.367,261.538 722.367,252.867 713.697,252.867 713.697,261.538 705.024,261.538 705.024,252.867 696.354,252.867 
		696.354,261.538 687.68,261.538 687.68,252.867 679.01,252.867 679.01,261.538 670.338,261.538 670.338,252.867 670.338,244.196 
		670.338,235.523 661.667,235.523 652.995,235.523 644.324,244.196 652.995,244.196 661.667,244.196 661.667,252.867 
		661.667,261.538 652.995,261.538 652.995,252.867 644.324,252.867 644.324,261.538 635.652,261.538 635.652,252.867 
		626.981,252.867 626.981,261.538 626.981,270.209 626.981,277.825 626.981,287.553 635.652,287.553 635.652,296.224 
		635.652,304.895 635.652,313.567 626.981,313.567 626.981,304.895 626.981,296.224 618.312,296.224 618.312,304.895 
		618.312,313.567 609.639,313.567 609.639,322.237 600.968,322.237 600.968,313.567 600.968,304.895 609.639,304.895 	"/>
</g>
<g id="LWPOLYLINE_15_">
	
		<polyline fill="none" stroke="#C3337F" stroke-width="3" stroke-linecap="round" stroke-linejoin="round" stroke-miterlimit="10" points="
		609.639,235.523 618.312,235.523 626.981,235.523 626.981,244.196 635.652,244.196 635.652,235.523 644.324,235.523 
		644.324,226.853 652.995,226.853 661.667,226.853 670.338,226.853 679.01,226.853 679.01,235.523 679.01,244.196 687.68,244.196 
		687.68,235.523 696.354,235.523 696.354,244.196 705.024,244.196 705.024,235.523 713.697,235.523 713.697,244.196 
		722.367,244.196 722.367,235.523 731.037,235.523 731.037,244.196 731.037,252.867 739.709,244.196 739.709,235.523 
		739.709,226.853 731.037,226.853 722.367,226.853 713.697,226.853 705.024,226.853 696.354,226.853 687.68,226.853 687.68,218.182 
		696.354,218.182 705.024,218.182 713.697,218.182 722.367,218.182 731.037,218.182 739.709,218.182 748.381,218.182 
		748.381,226.853 748.381,235.523 748.381,244.196 748.381,252.867 739.709,252.867 731.037,261.538 	"/>
</g>
<g id="LWPOLYLINE_16_">
	
		<polyline fill="none" stroke="#CD657F" stroke-width="3" stroke-linecap="round" stroke-linejoin="round" stroke-miterlimit="10" points="
		722.367,270.209 713.697,270.209 705.024,270.209 696.354,270.209 687.68,270.209 679.01,270.209 670.338,270.209 661.667,270.209 
		652.995,270.209 644.324,270.209 635.652,270.209 635.652,278.881 644.324,278.881 652.995,278.881 661.667,278.881 
		670.338,278.881 679.01,278.881 687.68,278.881 696.354,278.881 705.024,278.881 713.697,278.881 722.367,278.881 722.367,287.553 
		722.367,296.224 713.697,296.224 713.697,287.553 705.024,287.553 696.354,287.553 687.68,287.553 679.01,287.553 670.338,287.553 
		661.667,287.553 652.995,287.553 644.324,287.553 644.324,296.224 652.995,296.224 661.667,296.224 670.338,296.224 
		679.01,296.224 687.68,296.224 696.354,296.224 705.024,296.224 705.024,304.895 696.354,304.895 687.68,304.895 679.01,304.895 
		670.338,304.895 661.667,304.895 652.995,304.895 644.324,304.895 	"/>
</g>
<g id="LWPOLYLINE_17_">
	
		<polyline fill="none" stroke="#CD337F" stroke-width="3" stroke-linecap="round" stroke-linejoin="round" stroke-miterlimit="10" points="
		731.037,270.209 731.037,278.881 739.709,278.881 748.381,278.881 757.053,278.881 765.723,278.881 774.394,278.881 
		783.066,278.881 791.736,278.881 791.736,287.553 783.066,287.553 774.394,287.553 765.723,287.553 757.486,287.553 
		748.381,287.553 739.709,287.553 731.037,287.553 731.037,296.224 739.709,296.224 748.381,296.224 757.053,296.224 
		765.723,296.224 774.394,296.224 783.066,296.224 791.736,296.224 783.066,304.895 774.394,304.895 765.723,304.895 
		757.053,304.895 748.381,304.895 748.381,313.567 748.381,322.237 739.709,322.237 731.037,322.237 731.037,313.567 
		739.709,313.567 739.709,304.895 731.037,304.895 722.367,304.895 713.697,304.895 722.367,313.567 713.697,313.567 
		705.024,313.567 696.354,313.567 687.68,313.567 679.01,313.567 670.338,313.567 661.667,313.567 652.995,313.567 644.324,313.567 
			"/>
</g>
<g id="LWPOLYLINE_9_">
	
		<polyline fill="none" stroke="#EB017F" stroke-width="3" stroke-linecap="round" stroke-linejoin="round" stroke-miterlimit="10" points="
		887.123,374.266 895.793,374.266 904.464,374.266 904.464,365.594 895.793,365.594 887.123,365.594 887.123,356.923 
		895.793,356.923 904.464,356.923 904.464,348.252 913.136,348.252 921.809,348.252 930.479,348.252 921.809,339.58 913.136,339.58 
		904.464,339.58 904.464,330.91 913.136,330.91 921.809,330.91 913.136,322.237 904.464,322.237 904.464,313.567 913.136,313.567 
		904.464,304.895 895.793,296.224 895.793,304.895 895.793,313.567 895.793,322.237 895.793,330.91 895.793,339.58 895.793,348.252 
		887.123,348.252 887.123,339.58 887.123,330.91 887.123,322.237 887.123,313.567 887.123,304.895 887.123,296.224 887.123,287.553 
		878.45,278.881 878.45,287.553 878.45,296.224 878.45,304.895 878.45,313.567 878.45,322.237 878.45,330.91 878.45,339.58 
		878.45,348.252 878.45,356.923 878.45,365.594 	"/>
</g>
<g id="LWPOLYLINE_18_">
	
		<polyline fill="none" stroke="#EB657F" stroke-width="3" stroke-linecap="round" stroke-linejoin="round" stroke-miterlimit="10" points="
		869.779,374.266 861.108,374.266 861.108,365.594 852.438,365.594 852.438,356.923 843.765,356.923 843.765,348.252 
		843.765,339.58 843.765,330.91 843.765,322.237 843.765,313.567 843.765,304.895 843.765,296.224 835.095,304.895 826.422,304.895 
		826.422,313.567 835.095,313.567 835.095,322.237 826.422,322.237 826.422,330.91 835.095,330.91 835.095,339.58 826.422,339.58 
		835.095,348.252 826.422,348.252 817.751,348.252 817.751,339.58 817.751,330.91 809.08,339.58 809.08,348.252 800.407,348.252 
		800.407,356.923 809.08,356.923 817.751,356.923 826.422,356.923 826.422,365.594 817.751,365.594 826.422,374.266 
		835.095,365.594 835.095,356.923 843.765,365.594 835.095,374.266 835.095,382.937 843.765,374.266 852.438,374.266 
		843.765,382.937 852.438,382.937 843.765,391.608 852.438,391.608 852.438,400.28 	"/>
</g>
<g id="LWPOLYLINE_19_">
	
		<polyline fill="none" stroke="#EB337F" stroke-width="3" stroke-linecap="round" stroke-linejoin="round" stroke-miterlimit="10" points="
		878.45,374.266 869.779,365.594 869.779,356.923 869.779,348.252 869.779,339.58 869.779,330.91 869.779,322.237 869.779,313.567 
		869.779,304.895 869.779,296.224 869.779,287.553 869.779,278.881 869.779,270.209 861.108,261.538 861.108,270.209 
		861.108,278.881 861.108,287.553 861.108,296.224 861.108,304.895 861.108,313.567 861.108,322.237 861.108,330.91 861.108,339.58 
		861.108,348.252 861.108,356.923 852.438,348.252 852.438,339.58 852.438,330.91 852.438,322.237 852.438,313.567 852.438,304.895 
		852.438,296.224 852.438,287.553 852.438,278.881 852.438,270.209 852.438,261.538 852.438,252.867 843.765,252.867 
		843.765,261.538 843.765,270.209 835.095,270.209 826.422,270.209 826.422,278.881 835.095,278.881 843.765,278.881 
		843.765,287.553 835.095,287.553 826.422,287.553 826.422,296.224 835.095,296.224 	"/>
</g>
<g id="LWPOLYLINE_20_">
	
		<polyline fill="none" stroke="#F5657F" stroke-width="3" stroke-linecap="round" stroke-linejoin="round" stroke-miterlimit="10" points="
		921.809,434.966 930.479,434.966 930.479,443.637 939.151,443.637 939.151,452.308 947.82,452.308 947.82,460.978 956.492,452.308 
		965.165,452.308 973.836,452.308 973.836,460.978 973.836,469.651 982.506,469.651 982.506,478.322 982.506,486.995 
		982.506,495.665 982.506,504.337 982.506,513.006 973.836,513.006 965.165,513.006 965.165,504.337 956.492,504.337 
		956.492,495.665 947.82,495.665 947.82,486.995 939.151,486.995 939.151,478.322 930.479,478.322 930.479,469.651 921.809,469.651 
		921.809,460.978 913.136,460.978 913.136,452.308 904.464,452.308 904.464,443.637 895.793,443.637 895.793,434.966 
		887.123,434.966 887.123,426.294 878.45,426.294 878.45,417.623 869.779,417.623 869.779,408.951 861.108,408.951 861.108,400.28 
		869.779,400.28 869.779,391.608 861.108,391.608 861.108,382.937 869.779,382.937 	"/>
</g>
<g id="LWPOLYLINE_21_">
	
		<polyline fill="none" stroke="#F5337F" stroke-width="3" stroke-linecap="round" stroke-linejoin="round" stroke-miterlimit="10" points="
		878.45,382.937 878.45,391.608 887.123,391.608 895.793,391.608 904.464,391.608 904.464,400.28 913.136,400.28 913.136,408.951 
		921.809,408.951 921.809,417.623 930.479,417.623 921.809,426.294 913.136,426.294 913.136,417.623 904.464,417.623 
		904.464,408.951 895.793,408.951 895.793,400.28 887.123,400.28 878.45,400.28 878.45,408.951 887.123,408.951 887.123,417.623 
		895.793,417.623 895.793,426.294 904.464,426.294 904.464,434.966 913.136,434.966 913.136,443.637 921.809,443.637 
		921.809,452.308 930.479,452.308 930.479,460.978 939.151,460.978 939.151,469.651 947.82,469.651 947.82,478.322 956.492,478.322 
		956.492,486.995 965.165,486.995 965.165,495.665 973.836,504.337 973.836,495.665 973.836,486.995 973.836,478.322 
		965.165,478.322 965.165,469.651 965.165,460.978 956.492,469.651 956.492,460.978 	"/>
</g>
<g id="LWPOLYLINE_22_">
	
		<polyline fill="none" stroke="#F5017F" stroke-width="3" stroke-linecap="round" stroke-linejoin="round" stroke-miterlimit="10" points="
		887.123,382.937 895.793,382.937 904.464,382.937 913.136,382.937 913.136,374.266 913.136,365.594 913.136,356.923 
		921.809,356.923 930.479,356.923 921.809,365.594 930.479,365.594 939.151,365.594 939.151,374.266 930.479,374.266 
		921.809,374.266 921.809,382.937 930.479,382.937 939.151,382.937 947.82,382.937 947.82,391.608 939.151,391.608 930.479,391.608 
		921.809,391.608 913.136,391.608 921.809,400.28 930.479,408.951 930.479,400.28 939.151,400.28 939.151,408.951 939.151,417.623 
		947.82,417.623 947.82,408.951 947.82,400.28 956.492,400.28 956.492,408.951 956.492,417.623 965.165,417.623 965.165,426.294 
		965.165,434.966 973.836,443.637 965.165,443.637 956.492,443.637 947.82,443.637 956.492,434.966 956.492,426.294 947.82,426.294 
		947.82,434.966 939.151,434.966 939.151,426.294 930.479,426.294 	"/>
</g>
<g id="LWPOLYLINE_10_">
	
		<polyline fill="none" stroke="#87017F" stroke-width="3" stroke-linecap="round" stroke-linejoin="round" stroke-miterlimit="10" points="
		505.583,348.252 505.583,356.923 496.912,356.923 496.912,365.594 488.241,365.594 488.241,374.266 479.568,374.266 
		479.568,382.937 470.897,382.937 470.897,391.608 462.226,391.608 462.226,400.28 453.554,400.28 453.554,408.951 444.883,408.951 
		444.883,417.623 436.212,426.294 427.541,426.294 427.541,417.623 436.212,417.623 436.212,408.951 436.212,400.28 444.883,400.28 
		444.883,391.608 444.883,382.937 453.554,391.608 453.554,382.937 453.554,374.266 462.226,382.937 462.226,374.266 
		470.897,374.266 462.226,365.594 462.226,356.923 470.897,365.594 479.568,365.594 470.897,356.923 470.897,348.252 
		479.568,348.252 479.568,356.923 488.241,356.923 488.241,348.252 496.912,348.252 496.912,339.58 505.583,339.58 505.583,330.91 
		514.253,330.91 514.253,322.237 522.925,322.237 522.925,313.567 531.596,313.567 	"/>
</g>
<g id="LWPOLYLINE_11_">
	
		<polyline fill="none" stroke="#91017F" stroke-width="3" stroke-linecap="round" stroke-linejoin="round" stroke-miterlimit="10" points="
		531.596,304.895 522.925,304.895 514.253,313.567 505.583,322.237 496.912,330.91 488.241,339.58 479.568,339.58 479.568,330.91 
		488.241,330.91 488.241,322.237 496.912,322.237 496.912,313.567 505.583,313.567 505.583,304.895 505.583,296.224 
		514.253,304.895 514.253,296.224 514.253,287.553 522.925,287.553 522.925,296.224 531.596,296.224 531.596,287.553 
		522.925,278.881 531.596,278.881 531.596,270.209 540.268,270.209 540.268,278.881 548.939,278.881 548.939,270.209 
		548.939,261.538 557.61,261.538 566.282,261.538 566.282,252.867 574.954,252.867 583.624,252.867 583.624,244.196 
		592.296,244.196 600.968,244.196 609.639,244.196 618.312,244.196 618.312,252.867 618.312,261.538 618.312,270.209 
		618.312,278.881 618.312,287.553 609.639,287.553 609.639,296.224 600.968,296.224 600.968,287.553 592.296,296.224 	"/>
</g>
<g id="LWPOLYLINE_12_">
	
		<polyline fill="none" stroke="#87337F" stroke-width="3" stroke-linecap="round" stroke-linejoin="round" stroke-miterlimit="10" points="
		540.268,313.567 548.939,313.567 557.61,322.237 566.282,322.237 566.282,330.91 557.61,330.91 548.939,330.91 548.939,322.237 
		540.268,322.237 531.596,322.237 531.596,330.91 540.268,330.91 540.268,339.58 531.596,339.58 522.925,330.91 522.925,339.58 
		531.596,348.252 522.925,348.252 514.253,339.58 514.253,348.252 522.925,356.923 514.253,356.923 514.253,365.594 
		505.583,365.594 505.583,374.266 496.912,374.266 496.912,382.937 488.241,382.937 488.241,391.608 479.568,391.608 
		479.568,400.28 470.897,400.28 470.897,408.951 462.226,408.951 462.226,417.623 453.554,417.623 453.554,426.294 444.883,426.294 
		444.883,434.966 436.212,434.966 	"/>
</g>
<g id="LWPOLYLINE_13_">
	
		<polyline fill="none" stroke="#91337F" stroke-width="3" stroke-linecap="round" stroke-linejoin="round" stroke-miterlimit="10" points="
		540.268,304.895 540.268,296.224 540.268,287.553 548.939,287.553 557.61,287.553 557.61,278.881 557.61,270.209 566.282,270.209 
		574.954,270.209 574.954,261.538 583.624,261.538 592.296,261.538 592.296,252.867 600.968,252.867 609.639,252.867 
		609.639,261.538 609.639,270.209 609.639,278.881 600.968,278.881 600.968,270.209 600.968,261.538 592.296,270.209 
		583.624,270.209 592.296,278.881 583.624,278.881 574.954,278.881 566.282,278.881 566.282,287.553 574.954,287.553 
		583.624,287.553 592.296,287.553 583.624,296.224 574.954,296.224 566.282,296.224 557.61,296.224 548.939,296.224 
		548.939,304.895 557.61,304.895 566.282,304.895 574.954,304.895 583.624,304.895 592.296,304.895 592.296,313.567 
		592.296,322.237 583.624,322.237 574.954,322.237 583.624,313.567 574.954,313.567 566.282,313.567 557.61,313.567 	"/>
</g>
<g id="_x32_-1_power_cable">
	<g id="LWPOLYLINE_48_">
		
			<path fill="none" stroke="#FF00FF" stroke-width="0.0023" stroke-linecap="round" stroke-linejoin="round" stroke-miterlimit="10" d="
			M479.568,469.742"/>
	</g>
	<g id="LWPOLYLINE_50_">
		
			<path fill="none" stroke="#0000FF" stroke-width="0.0023" stroke-linecap="round" stroke-linejoin="round" stroke-miterlimit="10" d="
			M453.554,617.063"/>
	</g>
</g>
</svg>
