<?xml version="1.0" encoding="utf-8"?>
<!-- Generator: Adobe Illustrator 16.0.0, SVG Export Plug-In . SVG Version: 6.00 Build 0)  -->
<!DOCTYPE svg PUBLIC "-//W3C//DTD SVG 1.1//EN" "http://www.w3.org/Graphics/SVG/1.1/DTD/svg11.dtd">
<svg version="1.1" id="レイヤー_1" xmlns="http://www.w3.org/2000/svg" xmlns:xlink="http://www.w3.org/1999/xlink" x="0px"
	 y="0px" width="476.803px" height="287px" viewBox="158.775 162.445 476.803 287"
	 enable-background="new 158.775 162.445 476.803 287" xml:space="preserve">
<g id="LWPOLYLINE">
	
		<polyline fill="none" stroke="#69017F" stroke-width="3" stroke-linecap="round" stroke-linejoin="round" stroke-miterlimit="10" points="
		357.797,206.882 357.797,202.205 357.797,197.528 362.474,202.205 362.474,197.528 367.151,197.528 367.151,202.205 
		371.828,202.205 371.828,197.528 371.828,192.85 376.505,192.85 376.505,197.528 381.183,197.528 381.183,192.85 385.86,192.85 
		390.537,192.85 395.215,192.85 395.215,188.173 399.891,188.173 404.568,188.173 404.568,183.496 399.891,183.496 395.215,183.496 
		390.537,183.496 390.537,188.173 385.86,188.173 381.183,188.173 376.505,188.173 371.828,188.173 367.151,188.173 367.151,192.85 
		362.474,192.85 357.797,192.85 353.121,192.85 348.443,192.85 343.766,192.85 343.766,197.528 339.089,197.528 334.411,197.528 
		329.734,197.528 325.057,197.528 320.38,197.528 320.38,202.205 315.703,202.205 311.025,202.205 306.348,202.205 301.671,202.205 
		301.671,206.882 296.993,206.882 292.317,206.882 	"/>
</g>
<g id="LWPOLYLINE_40_">
	
		<polyline fill="none" stroke="#5F657F" stroke-width="3" stroke-linecap="round" stroke-linejoin="round" stroke-miterlimit="10" points="
		287.64,216.236 287.64,220.914 287.64,225.59 287.64,230.268 292.317,234.945 296.993,234.945 301.671,234.945 296.993,239.622 
		296.993,244.299 296.993,248.976 296.993,253.654 296.993,258.33 296.993,263.008 296.993,267.685 301.671,267.685 
		296.993,272.362 292.317,277.039 292.317,272.362 292.317,267.685 292.317,263.008 292.317,258.33 292.317,253.654 
		292.317,248.976 292.317,244.299 292.317,239.622 287.64,234.945 287.64,239.622 287.64,244.299 287.64,248.976 287.64,253.654 
		287.64,258.33 287.64,263.008 287.64,267.685 287.64,272.362 287.64,277.039 287.64,281.716 287.64,286.394 282.962,291.07 
		282.962,286.394 282.962,281.716 282.962,277.039 282.962,272.362 282.962,267.685 278.285,267.685 278.285,272.362 
		278.285,277.039 278.285,281.716 278.285,286.394 278.285,291.07 278.285,295.748 	"/>
</g>
<g id="LWPOLYLINE_41_">
	
		<polyline fill="none" stroke="#5F017F" stroke-width="3" stroke-linecap="round" stroke-linejoin="round" stroke-miterlimit="10" points="
		278.285,263.008 273.608,263.008 273.608,267.685 273.608,272.362 273.608,277.039 273.608,281.716 273.608,286.394 
		273.608,291.07 273.608,295.748 278.285,300.425 273.608,300.425 273.608,305.102 273.608,309.779 268.931,309.779 
		268.931,314.457 268.931,319.134 264.254,323.811 264.254,319.134 264.254,314.457 264.254,309.779 268.931,305.102 
		268.931,300.425 268.931,295.748 268.931,291.07 268.931,286.394 268.931,281.716 268.931,277.039 268.931,272.362 
		268.931,267.685 268.931,263.008 264.254,263.008 264.254,267.685 259.577,267.685 259.577,263.008 259.577,258.33 
		259.577,253.654 259.577,248.976 259.577,244.299 259.577,239.622 259.577,234.945 259.577,230.268 259.577,225.59 
		259.577,220.914 264.254,216.236 268.931,216.236 273.608,216.236 273.608,211.559 278.285,211.559 282.962,206.882 
		287.64,206.882 	"/>
</g>
<g id="LWPOLYLINE_42_">
	
		<polyline fill="none" stroke="#5F337F" stroke-width="3" stroke-linecap="round" stroke-linejoin="round" stroke-miterlimit="10" points="
		287.64,211.559 282.962,211.559 278.285,216.236 273.608,220.914 268.931,220.914 264.254,220.914 264.254,225.59 264.254,230.268 
		264.254,234.945 264.254,239.622 264.254,244.299 264.254,248.976 264.254,253.654 264.254,258.33 268.931,258.33 268.931,253.654 
		268.931,248.976 268.931,244.299 268.931,239.622 268.931,234.945 268.931,230.268 268.931,225.59 273.608,225.59 273.608,230.268 
		273.608,234.945 273.608,239.622 273.608,244.299 273.608,248.976 273.608,253.654 273.608,258.33 278.285,258.33 278.285,253.654 
		278.285,248.976 278.285,244.299 278.285,239.622 278.285,234.945 278.285,230.268 278.285,225.59 278.285,220.914 
		282.962,216.236 282.962,220.914 282.962,225.59 282.962,230.268 282.962,234.945 282.962,239.622 282.962,244.299 
		282.962,248.976 282.962,253.654 282.962,258.33 282.962,263.008 	"/>
</g>
<g id="LWPOLYLINE_43_">
	
		<polyline fill="none" stroke="#69657F" stroke-width="3" stroke-linecap="round" stroke-linejoin="round" stroke-miterlimit="10" points="
		292.317,216.236 292.317,220.914 292.317,225.59 292.317,230.268 296.993,230.268 301.671,230.268 306.348,230.268 
		306.348,234.945 301.671,239.622 301.671,244.299 301.671,248.976 301.671,253.654 301.671,258.33 301.671,263.008 306.348,258.33 
		306.348,253.654 306.348,248.976 306.348,244.299 306.348,239.622 311.025,239.622 311.025,244.299 311.025,248.976 
		311.025,253.654 315.703,248.976 315.703,244.299 315.703,239.622 320.38,244.299 320.38,239.622 320.38,234.945 320.38,230.268 
		315.703,234.945 311.025,234.945 315.703,230.268 315.703,225.59 315.703,220.914 315.703,216.236 315.703,211.559 
		311.025,211.559 311.025,216.236 311.025,220.914 311.025,225.59 311.025,230.268 306.348,225.59 301.671,225.59 296.993,225.59 
		296.993,220.914 296.993,216.236 301.671,216.236 301.671,220.914 306.348,220.914 	"/>
</g>
<g id="LWPOLYLINE_44_">
	
		<polyline fill="none" stroke="#69337F" stroke-width="3" stroke-linecap="round" stroke-linejoin="round" stroke-miterlimit="10" points="
		320.38,225.59 320.38,220.914 320.38,216.236 320.38,211.559 325.057,211.559 325.057,216.236 325.057,220.914 325.057,225.59 
		325.057,230.268 325.057,234.945 329.734,230.268 329.734,225.59 329.734,220.914 329.734,216.236 329.734,211.559 
		329.734,206.882 334.411,206.882 334.411,211.559 334.411,216.236 334.411,220.914 334.411,225.59 339.089,220.914 
		339.089,216.236 339.089,211.559 339.089,206.882 343.766,206.882 343.766,211.559 343.766,216.236 348.443,211.559 
		348.443,206.882 353.121,206.882 353.121,202.205 353.121,197.528 348.443,197.528 348.443,202.205 343.766,202.205 
		339.089,202.205 334.411,202.205 329.734,202.205 325.057,202.205 325.057,206.882 320.38,206.882 315.703,206.882 
		311.025,206.882 306.348,206.882 306.348,211.559 306.348,216.236 301.671,211.559 296.993,211.559 292.317,211.559 	"/>
</g>
<g id="LWPOLYLINE_1_">
	
		<polyline fill="none" stroke="#4B017F" stroke-width="3" stroke-linecap="round" stroke-linejoin="round" stroke-miterlimit="10" points="
		226.837,258.33 222.159,258.33 217.482,258.33 217.482,253.654 222.159,253.654 226.837,253.654 231.514,253.654 231.514,248.976 
		231.514,244.299 236.19,239.622 236.19,234.945 231.514,239.622 226.837,239.622 226.837,244.299 222.159,244.299 226.837,248.976 
		222.159,248.976 217.482,248.976 212.805,253.654 208.128,253.654 212.805,258.33 208.128,258.33 203.451,258.33 198.773,263.008 
		198.773,267.685 203.451,267.685 203.451,263.008 208.128,263.008 212.805,263.008 217.482,263.008 217.482,267.685 
		212.805,267.685 208.128,267.685 203.451,272.362 198.773,272.362 194.096,272.362 189.419,272.362 189.419,277.039 
		184.742,277.039 184.742,281.716 189.419,281.716 194.096,281.716 194.096,277.039 198.773,277.039 203.451,277.039 
		208.128,272.362 212.805,272.362 212.805,277.039 208.128,277.039 203.451,281.716 	"/>
</g>
<g id="LWPOLYLINE_35_">
	
		<polyline fill="none" stroke="#4B657F" stroke-width="3" stroke-linecap="round" stroke-linejoin="round" stroke-miterlimit="10" points="
		226.837,267.685 226.837,272.362 226.837,277.039 222.159,281.716 222.159,286.394 217.482,286.394 217.482,291.07 222.159,291.07 
		222.159,295.748 217.482,295.748 217.482,300.425 222.159,300.425 222.159,305.102 217.482,305.102 217.482,309.779 
		222.159,309.779 222.159,314.457 217.482,314.457 212.805,314.457 208.128,314.457 203.451,314.457 208.128,319.134 
		212.805,319.134 217.482,319.134 222.159,319.134 226.837,323.811 222.159,323.811 217.482,323.811 212.805,323.811 
		208.128,323.811 212.805,328.488 217.482,328.488 222.159,328.488 226.837,328.488 226.837,333.164 231.514,333.164 
		236.19,333.164 236.19,337.843 231.514,337.843 231.514,342.52 231.514,347.197 226.837,347.197 226.837,342.52 222.159,342.52 
		217.482,342.52 217.482,337.843 222.159,337.843 226.837,337.843 222.159,333.164 217.482,333.164 	"/>
</g>
<g id="LWPOLYLINE_36_">
	
		<polyline fill="none" stroke="#4B337F" stroke-width="3" stroke-linecap="round" stroke-linejoin="round" stroke-miterlimit="10" points="
		203.451,319.134 198.773,319.134 198.773,314.457 198.773,309.779 203.451,309.779 208.128,309.779 212.805,309.779 
		212.805,305.102 212.805,300.425 212.805,295.748 212.805,291.07 212.805,286.394 208.128,286.394 208.128,291.07 208.128,295.748 
		208.128,300.425 208.128,305.102 203.451,305.102 203.451,300.425 203.451,295.748 203.451,291.07 198.773,295.748 
		198.773,300.425 198.773,305.102 194.096,305.102 194.096,300.425 194.096,295.748 198.773,291.07 198.773,286.394 194.096,291.07 
		189.419,291.07 189.419,295.748 189.419,300.425 184.742,295.748 184.742,291.07 184.742,286.394 189.419,286.394 194.096,286.394 
		198.773,281.716 203.451,286.394 208.128,281.716 212.805,281.716 217.482,281.716 222.159,277.039 217.482,277.039 
		217.482,272.362 222.159,272.362 222.159,267.685 222.159,263.008 226.837,263.008 	"/>
</g>
<g id="LWPOLYLINE_37_">
	
		<polyline fill="none" stroke="#55657F" stroke-width="3" stroke-linecap="round" stroke-linejoin="round" stroke-miterlimit="10" points="
		231.514,267.685 236.19,267.685 240.868,267.685 245.545,267.685 245.545,272.362 240.868,272.362 236.19,272.362 231.514,272.362 
		231.514,277.039 236.19,277.039 240.868,277.039 245.545,277.039 245.545,281.716 240.868,281.716 236.19,281.716 231.514,281.716 
		226.837,281.716 226.837,286.394 231.514,286.394 236.19,286.394 240.868,286.394 245.545,286.394 245.545,291.07 240.868,291.07 
		236.19,291.07 231.514,291.07 226.837,291.07 226.837,295.748 231.514,295.748 236.19,295.748 240.868,295.748 245.545,295.748 
		245.545,300.425 240.868,300.425 236.19,300.425 231.514,300.425 226.837,300.425 226.837,305.102 231.514,305.102 236.19,305.102 
		240.868,305.102 245.545,305.102 250.222,309.779 250.222,314.457 245.545,314.457 245.545,309.779 240.868,309.779 
		236.19,309.779 231.514,309.779 226.837,309.779 	"/>
</g>
<g id="LWPOLYLINE_38_">
	
		<polyline fill="none" stroke="#55337F" stroke-width="3" stroke-linecap="round" stroke-linejoin="round" stroke-miterlimit="10" points="
		231.514,263.008 236.19,263.008 240.868,263.008 245.545,263.008 250.222,263.008 250.222,267.685 250.222,272.362 
		250.222,277.039 254.899,277.039 259.577,277.039 259.577,281.716 259.577,286.394 259.577,291.07 259.577,295.748 
		259.577,300.425 259.577,305.102 254.899,305.102 254.899,300.425 254.899,295.748 254.899,291.07 254.899,286.394 
		254.899,281.716 250.222,281.716 250.222,286.394 250.222,291.07 250.222,295.748 250.222,300.425 250.222,305.102 
		254.899,309.779 254.899,314.457 254.899,319.134 259.577,323.811 254.899,323.811 250.222,319.134 250.222,323.811 
		245.545,323.811 240.868,323.811 236.19,323.811 236.19,328.488 231.514,328.488 231.514,323.811 226.837,319.134 226.837,314.457 
		231.514,314.457 231.514,319.134 236.19,319.134 236.19,314.457 240.868,314.457 240.868,319.134 245.545,319.134 	"/>
</g>
<g id="LWPOLYLINE_39_">
	
		<polyline fill="none" stroke="#55017F" stroke-width="3" stroke-linecap="round" stroke-linejoin="round" stroke-miterlimit="10" points="
		231.514,258.33 236.19,253.654 236.19,248.976 236.19,244.299 240.868,239.622 240.868,234.945 240.868,230.268 245.545,230.268 
		250.222,230.268 250.222,225.59 254.899,225.59 254.899,230.268 254.899,234.945 250.222,234.945 245.545,234.945 245.545,239.622 
		250.222,239.622 254.899,239.622 254.899,244.299 250.222,244.299 245.545,244.299 240.868,244.299 240.868,248.976 
		245.545,248.976 250.222,248.976 254.899,248.976 254.899,253.654 250.222,253.654 245.545,253.654 240.868,253.654 236.19,258.33 
		240.868,258.33 245.545,258.33 250.222,258.33 254.899,258.33 254.899,263.008 254.899,267.685 254.899,272.362 259.577,272.362 
		264.254,272.362 264.254,277.039 264.254,281.716 264.254,286.394 264.254,291.07 264.254,295.748 264.254,300.425 
		264.254,305.102 259.577,309.779 259.577,314.457 259.577,319.134 	"/>
</g>
<g id="LWPOLYLINE_2_">
	
		<polyline fill="none" stroke="#73657F" stroke-width="3" stroke-linecap="round" stroke-linejoin="round" stroke-miterlimit="10" points="
		301.671,393.968 301.671,398.645 301.671,403.323 296.993,403.323 292.317,403.323 287.64,403.323 287.64,408 287.64,412.677 
		292.317,417.353 287.64,422.031 292.317,422.031 296.993,426.708 296.993,422.031 296.993,417.353 296.993,412.677 
		292.317,412.677 292.317,408 296.993,408 301.671,408 301.671,412.677 301.671,417.353 301.671,422.031 301.671,426.708 
		306.348,426.708 311.025,426.708 315.703,426.708 315.703,422.031 311.025,422.031 306.348,422.031 306.348,417.353 
		306.348,412.677 306.348,408 306.348,403.323 306.348,398.645 311.025,403.323 315.703,403.323 311.025,408 315.703,408 
		320.38,408 325.057,408 325.057,412.677 320.38,412.677 315.703,412.677 320.38,417.353 325.057,417.353 325.057,422.031 
		320.38,422.031 315.703,417.353 311.025,417.353 311.025,412.677 	"/>
</g>
<g id="LWPOLYLINE_3_">
	
		<polyline fill="none" stroke="#73017F" stroke-width="3" stroke-linecap="round" stroke-linejoin="round" stroke-miterlimit="10" points="
		301.671,384.613 301.671,379.937 301.671,375.259 301.671,370.583 306.348,370.583 306.348,375.259 306.348,379.937 
		311.025,379.937 311.025,375.259 311.025,370.583 315.703,365.905 315.703,370.583 315.703,375.259 315.703,379.937 
		320.38,379.937 320.38,375.259 320.38,370.583 320.38,365.905 320.38,361.227 325.057,356.551 325.057,361.227 325.057,365.905 
		325.057,370.583 325.057,375.259 329.734,375.259 329.734,370.583 329.734,365.905 329.734,361.227 329.734,356.551 
		329.734,351.874 334.411,347.197 334.411,351.874 334.411,356.551 334.411,361.227 334.411,365.905 334.411,370.583 
		334.411,375.259 334.411,379.937 329.734,379.937 325.057,379.937 320.38,384.613 315.703,384.613 311.025,384.613 
		306.348,384.613 311.025,389.292 315.703,389.292 320.38,389.292 325.057,384.613 329.734,384.613 334.411,384.613 	"/>
</g>
<g id="LWPOLYLINE_34_">
	
		<polyline fill="none" stroke="#7D337F" stroke-width="3" stroke-linecap="round" stroke-linejoin="round" stroke-miterlimit="10" points="
		254.899,384.613 250.222,384.613 250.222,379.937 254.899,379.937 259.577,379.937 264.254,379.937 264.254,375.259 
		259.577,375.259 254.899,375.259 250.222,375.259 245.545,370.583 250.222,370.583 254.899,370.583 259.577,370.583 
		259.577,365.905 254.899,365.905 250.222,365.905 245.545,365.905 240.868,365.905 245.545,361.227 250.222,361.227 
		254.899,361.227 254.899,356.551 250.222,356.551 245.545,356.551 240.868,356.551 240.868,361.227 236.19,361.227 236.19,356.551 
		236.19,351.874 240.868,351.874 245.545,351.874 250.222,351.874 254.899,351.874 259.577,351.874 259.577,356.551 
		259.577,361.227 264.254,361.227 264.254,365.905 264.254,370.583 268.931,370.583 268.931,375.259 273.608,375.259 
		278.285,375.259 282.962,375.259 287.64,375.259 292.317,375.259 292.317,379.937 292.317,384.613 296.993,389.292 	"/>
</g>
<g id="LWPOLYLINE_49_">
	
		<polyline fill="none" stroke="#73337F" stroke-width="3" stroke-linecap="round" stroke-linejoin="round" stroke-miterlimit="10" points="
		306.348,393.968 311.025,398.645 315.703,398.645 320.38,398.645 320.38,403.323 325.057,403.323 329.734,403.323 329.734,408 
		329.734,412.677 329.734,417.353 334.411,412.677 334.411,417.353 339.089,417.353 343.766,417.353 339.089,412.677 339.089,408 
		334.411,408 334.411,403.323 329.734,398.645 325.057,398.645 325.057,393.968 329.734,393.968 334.411,393.968 334.411,398.645 
		339.089,403.323 343.766,403.323 348.443,403.323 348.443,408 343.766,408 343.766,412.677 348.443,412.677 353.121,412.677 
		357.797,408 353.121,408 353.121,403.323 353.121,398.645 348.443,398.645 343.766,398.645 339.089,398.645 339.089,393.968 
		339.089,389.292 339.089,384.613 334.411,389.292 329.734,389.292 325.057,389.292 320.38,393.968 315.703,393.968 
		311.025,393.968 306.348,389.292 301.671,389.292 	"/>
</g>
<g id="LWPOLYLINE_51_">
	
		<polyline fill="none" stroke="#7D657F" stroke-width="3" stroke-linecap="round" stroke-linejoin="round" stroke-miterlimit="10" points="
		296.993,393.968 292.317,389.292 287.64,384.613 287.64,379.937 282.962,379.937 278.285,379.937 273.608,379.937 268.931,379.937 
		268.931,384.613 264.254,384.613 259.58,384.613 259.577,389.292 264.254,389.292 268.931,389.292 273.608,384.613 
		278.285,384.613 282.962,384.613 287.64,389.292 287.64,393.968 292.317,393.968 296.993,398.645 292.317,398.645 287.64,398.645 
		282.962,398.645 282.962,393.968 282.962,389.292 278.285,389.292 273.608,389.292 278.285,393.968 273.608,393.968 
		268.931,393.968 264.254,393.968 264.254,398.645 264.254,403.323 268.931,403.323 268.931,398.645 273.608,398.645 
		278.285,398.645 273.608,403.323 273.608,408 273.608,412.677 278.285,417.353 282.962,417.353 287.64,417.353 282.962,412.677 
		282.962,408 282.962,403.323 278.285,403.323 278.285,408 278.285,412.677 	"/>
</g>
<g id="LWPOLYLINE_52_">
	
		<polyline fill="none" stroke="#7D017F" stroke-width="3" stroke-linecap="round" stroke-linejoin="round" stroke-miterlimit="10" points="
		296.993,384.613 296.993,379.937 296.993,375.259 296.993,370.583 292.317,370.583 287.64,370.583 282.962,370.583 
		278.285,370.583 273.608,370.583 273.608,365.905 268.931,365.905 268.931,361.227 268.931,356.551 264.254,356.551 
		264.254,351.874 264.254,347.197 264.254,342.52 264.254,337.843 264.254,333.164 264.254,328.488 259.577,328.488 
		254.899,328.488 250.222,328.488 245.545,328.488 240.868,328.488 240.868,333.164 245.545,333.164 250.222,333.164 
		254.899,333.164 259.577,333.164 259.577,337.843 254.899,337.843 250.222,337.843 245.545,337.843 240.868,337.843 236.19,342.52 
		240.868,342.52 245.545,342.52 250.222,342.52 254.899,342.52 259.577,342.52 259.577,347.197 254.899,347.197 250.222,347.197 
		245.779,347.197 240.868,347.197 236.19,347.197 231.514,351.874 231.514,356.551 231.514,361.227 	"/>
</g>
<g id="LWPOLYLINE_4_">
	
		<polyline fill="none" stroke="#9B657F" stroke-width="3" stroke-linecap="round" stroke-linejoin="round" stroke-miterlimit="10" points="
		399.891,375.259 404.568,370.583 409.246,365.905 413.923,365.905 418.602,365.905 423.277,365.905 427.954,365.905 
		432.631,370.583 432.631,375.259 427.954,375.259 427.954,370.583 423.277,370.583 423.277,375.259 418.602,375.259 
		418.602,370.583 413.923,370.583 413.923,375.259 409.246,375.259 409.246,370.583 404.568,375.259 399.891,379.937 
		399.891,384.613 399.891,389.292 399.891,393.968 399.891,398.645 404.568,398.645 404.568,393.968 404.568,389.292 
		404.568,384.613 404.568,379.937 409.246,379.937 409.246,384.613 409.246,389.292 409.246,393.968 413.923,393.968 
		418.602,393.968 418.602,389.292 413.923,389.292 413.923,384.613 413.923,379.937 418.602,379.937 418.602,384.613 
		423.277,389.292 427.954,389.292 427.954,384.613 423.277,384.613 423.277,379.937 427.954,379.937 432.631,379.937 
		432.631,384.613 	"/>
</g>
<g id="LWPOLYLINE_29_">
	
		<polyline fill="none" stroke="#9B337F" stroke-width="3" stroke-linecap="round" stroke-linejoin="round" stroke-miterlimit="10" points="
		432.631,365.905 427.954,361.227 423.277,361.227 418.602,361.227 413.923,361.227 409.246,361.227 409.246,356.551 
		413.923,356.551 418.602,356.551 423.277,356.551 427.954,356.551 427.954,351.874 423.277,351.874 418.602,351.874 
		413.923,351.874 409.246,351.874 404.568,351.874 399.891,351.874 399.891,347.197 395.215,347.197 395.215,342.52 
		395.215,337.843 395.215,333.164 395.215,328.488 395.215,323.811 390.537,328.488 390.537,333.164 385.86,333.164 385.86,328.488 
		381.183,328.488 381.183,333.164 381.183,337.843 381.183,342.52 385.86,337.843 390.537,337.843 390.537,342.52 385.86,342.52 
		385.86,347.197 390.537,347.197 395.215,351.874 390.537,351.874 385.86,351.874 385.86,356.551 390.537,356.551 395.215,356.551 
		399.891,356.551 404.568,356.551 404.568,361.227 404.568,365.905 399.891,370.583 	"/>
</g>
<g id="LWPOLYLINE_30_">
	
		<polyline fill="none" stroke="#9B017F" stroke-width="3" stroke-linecap="round" stroke-linejoin="round" stroke-miterlimit="10" points="
		390.537,323.811 385.86,323.811 381.183,323.811 381.183,319.134 385.86,319.134 390.537,319.134 390.537,314.457 395.215,319.134 
		395.215,314.457 395.215,309.779 390.537,309.779 385.86,309.779 385.86,314.457 381.183,314.457 376.505,314.457 376.505,319.134 
		376.505,323.811 376.505,328.488 376.505,333.164 376.505,337.843 376.505,342.52 371.828,342.52 371.828,337.843 371.828,333.164 
		371.828,328.488 371.828,323.811 371.828,319.134 367.151,323.811 362.474,323.811 362.474,328.488 367.151,328.488 
		367.151,333.164 362.474,333.164 362.474,337.843 367.151,337.843 367.151,342.52 362.474,342.52 362.474,347.197 367.151,347.197 
		371.828,347.197 376.505,347.197 381.183,347.197 381.183,351.874 381.183,356.551 381.183,361.227 385.86,361.227 
		390.537,361.227 395.215,361.227 399.891,361.227 399.891,365.905 	"/>
</g>
<g id="LWPOLYLINE_31_">
	
		<polyline fill="none" stroke="#A5657F" stroke-width="3" stroke-linecap="round" stroke-linejoin="round" stroke-miterlimit="10" points="
		362.474,408 367.151,408 367.151,403.323 362.474,403.323 357.797,403.323 357.797,398.645 362.474,398.645 367.151,398.645 
		367.151,393.968 362.474,393.968 357.797,393.968 353.121,393.968 348.443,393.968 343.766,393.968 343.766,389.292 
		348.443,389.292 353.121,389.292 357.797,389.292 362.474,389.292 367.151,389.292 371.828,384.613 371.828,389.292 
		371.828,393.968 371.828,398.645 371.828,403.323 376.505,403.323 376.505,398.645 376.505,393.968 376.505,389.292 
		376.505,384.613 381.183,384.613 381.183,389.292 381.183,393.968 381.183,398.645 381.183,403.323 385.86,403.323 385.86,398.645 
		385.86,393.968 385.86,389.292 385.86,384.613 390.537,384.613 390.537,389.292 390.537,393.968 390.537,398.645 395.215,398.645 
		395.215,393.968 395.215,389.292 395.215,384.613 395.215,379.937 395.215,375.259 	"/>
</g>
<g id="LWPOLYLINE_32_">
	
		<polyline fill="none" stroke="#A5337F" stroke-width="3" stroke-linecap="round" stroke-linejoin="round" stroke-miterlimit="10" points="
		395.215,370.583 390.537,370.583 385.86,370.583 381.183,370.583 376.505,370.583 371.828,370.583 371.828,365.905 
		367.151,365.905 362.474,365.905 357.797,365.905 353.121,361.227 348.443,361.227 343.766,361.227 343.766,365.905 
		348.443,365.905 353.121,365.905 357.797,370.583 362.474,370.583 367.151,370.583 367.151,375.259 371.828,375.259 
		376.505,375.259 381.183,375.259 385.86,375.259 390.537,375.259 390.537,379.937 385.86,379.937 381.183,379.937 376.505,379.937 
		371.828,379.937 367.151,379.937 362.474,379.937 362.474,375.259 357.797,375.259 353.121,370.583 348.443,370.583 
		343.766,370.583 343.766,375.259 348.443,375.259 353.121,375.259 357.797,379.937 353.121,379.937 348.443,379.937 
		343.766,379.937 343.766,384.613 348.443,384.613 353.121,384.613 357.797,384.613 362.474,384.613 367.151,384.613 	"/>
</g>
<g id="LWPOLYLINE_33_">
	
		<polyline fill="none" stroke="#A5017F" stroke-width="3" stroke-linecap="round" stroke-linejoin="round" stroke-miterlimit="10" points="
		395.215,365.905 390.537,365.905 385.86,365.905 381.183,365.905 376.505,365.905 376.505,361.227 376.505,356.551 
		376.505,351.874 371.828,351.874 367.151,351.874 362.474,351.874 357.797,351.874 357.797,347.197 357.797,342.52 
		357.797,337.843 357.797,333.164 357.797,328.488 353.121,333.164 353.121,337.843 348.443,337.843 343.766,337.843 
		339.089,342.52 339.089,347.197 343.766,342.52 348.443,342.52 353.121,342.52 353.121,347.197 348.443,347.197 343.766,347.197 
		339.089,351.874 343.766,351.874 348.443,351.874 353.121,351.874 357.797,356.551 362.474,356.551 367.151,356.551 
		371.828,356.551 371.828,361.227 367.151,361.227 362.474,361.227 357.797,361.227 353.121,356.551 348.443,356.551 
		343.766,356.551 339.089,356.551 339.089,361.227 339.089,365.905 339.089,370.583 339.089,375.259 339.089,379.937 	"/>
</g>
<g id="LWPOLYLINE_5_">
	
		<polyline fill="none" stroke="#AF657F" stroke-width="3" stroke-linecap="round" stroke-linejoin="round" stroke-miterlimit="10" points="
		441.986,323.811 441.986,328.488 441.986,333.164 441.986,337.843 441.986,342.52 446.663,342.52 446.663,347.197 446.663,351.874 
		446.663,356.551 446.663,361.227 446.663,365.905 451.34,365.905 456.017,370.583 460.695,370.583 465.372,370.583 470.05,370.583 
		474.727,370.583 479.403,370.583 484.08,370.583 488.758,370.583 493.435,370.583 498.111,370.583 502.789,370.583 
		507.466,370.583 512.143,370.583 516.82,370.583 521.498,370.583 526.174,370.583 530.852,370.583 535.529,370.583 
		540.206,375.259 544.884,375.259 540.206,370.583 535.529,365.905 530.852,365.905 526.174,365.905 521.009,365.905 
		516.82,365.905 512.143,365.905 507.466,365.905 502.789,365.905 498.111,365.905 493.435,365.905 488.758,365.905 484.08,365.905 
		479.403,365.905 474.727,365.905 470.05,365.905 465.372,365.905 460.695,365.905 	"/>
</g>
<g id="LWPOLYLINE_25_">
	
		<polyline fill="none" stroke="#AF337F" stroke-width="3" stroke-linecap="round" stroke-linejoin="round" stroke-miterlimit="10" points="
		441.986,319.134 446.663,314.457 446.663,309.779 446.663,305.102 451.34,309.779 451.34,314.457 456.017,314.457 460.695,314.457 
		465.372,314.457 470.05,314.457 474.727,314.457 479.403,314.457 479.403,319.134 474.727,319.134 470.05,319.134 465.372,319.134 
		460.695,319.134 456.017,319.134 451.34,319.134 446.663,319.134 446.663,323.811 451.34,323.811 451.34,328.488 456.017,328.488 
		456.017,323.811 460.695,323.811 460.695,328.488 465.372,328.488 465.372,323.811 470.05,323.811 470.05,328.488 474.727,323.811 
		479.403,323.811 474.727,328.488 474.727,333.164 470.05,333.164 465.372,333.164 460.695,333.164 456.017,333.164 451.34,333.164 
		446.663,328.488 446.663,333.164 446.663,337.843 451.34,337.843 451.34,342.52 451.34,347.197 451.34,351.874 451.34,356.551 
		451.34,361.227 456.017,365.905 	"/>
</g>
<g id="LWPOLYLINE_26_">
	
		<polyline fill="none" stroke="#AF017F" stroke-width="3" stroke-linecap="round" stroke-linejoin="round" stroke-miterlimit="10" points="
		441.986,314.457 441.986,309.779 441.986,305.102 441.986,300.425 441.986,295.748 441.986,291.07 446.663,291.07 451.34,291.07 
		456.017,291.07 460.695,291.07 465.372,291.07 470.05,291.07 470.05,295.748 465.372,295.748 460.695,295.748 456.251,295.748 
		451.34,295.748 446.663,295.748 446.663,300.425 451.34,300.425 456.017,300.425 460.695,300.425 465.372,300.425 470.05,300.425 
		470.05,305.102 465.372,305.102 460.695,305.102 456.017,305.102 451.34,305.102 456.017,309.779 460.695,309.779 465.372,309.779 
		470.05,309.779 474.727,309.779 479.403,309.779 479.403,305.102 479.403,300.425 474.727,305.102 474.727,300.425 
		474.727,295.748 479.403,295.748 484.08,295.748 484.08,300.425 484.08,305.102 488.758,305.102 488.758,300.425 493.435,300.425 
		493.435,305.102 498.111,305.102 502.789,305.102 	"/>
</g>
<g id="LWPOLYLINE_27_">
	
		<polyline fill="none" stroke="#B9657F" stroke-width="3" stroke-linecap="round" stroke-linejoin="round" stroke-miterlimit="10" points="
		535.529,375.259 530.852,375.259 526.174,375.259 521.498,375.259 516.82,375.259 512.143,375.259 507.466,375.259 
		502.789,375.259 498.111,375.259 493.435,375.259 488.758,375.259 484.08,375.259 479.403,375.259 474.727,375.259 470.05,375.259 
		470.05,379.937 465.372,375.259 465.372,379.937 460.695,379.937 460.695,375.259 456.017,375.259 456.017,379.937 451.34,379.937 
		451.34,375.259 451.34,370.583 446.663,370.583 446.663,375.259 441.986,375.259 441.986,379.937 446.663,379.937 446.663,384.613 
		441.986,384.613 437.309,384.613 437.309,379.937 437.309,375.259 437.309,370.583 441.986,370.583 441.986,365.905 
		441.986,361.227 437.309,365.905 432.631,361.227 437.309,361.227 441.986,356.551 441.986,351.874 441.986,347.197 
		437.309,342.52 437.309,337.843 437.309,333.164 437.309,328.488 437.309,323.811 	"/>
</g>
<g id="LWPOLYLINE_28_">
	
		<polyline fill="none" stroke="#B9337F" stroke-width="3" stroke-linecap="round" stroke-linejoin="round" stroke-miterlimit="10" points="
		437.309,356.551 432.631,356.551 432.631,351.874 437.309,351.874 437.309,347.197 432.631,347.197 428.188,347.197 
		423.277,347.197 418.602,347.197 413.923,347.197 409.246,347.197 404.568,347.197 399.891,342.52 404.568,342.52 409.246,342.52 
		413.923,342.52 418.602,342.52 423.277,342.52 427.954,342.52 432.631,342.52 432.631,337.843 427.954,337.843 423.277,337.843 
		418.602,337.843 413.923,337.843 409.246,337.843 404.568,337.843 399.891,337.843 399.891,333.164 404.568,333.164 
		409.246,333.164 413.923,333.164 418.602,333.164 423.277,333.164 427.954,333.164 432.631,333.164 432.631,328.488 
		427.954,328.488 423.277,328.488 418.602,328.488 413.923,328.488 409.246,328.488 409.246,323.811 413.923,323.811 
		418.602,323.811 423.277,323.811 427.954,323.811 432.631,323.811 432.631,319.134 437.309,319.134 	"/>
</g>
<g id="LWPOLYLINE_47_">
	
		<polyline fill="none" stroke="#B9017F" stroke-width="3" stroke-linecap="round" stroke-linejoin="round" stroke-miterlimit="10" points="
		437.309,314.457 437.309,309.779 437.309,305.102 437.309,300.425 437.309,295.748 432.631,295.748 427.954,295.748 
		423.277,295.748 423.277,300.425 427.954,300.425 432.631,300.425 432.631,305.102 427.954,305.102 423.277,305.102 
		418.602,300.425 413.923,300.425 409.246,300.425 409.246,305.102 413.923,305.102 418.602,305.102 418.602,309.779 
		413.923,309.779 409.246,309.779 404.568,309.779 404.568,305.102 399.891,305.102 395.215,305.102 399.891,309.779 
		399.891,314.457 404.568,314.457 409.246,314.457 413.923,314.457 418.602,314.457 423.277,314.457 423.277,309.779 
		427.954,309.779 432.631,309.779 432.631,314.457 427.954,314.457 427.954,319.134 423.277,319.134 418.602,319.134 
		413.923,319.134 409.246,319.134 404.568,319.134 399.891,319.134 399.891,323.811 404.568,323.811 404.568,328.488 
		399.891,328.488 	"/>
</g>
<g id="LWPOLYLINE_6_">
	
		<polyline fill="none" stroke="#E1017F" stroke-width="3" stroke-linecap="round" stroke-linejoin="round" stroke-miterlimit="10" points="
		484.08,319.134 488.758,319.134 488.758,314.457 484.08,314.457 484.08,309.779 488.758,309.779 493.435,309.779 498.111,309.779 
		502.789,309.779 507.466,309.779 507.466,314.457 502.789,314.457 498.111,314.457 493.435,314.457 493.435,319.134 
		498.111,319.134 502.789,319.134 507.466,319.134 512.143,314.457 512.143,319.134 516.82,319.134 521.498,323.811 516.82,323.811 
		512.143,323.811 507.466,323.811 502.789,323.811 498.111,323.811 493.435,323.811 493.435,328.488 498.111,328.488 
		502.789,328.488 507.466,328.488 512.143,328.488 516.82,328.488 521.498,328.488 526.174,328.488 530.852,333.164 
		526.174,333.164 521.498,333.164 516.82,333.164 516.82,337.843 512.143,333.164 507.466,333.164 502.789,333.164 498.111,333.164 
		493.435,333.164 488.758,337.843 493.435,337.843 498.111,337.843 502.789,337.843 	"/>
</g>
<g id="LWPOLYLINE_23_">
	
		<polyline fill="none" stroke="#E1657F" stroke-width="3" stroke-linecap="round" stroke-linejoin="round" stroke-miterlimit="10" points="
		507.466,342.52 507.466,347.197 502.789,347.197 498.111,347.197 493.435,347.197 488.758,347.197 484.08,347.197 484.08,351.874 
		488.758,351.874 493.435,351.874 498.111,351.874 502.789,351.874 507.466,351.874 507.466,356.551 502.789,356.551 
		498.111,356.551 493.435,356.551 488.758,356.551 484.08,356.551 484.08,361.227 488.758,361.227 493.435,361.227 498.111,361.227 
		502.789,361.227 507.466,361.227 512.143,361.227 516.82,361.227 521.498,361.227 526.174,361.227 530.852,361.227 
		535.529,361.227 540.206,365.905 544.884,370.583 549.561,375.259 549.561,379.937 554.237,379.937 558.915,379.937 
		563.592,379.937 563.592,384.613 568.269,389.292 572.946,389.292 577.623,389.292 572.946,384.613 568.269,384.613 
		568.269,379.937 563.592,375.259 558.915,370.583 554.237,365.905 549.561,361.227 544.884,356.551 	"/>
</g>
<g id="LWPOLYLINE_24_">
	
		<polyline fill="none" stroke="#E1337F" stroke-width="3" stroke-linecap="round" stroke-linejoin="round" stroke-miterlimit="10" points="
		502.789,342.52 498.111,342.52 493.435,342.52 488.758,342.52 484.08,342.52 484.08,337.843 484.08,333.164 488.758,333.164 
		488.758,328.488 488.758,323.811 484.08,323.811 484.08,328.488 479.403,328.488 479.403,333.164 479.403,337.843 479.403,342.52 
		474.727,342.52 474.727,337.843 470.05,337.843 465.372,337.843 460.695,337.843 456.017,337.843 456.017,342.52 460.695,342.52 
		465.372,342.52 470.05,342.52 470.05,347.197 465.372,347.197 460.695,347.197 456.017,347.197 456.017,351.874 460.695,351.874 
		465.372,351.874 470.05,351.874 470.05,356.551 465.372,356.551 460.695,356.551 456.017,356.551 456.017,361.227 460.695,361.227 
		465.372,361.227 470.05,361.227 474.727,361.227 479.403,361.227 479.403,356.551 474.727,356.551 474.727,351.874 
		479.403,351.874 479.403,347.197 474.727,347.197 	"/>
</g>
<g id="LWPOLYLINE_45_">
	
		<polyline fill="none" stroke="#D7017F" stroke-width="3" stroke-linecap="round" stroke-linejoin="round" stroke-miterlimit="10" points="
		507.466,337.843 512.143,342.52 512.143,347.197 512.143,351.874 512.143,356.551 516.82,356.551 521.498,356.551 526.174,356.551 
		530.852,356.551 535.529,356.551 540.206,361.227 544.884,365.905 549.561,370.583 554.237,375.259 558.915,375.259 
		554.237,370.583 549.561,365.905 544.884,361.227 540.206,356.551 535.529,351.874 530.852,351.874 526.174,351.874 
		521.498,351.874 516.82,351.874 516.82,347.197 521.498,347.197 526.174,347.197 530.852,347.197 535.529,347.197 540.206,351.874 
		540.206,347.197 540.206,342.52 544.884,347.197 544.884,351.874 549.561,351.874 549.561,356.551 554.237,356.551 
		554.237,361.227 558.915,361.227 558.915,365.905 563.592,365.905 563.592,370.583 568.269,370.583 568.269,375.259 
		572.946,375.259 572.946,379.937 577.623,379.937 577.623,384.613 582.301,384.613 582.301,389.292 	"/>
</g>
<g id="LWPOLYLINE_46_">
	
		<polyline fill="none" stroke="#D7337F" stroke-width="3" stroke-linecap="round" stroke-linejoin="round" stroke-miterlimit="10" points="
		512.143,337.843 516.82,342.52 521.498,342.52 521.498,337.843 526.174,337.843 526.174,342.52 530.852,342.52 530.852,337.843 
		535.529,337.843 535.529,342.52 	"/>
</g>
<g id="LWPOLYLINE_7_">
	
		<polyline fill="none" stroke="#CD017F" stroke-width="3" stroke-linecap="round" stroke-linejoin="round" stroke-miterlimit="10" points="
		484.08,230.268 488.758,230.268 493.435,230.268 498.111,230.268 502.789,230.268 507.466,230.268 512.143,230.268 516.82,230.268 
		521.498,230.268 526.174,230.268 526.174,234.945 526.174,239.622 526.174,244.299 526.174,248.976 526.174,253.654 
		526.174,258.33 521.498,263.008 516.82,267.685 512.143,267.685 512.143,263.008 516.82,263.008 521.498,258.33 521.498,253.654 
		521.498,248.976 521.498,244.299 521.498,239.622 521.498,234.945 516.82,234.945 516.82,239.622 516.82,244.299 512.143,248.976 
		516.82,248.976 516.82,253.654 512.143,253.654 516.82,258.33 512.143,258.33 507.466,263.008 507.466,267.685 502.789,267.685 
		502.789,263.008 498.111,263.008 493.435,263.008 493.435,258.33 498.111,258.33 502.789,258.33 507.466,258.33 507.466,253.654 
		502.789,253.654 498.111,253.654 493.435,253.654 	"/>
</g>
<g id="LWPOLYLINE_8_">
	
		<polyline fill="none" stroke="#C3017F" stroke-width="3" stroke-linecap="round" stroke-linejoin="round" stroke-miterlimit="10" points="
		484.08,225.59 488.758,225.59 493.435,225.59 498.111,225.59 502.789,225.59 507.466,225.59 512.143,225.59 516.82,225.59 
		521.498,225.59 526.174,225.59 530.852,225.59 535.529,225.59 535.529,220.914 535.529,216.236 530.852,216.236 530.852,220.914 
		526.174,220.914 526.174,216.236 526.174,211.559 521.498,211.559 521.498,216.236 521.498,220.914 516.82,220.914 516.82,216.236 
		516.82,211.559 512.143,206.882 512.143,202.205 507.466,202.205 502.789,202.205 498.111,202.205 498.111,206.882 
		502.789,206.882 507.466,206.882 512.143,211.559 507.466,211.559 502.789,211.559 498.111,211.559 498.111,216.236 
		502.789,216.236 507.466,216.236 512.143,216.236 512.143,220.914 507.466,220.914 502.789,220.914 498.111,220.914 
		493.435,220.914 493.435,216.236 493.435,211.559 493.435,206.882 493.435,202.205 	"/>
</g>
<g id="LWPOLYLINE_14_">
	
		<polyline fill="none" stroke="#C3657F" stroke-width="3" stroke-linecap="round" stroke-linejoin="round" stroke-miterlimit="10" points="
		474.727,225.59 474.727,220.914 470.05,220.914 470.05,225.59 465.372,225.59 465.372,220.914 460.695,220.914 460.695,225.59 
		456.017,225.59 456.017,220.914 451.34,220.914 451.34,225.59 446.663,225.59 446.663,220.914 446.663,216.236 446.663,211.559 
		441.986,211.559 437.309,211.559 432.631,216.236 437.309,216.236 441.986,216.236 441.986,220.914 441.986,225.59 437.309,225.59 
		437.309,220.914 432.631,220.914 432.631,225.59 427.954,225.59 427.954,220.914 423.277,220.914 423.277,225.59 423.277,230.268 
		423.277,234.375 423.277,239.622 427.954,239.622 427.954,244.299 427.954,248.976 427.954,253.654 423.277,253.654 
		423.277,248.976 423.277,244.299 418.602,244.299 418.602,248.976 418.602,253.654 413.923,253.654 413.923,258.33 409.246,258.33 
		409.246,253.654 409.246,248.976 413.923,248.976 	"/>
</g>
<g id="LWPOLYLINE_15_">
	
		<polyline fill="none" stroke="#C3337F" stroke-width="3" stroke-linecap="round" stroke-linejoin="round" stroke-miterlimit="10" points="
		413.923,211.559 418.602,211.559 423.277,211.559 423.277,216.236 427.954,216.236 427.954,211.559 432.631,211.559 
		432.631,206.882 437.309,206.882 441.986,206.882 446.663,206.882 451.34,206.882 451.34,211.559 451.34,216.236 456.017,216.236 
		456.017,211.559 460.695,211.559 460.695,216.236 465.372,216.236 465.372,211.559 470.05,211.559 470.05,216.236 474.727,216.236 
		474.727,211.559 479.403,211.559 479.403,216.236 479.403,220.914 484.08,216.236 484.08,211.559 484.08,206.882 479.403,206.882 
		474.727,206.882 470.05,206.882 465.372,206.882 460.695,206.882 456.017,206.882 456.017,202.205 460.695,202.205 
		465.372,202.205 470.05,202.205 474.727,202.205 479.403,202.205 484.08,202.205 488.758,202.205 488.758,206.882 488.758,211.559 
		488.758,216.236 488.758,220.914 484.08,220.914 479.403,225.59 	"/>
</g>
<g id="LWPOLYLINE_16_">
	
		<polyline fill="none" stroke="#CD657F" stroke-width="3" stroke-linecap="round" stroke-linejoin="round" stroke-miterlimit="10" points="
		474.727,230.268 470.05,230.268 465.372,230.268 460.695,230.268 456.017,230.268 451.34,230.268 446.663,230.268 441.986,230.268 
		437.309,230.268 432.631,230.268 427.954,230.268 427.954,234.945 432.631,234.945 437.309,234.945 441.986,234.945 
		446.663,234.945 451.34,234.945 456.017,234.945 460.695,234.945 465.372,234.945 470.05,234.945 474.727,234.945 474.727,239.622 
		474.727,244.299 470.05,244.299 470.05,239.622 465.372,239.622 460.695,239.622 456.017,239.622 451.34,239.622 446.663,239.622 
		441.986,239.622 437.309,239.622 432.631,239.622 432.631,244.299 437.309,244.299 441.986,244.299 446.663,244.299 
		451.34,244.299 456.017,244.299 460.695,244.299 465.372,244.299 465.372,248.976 460.695,248.976 456.017,248.976 451.34,248.976 
		446.663,248.976 441.986,248.976 437.309,248.976 432.631,248.976 	"/>
</g>
<g id="LWPOLYLINE_17_">
	
		<polyline fill="none" stroke="#CD337F" stroke-width="3" stroke-linecap="round" stroke-linejoin="round" stroke-miterlimit="10" points="
		479.403,230.268 479.403,234.945 484.08,234.945 488.758,234.945 493.435,234.945 498.111,234.945 502.789,234.945 
		507.466,234.945 512.143,234.945 512.143,239.622 507.466,239.622 502.789,239.622 498.111,239.622 493.669,239.622 
		488.758,239.622 484.08,239.622 479.403,239.622 479.403,244.299 484.08,244.299 488.758,244.299 493.435,244.299 498.111,244.299 
		502.789,244.299 507.466,244.299 512.143,244.299 507.466,248.976 502.789,248.976 498.111,248.976 493.435,248.976 
		488.758,248.976 488.758,253.654 488.758,258.33 484.08,258.33 479.403,258.33 479.403,253.654 484.08,253.654 484.08,248.976 
		479.403,248.976 474.727,248.976 470.05,248.976 474.727,253.654 470.05,253.654 465.372,253.654 460.695,253.654 456.017,253.654 
		451.34,253.654 446.663,253.654 441.986,253.654 437.309,253.654 432.631,253.654 	"/>
</g>
<g id="LWPOLYLINE_9_">
	
		<polyline fill="none" stroke="#EB017F" stroke-width="3" stroke-linecap="round" stroke-linejoin="round" stroke-miterlimit="10" points="
		563.592,286.394 568.269,286.394 572.946,286.394 572.946,281.716 568.269,281.716 563.592,281.716 563.592,277.039 
		568.269,277.039 572.946,277.039 572.946,272.362 577.623,272.362 582.301,272.362 586.978,272.362 582.301,267.685 
		577.623,267.685 572.946,267.685 572.946,263.008 577.623,263.008 582.301,263.008 577.623,258.33 572.946,258.33 572.946,253.654 
		577.623,253.654 572.946,248.976 568.269,244.299 568.269,248.976 568.269,253.654 568.269,258.33 568.269,263.008 
		568.269,267.685 568.269,272.362 563.592,272.362 563.592,267.685 563.592,263.008 563.592,258.33 563.592,253.654 
		563.592,248.976 563.592,244.299 563.592,239.622 558.915,234.945 558.915,239.622 558.915,244.299 558.915,248.976 
		558.915,253.654 558.915,258.33 558.915,263.008 558.915,267.685 558.915,272.362 558.915,277.039 558.915,281.716 	"/>
</g>
<g id="LWPOLYLINE_18_">
	
		<polyline fill="none" stroke="#EB657F" stroke-width="3" stroke-linecap="round" stroke-linejoin="round" stroke-miterlimit="10" points="
		554.237,286.394 549.561,286.394 549.561,281.716 544.884,281.716 544.884,277.039 540.206,277.039 540.206,272.362 
		540.206,267.685 540.206,263.008 540.206,258.33 540.206,253.654 540.206,248.976 540.206,244.299 535.529,248.976 
		530.852,248.976 530.852,253.654 535.529,253.654 535.529,258.33 530.852,258.33 530.852,263.008 535.529,263.008 535.529,267.685 
		530.852,267.685 535.529,272.362 530.852,272.362 526.174,272.362 526.174,267.685 526.174,263.008 521.498,267.685 
		521.498,272.362 516.82,272.362 516.82,277.039 521.498,277.039 526.174,277.039 530.852,277.039 530.852,281.716 526.174,281.716 
		530.852,286.394 535.529,281.716 535.529,277.039 540.206,281.716 535.529,286.394 535.529,291.07 540.206,286.394 
		544.884,286.394 540.206,291.07 544.884,291.07 540.206,295.748 544.884,295.748 544.884,300.425 	"/>
</g>
<g id="LWPOLYLINE_19_">
	
		<polyline fill="none" stroke="#EB337F" stroke-width="3" stroke-linecap="round" stroke-linejoin="round" stroke-miterlimit="10" points="
		558.915,286.394 554.237,281.716 554.237,277.039 554.237,272.362 554.237,267.685 554.237,263.008 554.237,258.33 
		554.237,253.654 554.237,248.976 554.237,244.299 554.237,239.622 554.237,234.945 554.237,230.268 549.561,225.59 
		549.561,230.268 549.561,234.945 549.561,239.622 549.561,244.299 549.561,248.976 549.561,253.654 549.561,258.33 
		549.561,263.008 549.561,267.685 549.561,272.362 549.561,277.039 544.884,272.362 544.884,267.685 544.884,263.008 
		544.884,258.33 544.884,253.654 544.884,248.976 544.884,244.299 544.884,239.622 544.884,234.945 544.884,230.268 544.884,225.59 
		544.884,220.914 540.206,220.914 540.206,225.59 540.206,230.268 535.529,230.268 530.852,230.268 530.852,234.945 
		535.529,234.945 540.206,234.945 540.206,239.622 535.529,239.622 530.852,239.622 530.852,244.299 535.529,244.299 	"/>
</g>
<g id="LWPOLYLINE_20_">
	
		<polyline fill="none" stroke="#F5657F" stroke-width="3" stroke-linecap="round" stroke-linejoin="round" stroke-miterlimit="10" points="
		582.301,319.134 586.978,319.134 586.978,323.811 591.655,323.811 591.655,328.488 596.331,328.488 596.331,333.164 
		601.009,328.488 605.687,328.488 610.363,328.488 610.363,333.164 610.363,337.843 615.04,337.843 615.04,342.52 615.04,347.197 
		615.04,351.874 615.04,356.551 615.04,361.227 610.363,361.227 605.687,361.227 605.687,356.551 601.009,356.551 601.009,351.874 
		596.331,351.874 596.331,347.197 591.655,347.197 591.655,342.52 586.978,342.52 586.978,337.843 582.301,337.843 582.301,333.164 
		577.623,333.164 577.623,328.488 572.946,328.488 572.946,323.811 568.269,323.811 568.269,319.134 563.592,319.134 
		563.592,314.457 558.915,314.457 558.915,309.779 554.237,309.779 554.237,305.102 549.561,305.102 549.561,300.425 
		554.237,300.425 554.237,295.748 549.561,295.748 549.561,291.07 554.237,291.07 	"/>
</g>
<g id="LWPOLYLINE_21_">
	
		<polyline fill="none" stroke="#F5337F" stroke-width="3" stroke-linecap="round" stroke-linejoin="round" stroke-miterlimit="10" points="
		558.915,291.07 558.915,295.748 563.592,295.748 568.269,295.748 572.946,295.748 572.946,300.425 577.623,300.425 
		577.623,305.102 582.301,305.102 582.301,309.779 586.978,309.779 582.301,314.457 577.623,314.457 577.623,309.779 
		572.946,309.779 572.946,305.102 568.269,305.102 568.269,300.425 563.592,300.425 558.915,300.425 558.915,305.102 
		563.592,305.102 563.592,309.779 568.269,309.779 568.269,314.457 572.946,314.457 572.946,319.134 577.623,319.134 
		577.623,323.811 582.301,323.811 582.301,328.488 586.978,328.488 586.978,333.164 591.655,333.164 591.655,337.843 
		596.331,337.843 596.331,342.52 601.009,342.52 601.009,347.197 605.687,347.197 605.687,351.874 610.363,356.551 610.363,351.874 
		610.363,347.197 610.363,342.52 605.687,342.52 605.687,337.843 605.687,333.164 601.009,337.843 601.009,333.164 	"/>
</g>
<g id="LWPOLYLINE_22_">
	
		<polyline fill="none" stroke="#F5017F" stroke-width="3" stroke-linecap="round" stroke-linejoin="round" stroke-miterlimit="10" points="
		563.592,291.07 568.269,291.07 572.946,291.07 577.623,291.07 577.623,286.394 577.623,281.716 577.623,277.039 582.301,277.039 
		586.978,277.039 582.301,281.716 586.978,281.716 591.655,281.716 591.655,286.394 586.978,286.394 582.301,286.394 
		582.301,291.07 586.978,291.07 591.655,291.07 596.331,291.07 596.331,295.748 591.655,295.748 586.978,295.748 582.301,295.748 
		577.623,295.748 582.301,300.425 586.978,305.102 586.978,300.425 591.655,300.425 591.655,305.102 591.655,309.779 
		596.331,309.779 596.331,305.102 596.331,300.425 601.009,300.425 601.009,305.102 601.009,309.779 605.687,309.779 
		605.687,314.457 605.687,319.134 610.363,323.811 605.687,323.811 601.009,323.811 596.331,323.811 601.009,319.134 
		601.009,314.457 596.331,314.457 596.331,319.134 591.655,319.134 591.655,314.457 586.978,314.457 	"/>
</g>
<g id="LWPOLYLINE_10_">
	
		<polyline fill="none" stroke="#87017F" stroke-width="3" stroke-linecap="round" stroke-linejoin="round" stroke-miterlimit="10" points="
		357.797,272.362 357.797,277.039 353.121,277.039 353.121,281.716 348.443,281.716 348.443,286.394 343.766,286.394 
		343.766,291.07 339.089,291.07 339.089,295.748 334.411,295.748 334.411,300.425 329.734,300.425 329.734,305.102 325.057,305.102 
		325.057,309.779 320.38,314.457 315.703,314.457 315.703,309.779 320.38,309.779 320.38,305.102 320.38,300.425 325.057,300.425 
		325.057,295.748 325.057,291.07 329.734,295.748 329.734,291.07 329.734,286.394 334.411,291.07 334.411,286.394 339.089,286.394 
		334.411,281.716 334.411,277.039 339.089,281.716 343.766,281.716 339.089,277.039 339.089,272.362 343.766,272.362 
		343.766,277.039 348.443,277.039 348.443,272.362 353.121,272.362 353.121,267.685 357.797,267.685 357.797,263.008 
		362.474,263.008 362.474,258.33 367.151,258.33 367.151,253.654 371.828,253.654 	"/>
</g>
<g id="LWPOLYLINE_11_">
	
		<polyline fill="none" stroke="#91017F" stroke-width="3" stroke-linecap="round" stroke-linejoin="round" stroke-miterlimit="10" points="
		371.828,248.976 367.151,248.976 362.474,253.654 357.797,258.33 353.121,263.008 348.443,267.685 343.766,267.685 
		343.766,263.008 348.443,263.008 348.443,258.33 353.121,258.33 353.121,253.654 357.797,253.654 357.797,248.976 357.797,244.299 
		362.474,248.976 362.474,244.299 362.474,239.622 367.151,239.622 367.151,244.299 371.828,244.299 371.828,239.622 
		367.151,234.945 371.828,234.945 371.828,230.268 376.505,230.268 376.505,234.945 381.183,234.945 381.183,230.268 
		381.183,225.59 385.86,225.59 390.537,225.59 390.537,220.914 395.215,220.914 399.891,220.914 399.891,216.236 404.568,216.236 
		409.246,216.236 413.923,216.236 418.602,216.236 418.602,220.914 418.602,225.59 418.602,230.268 418.602,234.945 
		418.602,239.622 413.923,239.622 413.923,244.299 409.246,244.299 409.246,239.622 404.568,244.299 	"/>
</g>
<g id="LWPOLYLINE_12_">
	
		<polyline fill="none" stroke="#87337F" stroke-width="3" stroke-linecap="round" stroke-linejoin="round" stroke-miterlimit="10" points="
		376.505,253.654 381.183,253.654 385.86,258.33 390.537,258.33 390.537,263.008 385.86,263.008 381.183,263.008 381.183,258.33 
		376.505,258.33 371.828,258.33 371.828,263.008 376.505,263.008 376.505,267.685 371.828,267.685 367.151,263.008 367.151,267.685 
		371.828,272.362 367.151,272.362 362.474,267.685 362.474,272.362 367.151,277.039 362.474,277.039 362.474,281.716 
		357.797,281.716 357.797,286.394 353.121,286.394 353.121,291.07 348.443,291.07 348.443,295.748 343.766,295.748 343.766,300.425 
		339.089,300.425 339.089,305.102 334.411,305.102 334.411,309.779 329.734,309.779 329.734,314.457 325.057,314.457 
		325.057,319.134 320.38,319.134 	"/>
</g>
<g id="LWPOLYLINE_13_">
	
		<polyline fill="none" stroke="#91337F" stroke-width="3" stroke-linecap="round" stroke-linejoin="round" stroke-miterlimit="10" points="
		376.505,248.976 376.505,244.299 376.505,239.622 381.183,239.622 385.86,239.622 385.86,234.945 385.86,230.268 390.537,230.268 
		395.215,230.268 395.215,225.59 399.891,225.59 404.568,225.59 404.568,220.914 409.246,220.914 413.923,220.914 413.923,225.59 
		413.923,230.268 413.923,234.945 409.246,234.945 409.246,230.268 409.246,225.59 404.568,230.268 399.891,230.268 
		404.568,234.945 399.891,234.945 395.215,234.945 390.537,234.945 390.537,239.622 395.215,239.622 399.891,239.622 
		404.568,239.622 399.891,244.299 395.215,244.299 390.537,244.299 385.86,244.299 381.183,244.299 381.183,248.976 385.86,248.976 
		390.537,248.976 395.215,248.976 399.891,248.976 404.568,248.976 404.568,253.654 404.568,258.33 399.891,258.33 395.215,258.33 
		399.891,253.654 395.215,253.654 390.537,253.654 385.86,253.654 	"/>
</g>
<g id="_x32_-1_power_cable">
	<g id="LWPOLYLINE_48_">
		
			<path fill="none" stroke="#FF00FF" stroke-width="0.0023" stroke-linecap="round" stroke-linejoin="round" stroke-miterlimit="10" d="
			M343.766,337.892"/>
	</g>
	<g id="LWPOLYLINE_50_">
		
			<path fill="none" stroke="#0000FF" stroke-width="0.0023" stroke-linecap="round" stroke-linejoin="round" stroke-miterlimit="10" d="
			M329.734,417.353"/>
	</g>
</g>
</svg>
